<svg width="14" height="14" viewBox="0 0 14 14" fill="none" xmlns="http://www.w3.org/2000/svg">
<path fill-rule="evenodd" clip-rule="evenodd" d="M3.76033 0C4.04788 0 4.28099 0.208934 4.28099 0.466667V1.45185H9.71901V0.466667C9.71901 0.208934 9.95212 0 10.2397 0C10.5272 0 10.7603 0.208934 10.7603 0.466667V1.45185H11.8595C12.4272 1.45185 12.9716 1.65398 13.3731 2.01377C13.7745 2.37356 14 2.86155 14 3.37037V4.82222C14 4.88659 13.9855 4.94792 13.9592 5.0037C13.9855 5.05949 14 5.12082 14 5.18519V12.0815C14 12.5903 13.7745 13.0783 13.3731 13.4381C12.9716 13.7979 12.4272 14 11.8595 14H2.1405C1.5728 14 1.02836 13.7979 0.626937 13.4381C0.225516 13.0783 0 12.5903 0 12.0815V5.18519C0 5.12082 0.0145405 5.05949 0.040838 5.0037C0.0145405 4.94792 0 4.88659 0 4.82222V3.37037C0 2.86155 0.225516 2.37356 0.626937 2.01377C1.02836 1.65398 1.5728 1.45185 2.1405 1.45185H3.23967V0.466667C3.23967 0.208934 3.47278 0 3.76033 0ZM1.04132 4.35556V3.37037C1.04132 3.10908 1.15713 2.8585 1.36326 2.67374C1.5694 2.48898 1.84898 2.38519 2.1405 2.38519H11.8595C12.151 2.38519 12.4306 2.48898 12.6367 2.67374C12.8429 2.8585 12.9587 3.10908 12.9587 3.37037V4.35556H1.04132ZM12.9587 5.28889H1.04132V12.0815C1.04132 12.3428 1.15713 12.5934 1.36326 12.7781C1.5694 12.9629 1.84898 13.0667 2.1405 13.0667H11.8595C12.151 13.0667 12.4306 12.9629 12.6367 12.7781C12.8429 12.5934 12.9587 12.3428 12.9587 12.0815V5.28889Z" fill="#202020"/>
</svg>
