<svg width="18" height="18" viewBox="0 0 18 18" fill="none" xmlns="http://www.w3.org/2000/svg">
<path d="M3.108 1.13471C3.70605 0.921357 4.35237 0.882144 4.97182 1.02163C5.59128 1.16111 6.15842 1.47355 6.6073 1.92264C7.05619 2.37173 7.36838 2.93901 7.50759 3.55852C7.64679 4.17804 7.60729 4.82434 7.39367 5.42229L17.7868 15.8154L15.7532 17.848L5.36009 7.45587C4.76204 7.66922 4.11572 7.70844 3.49627 7.56896C2.87681 7.42948 2.30968 7.11703 1.86079 6.66794C1.4119 6.21885 1.09971 5.65158 0.960505 5.03206C0.8213 4.41255 0.860803 3.76624 1.07442 3.16829L3.21725 5.31208C3.34986 5.44938 3.50848 5.55889 3.68386 5.63423C3.85924 5.70957 4.04787 5.74922 4.23874 5.75088C4.42961 5.75254 4.6189 5.71617 4.79556 5.64389C4.97223 5.57161 5.13273 5.46487 5.2677 5.3299C5.40267 5.19493 5.50941 5.03443 5.58169 4.85777C5.65396 4.6811 5.69034 4.49181 5.68868 4.30094C5.68702 4.11007 5.64736 3.92144 5.57202 3.74606C5.49669 3.57068 5.38718 3.41206 5.24988 3.27946L3.10705 1.13375L3.108 1.13471ZM13.043 2.94021L16.0925 1.24587L17.4475 2.60096L15.7532 5.65037L14.0589 5.98962L12.0272 8.02225L10.6712 6.66717L12.7038 4.63454L13.043 2.94021ZM6.26667 10.3941L8.2993 12.4277L3.55555 17.1715C3.29396 17.4306 2.9429 17.5795 2.57477 17.5874C2.20664 17.5953 1.84951 17.4617 1.57702 17.214C1.30454 16.9663 1.13748 16.6236 1.11029 16.2564C1.08311 15.8891 1.19787 15.5255 1.43092 15.2404L1.52388 15.1379L6.26667 10.3941Z" fill="#E04410"/>
</svg>
