<svg width="23" height="23" viewBox="0 0 23 23" fill="none" xmlns="http://www.w3.org/2000/svg">
<path d="M11.0222 20.6706C5.94918 20.6706 1.83691 16.4641 1.83691 11.2748C1.83691 6.0856 5.94918 1.87914 11.0222 1.87914C16.0953 1.87914 20.2076 6.0856 20.2076 11.2748C20.2076 16.4641 16.0953 20.6706 11.0222 20.6706ZM11.0222 18.7914C12.9711 18.7914 14.8402 17.9995 16.2182 16.5899C17.5963 15.1802 18.3705 13.2684 18.3705 11.2748C18.3705 9.28133 17.5963 7.36946 16.2182 5.95983C14.8402 4.5502 12.9711 3.75828 11.0222 3.75828C9.07336 3.75828 7.2043 4.5502 5.82624 5.95983C4.44817 7.36946 3.67398 9.28133 3.67398 11.2748C3.67398 13.2684 4.44817 15.1802 5.82624 16.5899C7.2043 17.9995 9.07336 18.7914 11.0222 18.7914ZM10.1065 15.0331L6.20913 11.0465L7.50793 9.71798L10.1065 12.376L15.3017 7.06087L16.6014 8.38943L10.1065 15.0331Z" fill="#3FB89C"/>
</svg>
