<svg width="28" height="28" viewBox="0 0 28 28" fill="none" xmlns="http://www.w3.org/2000/svg">
<path d="M24.7738 6.16875L14.2738 2.66875C14.0956 2.61392 13.9051 2.61392 13.7269 2.66875L3.23783 6.16875H3.21595L3.10658 6.22343H3.09564L2.98627 6.28906C2.98627 6.3 2.97533 6.3 2.96439 6.31093L2.87689 6.3875L2.80033 6.475C2.80033 6.48593 2.78939 6.48593 2.78939 6.49687L2.72377 6.59531C2.72377 6.60625 2.72377 6.60625 2.71283 6.61718L2.66908 6.71562L2.63627 6.83593V6.86875C2.62548 6.9116 2.62178 6.95594 2.62533 7V15.75C2.62533 15.9821 2.71751 16.2046 2.88161 16.3687C3.0457 16.5328 3.26826 16.625 3.50033 16.625C3.73239 16.625 3.95495 16.5328 4.11905 16.3687C4.28314 16.2046 4.37533 15.9821 4.37533 15.75V8.21406L8.05033 9.43906C7.35991 10.5442 6.99592 11.8219 7.00033 13.125C7.00073 14.3101 7.302 15.4757 7.8759 16.5125C8.44981 17.5494 9.27756 18.4235 10.2816 19.0531C8.19514 19.8424 6.41392 21.2751 5.19564 23.1437C5.07146 23.3401 5.02939 23.5774 5.07849 23.8045C5.12759 24.0316 5.26393 24.2303 5.45814 24.3578C5.55345 24.421 5.66033 24.4646 5.77261 24.4861C5.88489 24.5076 6.00033 24.5067 6.11224 24.4833C6.22414 24.4599 6.33029 24.4145 6.42454 24.3498C6.51878 24.2851 6.59925 24.2023 6.66127 24.1062C7.45547 22.8829 8.54288 21.8775 9.82463 21.1814C11.1064 20.4854 12.5418 20.1208 14.0003 20.1208C15.4589 20.1208 16.8943 20.4854 18.176 21.1814C19.4578 21.8775 20.5452 22.8829 21.3394 24.1062C21.4193 24.2275 21.5281 24.327 21.656 24.3958C21.7839 24.4645 21.927 24.5003 22.0722 24.5C22.2398 24.5018 22.404 24.4521 22.5425 24.3578C22.7367 24.2303 22.8731 24.0316 22.9222 23.8045C22.9713 23.5774 22.9292 23.3401 22.805 23.1437C21.5867 21.2751 19.8055 19.8424 17.7191 19.0531C18.7231 18.4235 19.5508 17.5494 20.1248 16.5125C20.6987 15.4757 20.9999 14.3101 21.0003 13.125C21.0047 11.8219 20.6407 10.5442 19.9503 9.43906L24.7738 7.83125C24.9488 7.77371 25.1012 7.66237 25.2093 7.5131C25.3174 7.36384 25.3755 7.18427 25.3755 7C25.3755 6.81572 25.3174 6.63615 25.2093 6.48689C25.1012 6.33762 24.9488 6.22628 24.7738 6.16875ZM19.2503 13.125C19.2503 14.5174 18.6972 15.8527 17.7126 16.8373C16.7281 17.8219 15.3927 18.375 14.0003 18.375C12.6079 18.375 11.2726 17.8219 10.288 16.8373C9.30345 15.8527 8.75033 14.5174 8.75033 13.125C8.75244 12.0047 9.10844 10.9137 9.76752 10.0078L13.7269 11.3312C13.9045 11.3897 14.0962 11.3897 14.2738 11.3312L18.2331 10.0078C18.8922 10.9137 19.2482 12.0047 19.2503 13.125ZM18.2331 8.17031H18.2222L14.0003 9.58125L9.77845 8.17031H9.76752L6.26752 7L14.0003 4.41875L21.7331 7L18.2331 8.17031Z" fill="#7E7E7E"/>
</svg>
