<svg width="18" height="21" viewBox="0 0 18 21" fill="none" xmlns="http://www.w3.org/2000/svg">
<path d="M6.36556 8.85618C7.302 10.7545 8.6712 12.333 10.3179 13.4125L11.2024 11.985C11.4965 11.5105 12.0516 11.3638 12.4956 11.6434C13.9024 12.5293 15.4571 13.0677 17.0789 13.2157C17.599 13.2632 18 13.7636 18 14.365V19.5098C18 20.1009 17.6122 20.5962 17.1022 20.6566C16.5723 20.7194 16.0377 20.751 15.5 20.751C6.93959 20.751 0 12.7508 0 2.88208C0 2.26217 0.0274201 1.64591 0.0818901 1.03497C0.1343 0.447011 0.56394 0 1.07665 0H5.53942C6.0611 0 6.49513 0.462332 6.5363 1.06186C6.66467 2.93151 7.1317 4.72389 7.9002 6.3457C8.1427 6.85751 8.0155 7.49749 7.6039 7.83646L6.36556 8.85618ZM3.84425 8.09888L5.7442 6.53436C5.20547 5.19367 4.83628 3.77187 4.64727 2.30567H2.00907C2.00303 2.4974 2 2.68956 2 2.88208C2 11.4774 8.0442 18.4453 15.5 18.4453C15.667 18.4453 15.8337 18.4419 16 18.4348V15.3934C14.7282 15.1755 13.4949 14.7499 12.3319 14.1289L10.9748 16.3193C10.4258 16.0734 9.8956 15.784 9.3874 15.455L9.3293 15.4168C7.3697 14.1322 5.74134 12.255 4.627 9.99587L4.59394 9.92889C4.30849 9.34302 4.05754 8.73178 3.84425 8.09888Z" fill="#7E7E7E"/>
</svg>
