<svg width="19" height="19" viewBox="0 0 19 19" fill="none" xmlns="http://www.w3.org/2000/svg">
<path d="M9.50065 17.4166C5.12828 17.4166 1.58398 13.8724 1.58398 9.49998C1.58398 5.12761 5.12828 1.58331 9.50065 1.58331C13.873 1.58331 17.4173 5.12761 17.4173 9.49998C17.4173 13.8724 13.873 17.4166 9.50065 17.4166ZM9.50065 15.8333C11.1804 15.8333 12.7913 15.1661 13.979 13.9783C15.1667 12.7906 15.834 11.1797 15.834 9.49998C15.834 7.82028 15.1667 6.20937 13.979 5.02164C12.7913 3.83391 11.1804 3.16665 9.50065 3.16665C7.82095 3.16665 6.21004 3.83391 5.02231 5.02164C3.83458 6.20937 3.16732 7.82028 3.16732 9.49998C3.16732 11.1797 3.83458 12.7906 5.02231 13.9783C6.21004 15.1661 7.82095 15.8333 9.50065 15.8333ZM10.2923 9.49998H13.459V11.0833H8.70899V5.54165H10.2923V9.49998Z" fill="#202020"/>
</svg>
