<svg width="23" height="23" viewBox="0 0 23 23" fill="none" xmlns="http://www.w3.org/2000/svg">
<path d="M11.0222 20.6706C5.94919 20.6706 1.83691 16.4641 1.83691 11.2749C1.83691 6.08561 5.94919 1.87915 11.0222 1.87915C16.0953 1.87915 20.2076 6.08561 20.2076 11.2749C20.2076 16.4641 16.0953 20.6706 11.0222 20.6706ZM11.0222 18.7914C12.9711 18.7914 14.8402 17.9995 16.2182 16.5899C17.5963 15.1803 18.3705 13.2684 18.3705 11.2749C18.3705 9.28135 17.5963 7.36948 16.2182 5.95985C14.8402 4.55022 12.9711 3.75829 11.0222 3.75829C9.07336 3.75829 7.2043 4.55022 5.82624 5.95985C4.44817 7.36948 3.67398 9.28135 3.67398 11.2749C3.67398 13.2684 4.44817 15.1803 5.82624 16.5899C7.2043 17.9995 9.07336 18.7914 11.0222 18.7914ZM10.1065 15.0331L6.20913 11.0465L7.50793 9.71799L10.1065 12.376L15.3017 7.06089L16.6014 8.38944L10.1065 15.0331Z" fill="#E04410"/>
</svg>
