<svg width="23" height="23" viewBox="0 0 23 23" fill="none" xmlns="http://www.w3.org/2000/svg">
<path d="M11.5006 21.0833C10.3679 21.0833 9.24639 20.8602 8.19995 20.4268C7.15352 19.9933 6.20271 19.358 5.4018 18.5571C4.60089 17.7562 3.96558 16.8054 3.53214 15.759C3.09869 14.7125 2.8756 13.591 2.8756 12.4583C2.8756 11.3257 3.09869 10.2041 3.53214 9.15769C3.96558 8.11125 4.60089 7.16044 5.4018 6.35953C6.20271 5.55863 7.15352 4.92332 8.19995 4.48987C9.24639 4.05642 10.3679 3.83333 11.5006 3.83333C13.7881 3.83333 15.9819 4.74203 17.5994 6.35953C19.2169 7.97703 20.1256 10.1708 20.1256 12.4583C20.1256 14.7458 19.2169 16.9396 17.5994 18.5571C15.9819 20.1746 13.7881 21.0833 11.5006 21.0833ZM11.5006 19.1667C12.3815 19.1667 13.2539 18.9931 14.0678 18.656C14.8817 18.3189 15.6212 17.8248 16.2441 17.2018C16.867 16.5789 17.3612 15.8394 17.6983 15.0255C18.0354 14.2116 18.2089 13.3393 18.2089 12.4583C18.2089 11.5774 18.0354 10.7051 17.6983 9.89116C17.3612 9.07727 16.867 8.33775 16.2441 7.71482C15.6212 7.0919 14.8817 6.59776 14.0678 6.26064C13.2539 5.92351 12.3815 5.75 11.5006 5.75C9.72144 5.75 8.01514 6.45677 6.75709 7.71482C5.49903 8.97288 4.79226 10.6792 4.79226 12.4583C4.79226 14.2375 5.49903 15.9438 6.75709 17.2018C8.01514 18.4599 9.72144 19.1667 11.5006 19.1667ZM12.4589 12.4583H15.3339V14.375H10.5423V7.66666H12.4589V12.4583ZM1.6748 6.02025L5.06251 2.63254L6.41855 3.98762L3.02893 7.37629L1.6748 6.02025ZM17.9377 2.63254L21.3264 6.02025L19.9713 7.37629L16.5826 3.98762L17.9387 2.63254H17.9377Z" fill="black"/>
</svg>
