<?xml version="1.0" standalone="no"?><!DOCTYPE svg PUBLIC "-//W3C//DTD SVG 1.1//EN" "http://www.w3.org/Graphics/SVG/1.1/DTD/svg11.dtd"><svg t="1687772340710" class="icon" viewBox="0 0 1024 1024" version="1.1" xmlns="http://www.w3.org/2000/svg" p-id="1192" xmlns:xlink="http://www.w3.org/1999/xlink" width="200" height="200"><path d="M786.522 420.962L600.654 235.093c-38.495-38.495-100.907-38.494-139.401 0L96.63 599.716a99.112 99.112 0 0 0-10.817 12.86c-12.709 14.27-20.462 33.253-20.462 54.093v214.083c0 44.338 35.083 80.281 78.36 80.281H352.67c23.102 0 43.865-10.247 58.206-26.542a99.352 99.352 0 0 0 11.023-9.506l364.622-364.622c38.495-38.495 38.495-100.907 0.001-139.401zM368.319 851.287a60.38 60.38 0 0 1-6.71 5.786c-8.73 9.919-21.368 16.156-35.43 16.156H198.987c-26.342 0-47.697-21.878-47.697-48.867V694.051c0-12.685 4.719-24.24 12.455-32.926a60.273 60.273 0 0 1 6.584-7.828l318.198-318.198c23.431-23.431 61.421-23.432 84.853 0l113.137 113.137c23.431 23.431 23.431 61.421 0 84.853L368.319 851.287zM941.075 320.957L700.659 80.54c-23.431-23.431-61.421-23.431-84.853 0l-14.142 14.142c-23.432 23.432-23.431 61.421 0 84.853L842.08 419.951c23.431 23.431 61.421 23.432 84.853 0l14.142-14.142c23.432-23.431 23.432-61.421 0-84.852z" fill="#202020" p-id="1193"></path></svg>