<?xml version="1.0" standalone="no"?><!DOCTYPE svg PUBLIC "-//W3C//DTD SVG 1.1//EN" "http://www.w3.org/Graphics/SVG/1.1/DTD/svg11.dtd"><svg t="1687772362904" class="icon" viewBox="0 0 1024 1024" version="1.1" xmlns="http://www.w3.org/2000/svg" p-id="2016" xmlns:xlink="http://www.w3.org/1999/xlink" width="200" height="200"><path d="M678.066 659.387L542.754 524.074v-191.28c0-24.853-20.147-45-45-45s-45 20.147-45 45v210c0 0.455 0.021 0.905 0.034 1.357 0.008 0.248 0.007 0.496 0.019 0.744 0.57 12.381 6.139 23.457 14.74 31.252l146.879 146.879c17.574 17.574 46.066 17.574 63.64 0 17.574-17.573 17.574-46.066 0-63.639z" fill="#202020" p-id="2017"></path><path d="M893.536 647c-16.31 0-30.594 8.677-38.486 21.667l-0.087-0.053c-0.249 0.51-0.508 1.014-0.758 1.522a44.636 44.636 0 0 0-1.812 3.638C793.311 790.206 672.454 870 532.954 870c-197.718 0-358-160.282-358-358s160.282-358 358-358c121.985 0 229.71 61.017 294.345 154.188l-68.092 49.742 137.171 21.362c19.938 3.105 38.617-10.541 41.722-30.478l21.361-137.171-59.465 43.44C818.971 139.541 684.789 64 532.954 64c-247.424 0-448 200.576-448 448s200.576 448 448 448c174.185 0 325.149-99.409 399.261-244.586l-0.178-0.108A44.786 44.786 0 0 0 938.536 692c0-24.853-20.147-45-45-45z" fill="#202020" p-id="2018"></path></svg>