<?xml version="1.0" standalone="no"?><!DOCTYPE svg PUBLIC "-//W3C//DTD SVG 1.1//EN" "http://www.w3.org/Graphics/SVG/1.1/DTD/svg11.dtd"><svg t="1687772349686" class="icon" viewBox="0 0 1024 1024" version="1.1" xmlns="http://www.w3.org/2000/svg" p-id="1442" xmlns:xlink="http://www.w3.org/1999/xlink" width="200" height="200"><path d="M730 393.506c0 33.137-26.863 60-60 60H305.15c-33.137 0-60-26.863-60-60s26.863-60 60-60H670c33.137 0 60 26.863 60 60zM670 630.494c0 33.137-26.863 60-60 60H305.15c-33.137 0-60-26.863-60-60s26.863-60 60-60H610c33.137 0 60 26.863 60 60z" fill="#202020" p-id="1443"></path><path d="M900 64H124c-33.137 0-60 26.863-60 60v776c0 33.137 26.863 60 60 60h592.289c11.516 0 23.033-4.393 31.82-13.18l76.82-76.82L870 824.929l76.82-76.82c8.787-8.787 13.18-20.303 13.18-31.82V124c0-33.137-26.863-60-60-60zM697.65 870H199c-24.853 0-45-20.147-45-45V199c0-24.853 20.147-45 45-45h626c24.853 0 45 20.147 45 45v498.65L697.65 870z" fill="#202020" p-id="1444"></path></svg>