<?xml version="1.0" standalone="no"?><!DOCTYPE svg PUBLIC "-//W3C//DTD SVG 1.1//EN" "http://www.w3.org/Graphics/SVG/1.1/DTD/svg11.dtd"><svg t="1687772355860" class="icon" viewBox="0 0 1024 1024" version="1.1" xmlns="http://www.w3.org/2000/svg" p-id="1729" xmlns:xlink="http://www.w3.org/1999/xlink" width="200" height="200"><path d="M690.97 390.101L442.632 638.439 333.03 528.838c-17.574-17.573-46.066-17.574-63.64 0s-17.574 46.066 0 63.64l141.421 141.421a45.316 45.316 0 0 0 7.059 5.766 44.774 44.774 0 0 0 14.047 6.126 45.195 45.195 0 0 0 10.713 1.287c11.516 0 23.033-4.393 31.82-13.18L754.608 453.74c17.574-17.574 17.574-46.066 0-63.64-17.572-17.572-46.065-17.572-63.638 0.001z" fill="#202020" p-id="1730"></path><path d="M900 144H703.243v-35c0-24.853-20.147-45-45-45s-45 20.147-45 45v35H410.757v-35c0-24.853-20.147-45-45-45s-45 20.147-45 45v35H124c-33.137 0-60 26.863-60 60v696c0 33.137 26.863 60 60 60h776c33.137 0 60-26.863 60-60V204c0-33.137-26.863-60-60-60z m-30 681c0 24.853-20.147 45-45 45H199c-24.853 0-45-20.147-45-45V279c0-24.853 20.147-45 45-45h121.757v25c0 24.853 20.147 45 45 45s45-20.147 45-45v-25h202.485v25c0 24.853 20.147 45 45 45s45-20.147 45-45v-25H825c24.853 0 45 20.147 45 45v546z" fill="#202020" p-id="1731"></path></svg>