<svg width="75" height="75" viewBox="0 0 75 75" fill="none" xmlns="http://www.w3.org/2000/svg">
<path d="M66.9668 15.2857C66.9668 14.7334 66.5191 14.2857 65.9668 14.2857H9.33566C8.78337 14.2857 8.33565 14.7334 8.33565 15.2857V17.1548C8.33565 17.707 8.78337 18.1548 9.33565 18.1548H65.9668C66.5191 18.1548 66.9668 17.707 66.9668 17.1548V15.2857ZM66.9668 32.6973C66.9668 32.147 66.5222 31.7001 65.9719 31.6973L9.3429 31.4098C8.78893 31.407 8.33824 31.8551 8.33782 32.4091L8.33641 34.273C8.33599 34.8256 8.78383 35.2738 9.33641 35.2738H65.9668C66.5191 35.2738 66.9668 34.8261 66.9668 34.2738V32.6973ZM47.6216 49.5119C47.6216 48.9596 47.1738 48.5119 46.6216 48.5119H9.33566C8.78337 48.5119 8.33565 48.9596 8.33565 49.5119V51.3809C8.33565 51.9332 8.78337 52.3809 9.33565 52.3809H46.6216C47.1738 52.3809 47.6216 51.9332 47.6216 51.3809V49.5119Z" fill="white"/>
</svg>
