<svg width="65" height="65" viewBox="0 0 65 65" fill="none" xmlns="http://www.w3.org/2000/svg">
<circle cx="32.499" cy="32.5" r="32.5" fill="#FBE300"/>
<g clip-path="url(#clip0_244_62)">
<path d="M21.6906 42.4997C21.6901 42.851 21.8438 43.1836 22.1219 43.4351L22.1406 43.4518L22.1573 43.4705C22.274 43.6044 22.4178 43.7121 22.5792 43.7864C22.7406 43.8608 22.9159 43.9001 23.0936 43.9018L33.7634 43.921L34.2739 43.9165L37.0092 43.9215L38.004 43.921C38.1933 43.9227 38.381 43.887 38.5564 43.8158C38.7318 43.7446 38.8913 43.6395 39.0259 43.5063C39.2695 43.2627 39.4037 42.9448 39.4042 42.6122C39.4032 42.0532 39.0318 41.5658 38.4732 41.3806L26.0334 41.3629L43.7592 23.6371C44.2534 23.1428 44.251 22.3357 43.7538 21.8385C43.2567 21.3414 42.45 21.3394 41.9558 21.8336L24.2299 39.5595L24.2088 27.409C24.1317 26.7718 23.5913 26.2943 22.9418 26.2943C22.7747 26.294 22.6092 26.3265 22.4547 26.3902C22.3002 26.4538 22.1597 26.5472 22.0413 26.6652C21.9229 26.7831 21.8289 26.9232 21.7647 27.0775C21.7005 27.2317 21.6673 27.3971 21.667 27.5642L21.6906 42.4997Z" fill="black"/>
</g>
<defs>
<clipPath id="clip0_244_62">
<rect width="31" height="31" fill="white" transform="translate(31.9204 53.8406) rotate(-135)"/>
</clipPath>
</defs>
</svg>
