<svg width="801" height="247" viewBox="0 0 801 247" fill="none" xmlns="http://www.w3.org/2000/svg">
<path d="M72.8652 95.8418V111H13.9844V95.8418H72.8652ZM19.3926 0.09375V111H0.273438V0.09375H19.3926ZM65.1719 46.4062V61.3359H13.9844V46.4062H65.1719ZM72.4844 0.09375V15.3281H13.9844V0.09375H72.4844ZM176.459 0.09375V111H157.34L107.6 31.5527V111H88.4805V0.09375H107.6L157.492 79.6934V0.09375H176.459ZM231.455 111H207.766L207.918 95.8418H231.455C238.311 95.8418 244.049 94.3438 248.67 91.3477C253.342 88.3516 256.846 84.0605 259.182 78.4746C261.568 72.8887 262.762 66.2363 262.762 58.5176V52.5C262.762 46.5078 262.076 41.2012 260.705 36.5801C259.385 31.959 257.404 28.0742 254.764 24.9258C252.174 21.7773 248.975 19.3906 245.166 17.7656C241.408 16.1406 237.066 15.3281 232.141 15.3281H207.309V0.09375H232.141C239.504 0.09375 246.232 1.33789 252.326 3.82617C258.42 6.26367 263.676 9.79297 268.094 14.4141C272.562 19.0352 275.99 24.5703 278.377 31.0195C280.764 37.4688 281.957 44.6797 281.957 52.6523V58.5176C281.957 66.4902 280.764 73.7012 278.377 80.1504C275.99 86.5996 272.562 92.1348 268.094 96.7559C263.625 101.326 258.293 104.855 252.098 107.344C245.953 109.781 239.072 111 231.455 111ZM218.354 0.09375V111H199.234V0.09375H218.354ZM370.621 95.8418V111H314.939V95.8418H370.621ZM320.271 0.09375V111H301.152V0.09375H320.271ZM430.111 14.8711L396.977 111H376.943L418.686 0.09375H431.482L430.111 14.8711ZM457.838 111L424.627 14.8711L423.18 0.09375H436.053L477.947 111H457.838ZM456.238 69.8672V85.0254H395.91V69.8672H456.238ZM0.273438 134.094H39.502C47.9316 134.094 55.1172 135.363 61.0586 137.902C67 140.441 71.5449 144.199 74.6934 149.176C77.8926 154.102 79.4922 160.195 79.4922 167.457C79.4922 172.992 78.4766 177.867 76.4453 182.082C74.4141 186.297 71.5449 189.852 67.8379 192.746C64.1309 195.59 59.7129 197.799 54.584 199.373L48.7949 202.191H13.5273L13.375 187.033H39.8066C44.377 187.033 48.1855 186.221 51.2324 184.596C54.2793 182.971 56.5645 180.762 58.0879 177.969C59.6621 175.125 60.4492 171.926 60.4492 168.371C60.4492 164.512 59.6875 161.16 58.1641 158.316C56.6914 155.422 54.4062 153.213 51.3086 151.689C48.2109 150.115 44.2754 149.328 39.502 149.328H19.3926V245H0.273438V134.094ZM63.5723 245L37.5215 195.184L57.5547 195.107L83.9863 244.01V245H63.5723ZM171.127 229.842V245H112.246V229.842H171.127ZM117.654 134.094V245H98.5352V134.094H117.654ZM163.434 180.406V195.336H112.246V180.406H163.434ZM170.746 134.094V149.328H112.246V134.094H170.746ZM245.09 216.436C245.09 214.15 244.734 212.119 244.023 210.342C243.363 208.564 242.17 206.939 240.443 205.467C238.717 203.994 236.279 202.572 233.131 201.201C230.033 199.779 226.072 198.332 221.248 196.859C215.967 195.234 211.092 193.432 206.623 191.451C202.205 189.42 198.346 187.084 195.045 184.443C191.744 181.752 189.18 178.68 187.352 175.227C185.523 171.723 184.609 167.686 184.609 163.115C184.609 158.596 185.549 154.482 187.428 150.775C189.357 147.068 192.074 143.869 195.578 141.178C199.133 138.436 203.322 136.328 208.146 134.855C212.971 133.332 218.303 132.57 224.143 132.57C232.369 132.57 239.453 134.094 245.395 137.141C251.387 140.188 255.982 144.275 259.182 149.404C262.432 154.533 264.057 160.195 264.057 166.391H245.09C245.09 162.734 244.303 159.51 242.729 156.717C241.205 153.873 238.869 151.639 235.721 150.014C232.623 148.389 228.688 147.576 223.914 147.576C219.395 147.576 215.637 148.262 212.641 149.633C209.645 151.004 207.41 152.857 205.938 155.193C204.465 157.529 203.729 160.17 203.729 163.115C203.729 165.197 204.211 167.102 205.176 168.828C206.141 170.504 207.613 172.078 209.594 173.551C211.574 174.973 214.062 176.318 217.059 177.588C220.055 178.857 223.584 180.076 227.646 181.244C233.791 183.072 239.148 185.104 243.719 187.338C248.289 189.521 252.098 192.01 255.145 194.803C258.191 197.596 260.477 200.77 262 204.324C263.523 207.828 264.285 211.814 264.285 216.283C264.285 220.955 263.346 225.17 261.467 228.928C259.588 232.635 256.896 235.809 253.393 238.449C249.939 241.039 245.775 243.045 240.9 244.467C236.076 245.838 230.693 246.523 224.752 246.523C219.42 246.523 214.164 245.812 208.984 244.391C203.855 242.969 199.184 240.811 194.969 237.916C190.754 234.971 187.402 231.314 184.914 226.947C182.426 222.529 181.182 217.375 181.182 211.484H200.301C200.301 215.09 200.91 218.162 202.129 220.701C203.398 223.24 205.15 225.322 207.385 226.947C209.619 228.521 212.209 229.689 215.154 230.451C218.15 231.213 221.35 231.594 224.752 231.594C229.221 231.594 232.953 230.959 235.949 229.689C238.996 228.42 241.281 226.643 242.805 224.357C244.328 222.072 245.09 219.432 245.09 216.436ZM301.609 134.094V245H282.49V134.094H301.609ZM357.596 245H333.906L334.059 229.842H357.596C364.451 229.842 370.189 228.344 374.811 225.348C379.482 222.352 382.986 218.061 385.322 212.475C387.709 206.889 388.902 200.236 388.902 192.518V186.5C388.902 180.508 388.217 175.201 386.846 170.58C385.525 165.959 383.545 162.074 380.904 158.926C378.314 155.777 375.115 153.391 371.307 151.766C367.549 150.141 363.207 149.328 358.281 149.328H333.449V134.094H358.281C365.645 134.094 372.373 135.338 378.467 137.826C384.561 140.264 389.816 143.793 394.234 148.414C398.703 153.035 402.131 158.57 404.518 165.02C406.904 171.469 408.098 178.68 408.098 186.652V192.518C408.098 200.49 406.904 207.701 404.518 214.15C402.131 220.6 398.703 226.135 394.234 230.756C389.766 235.326 384.434 238.855 378.238 241.344C372.094 243.781 365.213 245 357.596 245ZM344.494 134.094V245H325.375V134.094H344.494ZM499.885 229.842V245H441.004V229.842H499.885ZM446.412 134.094V245H427.293V134.094H446.412ZM492.191 180.406V195.336H441.004V180.406H492.191ZM499.504 134.094V149.328H441.004V134.094H499.504ZM603.479 134.094V245H584.359L534.619 165.553V245H515.5V134.094H534.619L584.512 213.693V134.094H603.479ZM691.762 208.895H710.805C710.195 216.156 708.164 222.631 704.711 228.318C701.258 233.955 696.408 238.398 690.162 241.648C683.916 244.898 676.324 246.523 667.387 246.523C660.531 246.523 654.361 245.305 648.877 242.867C643.393 240.379 638.695 236.875 634.785 232.355C630.875 227.785 627.879 222.275 625.797 215.826C623.766 209.377 622.75 202.166 622.75 194.193V184.977C622.75 177.004 623.791 169.793 625.873 163.344C628.006 156.895 631.053 151.385 635.014 146.814C638.975 142.193 643.723 138.664 649.258 136.227C654.844 133.789 661.115 132.57 668.072 132.57C676.908 132.57 684.373 134.195 690.467 137.445C696.561 140.695 701.283 145.189 704.635 150.928C708.037 156.666 710.119 163.242 710.881 170.656H691.838C691.33 165.883 690.213 161.795 688.486 158.393C686.811 154.99 684.322 152.4 681.021 150.623C677.721 148.795 673.404 147.881 668.072 147.881C663.705 147.881 659.896 148.693 656.646 150.318C653.396 151.943 650.68 154.33 648.496 157.479C646.312 160.627 644.662 164.512 643.545 169.133C642.479 173.703 641.945 178.934 641.945 184.824V194.193C641.945 199.779 642.428 204.857 643.393 209.428C644.408 213.947 645.932 217.832 647.963 221.082C650.045 224.332 652.686 226.846 655.885 228.623C659.084 230.4 662.918 231.289 667.387 231.289C672.82 231.289 677.213 230.426 680.564 228.699C683.967 226.973 686.531 224.459 688.258 221.158C690.035 217.807 691.203 213.719 691.762 208.895ZM800.764 229.842V245H741.883V229.842H800.764ZM747.291 134.094V245H728.172V134.094H747.291ZM793.07 180.406V195.336H741.883V180.406H793.07ZM800.383 134.094V149.328H741.883V134.094H800.383Z" fill="white"/>
</svg>
