<svg width="707" height="247" viewBox="0 0 707 247" fill="none" xmlns="http://www.w3.org/2000/svg">
<g clip-path="url(#clip0_238_2)">
<mask id="path-1-inside-1_238_2" fill="white">
<path d="M73.7422 95.8418V111H18.0605V95.8418H73.7422ZM23.3926 0.09375V111H4.27344V0.09375H23.3926ZM133.232 14.8711L100.098 111H80.0645L121.807 0.09375H134.604L133.232 14.8711ZM160.959 111L127.748 14.8711L126.301 0.09375H139.174L181.068 111H160.959ZM159.359 69.8672V85.0254H99.0312V69.8672H159.359ZM213.898 0.09375V111H194.779V0.09375H213.898ZM245.434 0.09375H262.496L294.564 85.6348L326.557 0.09375H343.619L301.268 111H287.709L245.434 0.09375ZM237.664 0.09375H253.889L256.707 74.1328V111H237.664V0.09375ZM335.164 0.09375H351.465V111H332.346V74.1328L335.164 0.09375ZM418.725 14.8711L385.59 111H365.557L407.299 0.09375H420.096L418.725 14.8711ZM446.451 111L413.24 14.8711L411.793 0.09375H424.666L466.561 111H446.451ZM444.852 69.8672V85.0254H384.523V69.8672H444.852ZM551.568 95.8418V111H492.688V95.8418H551.568ZM498.096 0.09375V111H478.977V0.09375H498.096ZM543.875 46.4062V61.3359H492.688V46.4062H543.875ZM551.188 0.09375V15.3281H492.688V0.09375H551.188ZM69.7812 208.895H88.8242C88.2148 216.156 86.1836 222.631 82.7305 228.318C79.2773 233.955 74.4277 238.398 68.1816 241.648C61.9355 244.898 54.3438 246.523 45.4062 246.523C38.5508 246.523 32.3809 245.305 26.8965 242.867C21.4121 240.379 16.7148 236.875 12.8047 232.355C8.89453 227.785 5.89844 222.275 3.81641 215.826C1.78516 209.377 0.769531 202.166 0.769531 194.193V184.977C0.769531 177.004 1.81055 169.793 3.89258 163.344C6.02539 156.895 9.07227 151.385 13.0332 146.814C16.9941 142.193 21.7422 138.664 27.2773 136.227C32.8633 133.789 39.1348 132.57 46.0918 132.57C54.9277 132.57 62.3926 134.195 68.4863 137.445C74.5801 140.695 79.3027 145.189 82.6543 150.928C86.0566 156.666 88.1387 163.242 88.9004 170.656H69.8574C69.3496 165.883 68.2324 161.795 66.5059 158.393C64.8301 154.99 62.3418 152.4 59.041 150.623C55.7402 148.795 51.4238 147.881 46.0918 147.881C41.7246 147.881 37.916 148.693 34.666 150.318C31.416 151.943 28.6992 154.33 26.5156 157.479C24.332 160.627 22.6816 164.512 21.5645 169.133C20.498 173.703 19.9648 178.934 19.9648 184.824V194.193C19.9648 199.779 20.4473 204.857 21.4121 209.428C22.4277 213.947 23.9512 217.832 25.9824 221.082C28.0645 224.332 30.7051 226.846 33.9043 228.623C37.1035 230.4 40.9375 231.289 45.4062 231.289C50.8398 231.289 55.2324 230.426 58.584 228.699C61.9863 226.973 64.5508 224.459 66.2773 221.158C68.0547 217.807 69.2227 213.719 69.7812 208.895ZM194.627 186.5V192.594C194.627 200.973 193.535 208.488 191.352 215.141C189.168 221.793 186.045 227.455 181.982 232.127C177.971 236.799 173.146 240.379 167.51 242.867C161.873 245.305 155.627 246.523 148.771 246.523C141.967 246.523 135.746 245.305 130.109 242.867C124.523 240.379 119.674 236.799 115.561 232.127C111.447 227.455 108.248 221.793 105.963 215.141C103.729 208.488 102.611 200.973 102.611 192.594V186.5C102.611 178.121 103.729 170.631 105.963 164.029C108.197 157.377 111.346 151.715 115.408 147.043C119.521 142.32 124.371 138.74 129.957 136.303C135.594 133.814 141.814 132.57 148.619 132.57C155.475 132.57 161.721 133.814 167.357 136.303C172.994 138.74 177.844 142.32 181.906 147.043C185.969 151.715 189.092 157.377 191.275 164.029C193.51 170.631 194.627 178.121 194.627 186.5ZM175.508 192.594V186.348C175.508 180.152 174.898 174.693 173.68 169.971C172.512 165.197 170.76 161.211 168.424 158.012C166.139 154.762 163.32 152.324 159.969 150.699C156.617 149.023 152.834 148.186 148.619 148.186C144.404 148.186 140.646 149.023 137.346 150.699C134.045 152.324 131.227 154.762 128.891 158.012C126.605 161.211 124.854 165.197 123.635 169.971C122.416 174.693 121.807 180.152 121.807 186.348V192.594C121.807 198.789 122.416 204.273 123.635 209.047C124.854 213.82 126.631 217.857 128.967 221.158C131.354 224.408 134.197 226.871 137.498 228.547C140.799 230.172 144.557 230.984 148.771 230.984C153.037 230.984 156.82 230.172 160.121 228.547C163.422 226.871 166.215 224.408 168.5 221.158C170.785 217.857 172.512 213.82 173.68 209.047C174.898 204.273 175.508 198.789 175.508 192.594ZM221.516 134.094H238.578L270.646 219.635L302.639 134.094H319.701L277.35 245H263.791L221.516 134.094ZM213.746 134.094H229.971L232.789 208.133V245H213.746V134.094ZM311.246 134.094H327.547V245H308.428V208.133L311.246 134.094ZM392.369 203.639H363.5V188.48H392.369C397.396 188.48 401.459 187.668 404.557 186.043C407.654 184.418 409.914 182.184 411.336 179.34C412.809 176.445 413.545 173.145 413.545 169.438C413.545 165.934 412.809 162.658 411.336 159.611C409.914 156.514 407.654 154.025 404.557 152.146C401.459 150.268 397.396 149.328 392.369 149.328H369.365V245H350.246V134.094H392.369C400.951 134.094 408.238 135.617 414.23 138.664C420.273 141.66 424.869 145.824 428.018 151.156C431.166 156.438 432.74 162.48 432.74 169.285C432.74 176.445 431.166 182.59 428.018 187.719C424.869 192.848 420.273 196.783 414.23 199.525C408.238 202.268 400.951 203.639 392.369 203.639ZM519.348 229.842V245H463.666V229.842H519.348ZM468.998 134.094V245H449.879V134.094H468.998ZM606.717 229.842V245H547.836V229.842H606.717ZM553.244 134.094V245H534.125V134.094H553.244ZM599.023 180.406V195.336H547.836V180.406H599.023ZM606.336 134.094V149.328H547.836V134.094H606.336ZM636.881 134.094L660.418 174.541L683.955 134.094H705.969L672.453 189.014L706.807 245H684.564L660.418 203.791L636.271 245H613.953L648.383 189.014L614.791 134.094H636.881Z"/>
</mask>
<path d="M73.7422 95.8418V111H18.0605V95.8418H73.7422ZM23.3926 0.09375V111H4.27344V0.09375H23.3926ZM133.232 14.8711L100.098 111H80.0645L121.807 0.09375H134.604L133.232 14.8711ZM160.959 111L127.748 14.8711L126.301 0.09375H139.174L181.068 111H160.959ZM159.359 69.8672V85.0254H99.0312V69.8672H159.359ZM213.898 0.09375V111H194.779V0.09375H213.898ZM245.434 0.09375H262.496L294.564 85.6348L326.557 0.09375H343.619L301.268 111H287.709L245.434 0.09375ZM237.664 0.09375H253.889L256.707 74.1328V111H237.664V0.09375ZM335.164 0.09375H351.465V111H332.346V74.1328L335.164 0.09375ZM418.725 14.8711L385.59 111H365.557L407.299 0.09375H420.096L418.725 14.8711ZM446.451 111L413.24 14.8711L411.793 0.09375H424.666L466.561 111H446.451ZM444.852 69.8672V85.0254H384.523V69.8672H444.852ZM551.568 95.8418V111H492.688V95.8418H551.568ZM498.096 0.09375V111H478.977V0.09375H498.096ZM543.875 46.4062V61.3359H492.688V46.4062H543.875ZM551.188 0.09375V15.3281H492.688V0.09375H551.188ZM69.7812 208.895H88.8242C88.2148 216.156 86.1836 222.631 82.7305 228.318C79.2773 233.955 74.4277 238.398 68.1816 241.648C61.9355 244.898 54.3438 246.523 45.4062 246.523C38.5508 246.523 32.3809 245.305 26.8965 242.867C21.4121 240.379 16.7148 236.875 12.8047 232.355C8.89453 227.785 5.89844 222.275 3.81641 215.826C1.78516 209.377 0.769531 202.166 0.769531 194.193V184.977C0.769531 177.004 1.81055 169.793 3.89258 163.344C6.02539 156.895 9.07227 151.385 13.0332 146.814C16.9941 142.193 21.7422 138.664 27.2773 136.227C32.8633 133.789 39.1348 132.57 46.0918 132.57C54.9277 132.57 62.3926 134.195 68.4863 137.445C74.5801 140.695 79.3027 145.189 82.6543 150.928C86.0566 156.666 88.1387 163.242 88.9004 170.656H69.8574C69.3496 165.883 68.2324 161.795 66.5059 158.393C64.8301 154.99 62.3418 152.4 59.041 150.623C55.7402 148.795 51.4238 147.881 46.0918 147.881C41.7246 147.881 37.916 148.693 34.666 150.318C31.416 151.943 28.6992 154.33 26.5156 157.479C24.332 160.627 22.6816 164.512 21.5645 169.133C20.498 173.703 19.9648 178.934 19.9648 184.824V194.193C19.9648 199.779 20.4473 204.857 21.4121 209.428C22.4277 213.947 23.9512 217.832 25.9824 221.082C28.0645 224.332 30.7051 226.846 33.9043 228.623C37.1035 230.4 40.9375 231.289 45.4062 231.289C50.8398 231.289 55.2324 230.426 58.584 228.699C61.9863 226.973 64.5508 224.459 66.2773 221.158C68.0547 217.807 69.2227 213.719 69.7812 208.895ZM194.627 186.5V192.594C194.627 200.973 193.535 208.488 191.352 215.141C189.168 221.793 186.045 227.455 181.982 232.127C177.971 236.799 173.146 240.379 167.51 242.867C161.873 245.305 155.627 246.523 148.771 246.523C141.967 246.523 135.746 245.305 130.109 242.867C124.523 240.379 119.674 236.799 115.561 232.127C111.447 227.455 108.248 221.793 105.963 215.141C103.729 208.488 102.611 200.973 102.611 192.594V186.5C102.611 178.121 103.729 170.631 105.963 164.029C108.197 157.377 111.346 151.715 115.408 147.043C119.521 142.32 124.371 138.74 129.957 136.303C135.594 133.814 141.814 132.57 148.619 132.57C155.475 132.57 161.721 133.814 167.357 136.303C172.994 138.74 177.844 142.32 181.906 147.043C185.969 151.715 189.092 157.377 191.275 164.029C193.51 170.631 194.627 178.121 194.627 186.5ZM175.508 192.594V186.348C175.508 180.152 174.898 174.693 173.68 169.971C172.512 165.197 170.76 161.211 168.424 158.012C166.139 154.762 163.32 152.324 159.969 150.699C156.617 149.023 152.834 148.186 148.619 148.186C144.404 148.186 140.646 149.023 137.346 150.699C134.045 152.324 131.227 154.762 128.891 158.012C126.605 161.211 124.854 165.197 123.635 169.971C122.416 174.693 121.807 180.152 121.807 186.348V192.594C121.807 198.789 122.416 204.273 123.635 209.047C124.854 213.82 126.631 217.857 128.967 221.158C131.354 224.408 134.197 226.871 137.498 228.547C140.799 230.172 144.557 230.984 148.771 230.984C153.037 230.984 156.82 230.172 160.121 228.547C163.422 226.871 166.215 224.408 168.5 221.158C170.785 217.857 172.512 213.82 173.68 209.047C174.898 204.273 175.508 198.789 175.508 192.594ZM221.516 134.094H238.578L270.646 219.635L302.639 134.094H319.701L277.35 245H263.791L221.516 134.094ZM213.746 134.094H229.971L232.789 208.133V245H213.746V134.094ZM311.246 134.094H327.547V245H308.428V208.133L311.246 134.094ZM392.369 203.639H363.5V188.48H392.369C397.396 188.48 401.459 187.668 404.557 186.043C407.654 184.418 409.914 182.184 411.336 179.34C412.809 176.445 413.545 173.145 413.545 169.438C413.545 165.934 412.809 162.658 411.336 159.611C409.914 156.514 407.654 154.025 404.557 152.146C401.459 150.268 397.396 149.328 392.369 149.328H369.365V245H350.246V134.094H392.369C400.951 134.094 408.238 135.617 414.23 138.664C420.273 141.66 424.869 145.824 428.018 151.156C431.166 156.438 432.74 162.48 432.74 169.285C432.74 176.445 431.166 182.59 428.018 187.719C424.869 192.848 420.273 196.783 414.23 199.525C408.238 202.268 400.951 203.639 392.369 203.639ZM519.348 229.842V245H463.666V229.842H519.348ZM468.998 134.094V245H449.879V134.094H468.998ZM606.717 229.842V245H547.836V229.842H606.717ZM553.244 134.094V245H534.125V134.094H553.244ZM599.023 180.406V195.336H547.836V180.406H599.023ZM606.336 134.094V149.328H547.836V134.094H606.336ZM636.881 134.094L660.418 174.541L683.955 134.094H705.969L672.453 189.014L706.807 245H684.564L660.418 203.791L636.271 245H613.953L648.383 189.014L614.791 134.094H636.881Z" stroke="white" stroke-width="4" mask="url(#path-1-inside-1_238_2)"/>
</g>
<defs>
<clipPath id="clip0_238_2">
<rect width="707" height="247" fill="white"/>
</clipPath>
</defs>
</svg>
