<svg width="931" height="268" viewBox="0 0 931 268" fill="none" xmlns="http://www.w3.org/2000/svg">
<path d="M56.9004 143.094V254H37.9336V143.094H56.9004ZM91.7109 143.094V158.328H3.42773V143.094H91.7109ZM135.357 229.092L157.447 143.094H169.025L167.73 165.26L144.117 254H132.082L135.357 229.092ZM118.828 143.094L136.729 228.406L138.328 254H125.531L99.8613 143.094H118.828ZM194.086 228.178L211.758 143.094H230.801L205.131 254H192.334L194.086 228.178ZM173.52 143.094L195.381 229.32L198.58 254H186.545L163.312 165.26L162.094 143.094H173.52ZM265.383 143.094V254H246.264V143.094H265.383ZM377.127 143.094V254H358.008L308.268 174.553V254H289.148V143.094H308.268L358.16 222.693V143.094H377.127ZM512.027 189.406V204.564H453.146V189.406H512.027ZM457.869 143.094V254H438.75V143.094H457.869ZM526.729 143.094V254H507.686V143.094H526.729ZM637.939 195.5V201.594C637.939 209.973 636.848 217.488 634.664 224.141C632.48 230.793 629.357 236.455 625.295 241.127C621.283 245.799 616.459 249.379 610.822 251.867C605.186 254.305 598.939 255.523 592.084 255.523C585.279 255.523 579.059 254.305 573.422 251.867C567.836 249.379 562.986 245.799 558.873 241.127C554.76 236.455 551.561 230.793 549.275 224.141C547.041 217.488 545.924 209.973 545.924 201.594V195.5C545.924 187.121 547.041 179.631 549.275 173.029C551.51 166.377 554.658 160.715 558.721 156.043C562.834 151.32 567.684 147.74 573.27 145.303C578.906 142.814 585.127 141.57 591.932 141.57C598.787 141.57 605.033 142.814 610.67 145.303C616.307 147.74 621.156 151.32 625.219 156.043C629.281 160.715 632.404 166.377 634.588 173.029C636.822 179.631 637.939 187.121 637.939 195.5ZM618.82 201.594V195.348C618.82 189.152 618.211 183.693 616.992 178.971C615.824 174.197 614.072 170.211 611.736 167.012C609.451 163.762 606.633 161.324 603.281 159.699C599.93 158.023 596.146 157.186 591.932 157.186C587.717 157.186 583.959 158.023 580.658 159.699C577.357 161.324 574.539 163.762 572.203 167.012C569.918 170.211 568.166 174.197 566.947 178.971C565.729 183.693 565.119 189.152 565.119 195.348V201.594C565.119 207.789 565.729 213.273 566.947 218.047C568.166 222.82 569.943 226.857 572.279 230.158C574.666 233.408 577.51 235.871 580.811 237.547C584.111 239.172 587.869 239.984 592.084 239.984C596.35 239.984 600.133 239.172 603.434 237.547C606.734 235.871 609.527 233.408 611.812 230.158C614.098 226.857 615.824 222.82 616.992 218.047C618.211 213.273 618.82 207.789 618.82 201.594ZM719.291 143.094H738.334V217.209C738.334 225.639 736.506 232.697 732.85 238.385C729.193 244.072 724.217 248.363 717.92 251.258C711.674 254.102 704.691 255.523 696.973 255.523C689 255.523 681.891 254.102 675.645 251.258C669.398 248.363 664.473 244.072 660.867 238.385C657.312 232.697 655.535 225.639 655.535 217.209V143.094H674.578V217.209C674.578 222.541 675.492 226.934 677.32 230.387C679.148 233.789 681.738 236.303 685.09 237.928C688.441 239.553 692.402 240.365 696.973 240.365C701.543 240.365 705.479 239.553 708.779 237.928C712.131 236.303 714.721 233.789 716.549 230.387C718.377 226.934 719.291 222.541 719.291 217.209V143.094ZM817.477 225.436C817.477 223.15 817.121 221.119 816.41 219.342C815.75 217.564 814.557 215.939 812.83 214.467C811.104 212.994 808.666 211.572 805.518 210.201C802.42 208.779 798.459 207.332 793.635 205.859C788.354 204.234 783.479 202.432 779.01 200.451C774.592 198.42 770.732 196.084 767.432 193.443C764.131 190.752 761.566 187.68 759.738 184.227C757.91 180.723 756.996 176.686 756.996 172.115C756.996 167.596 757.936 163.482 759.814 159.775C761.744 156.068 764.461 152.869 767.965 150.178C771.52 147.436 775.709 145.328 780.533 143.855C785.357 142.332 790.689 141.57 796.529 141.57C804.756 141.57 811.84 143.094 817.781 146.141C823.773 149.188 828.369 153.275 831.568 158.404C834.818 163.533 836.443 169.195 836.443 175.391H817.477C817.477 171.734 816.689 168.51 815.115 165.717C813.592 162.873 811.256 160.639 808.107 159.014C805.01 157.389 801.074 156.576 796.301 156.576C791.781 156.576 788.023 157.262 785.027 158.633C782.031 160.004 779.797 161.857 778.324 164.193C776.852 166.529 776.115 169.17 776.115 172.115C776.115 174.197 776.598 176.102 777.562 177.828C778.527 179.504 780 181.078 781.98 182.551C783.961 183.973 786.449 185.318 789.445 186.588C792.441 187.857 795.971 189.076 800.033 190.244C806.178 192.072 811.535 194.104 816.105 196.338C820.676 198.521 824.484 201.01 827.531 203.803C830.578 206.596 832.863 209.77 834.387 213.324C835.91 216.828 836.672 220.814 836.672 225.283C836.672 229.955 835.732 234.17 833.854 237.928C831.975 241.635 829.283 244.809 825.779 247.449C822.326 250.039 818.162 252.045 813.287 253.467C808.463 254.838 803.08 255.523 797.139 255.523C791.807 255.523 786.551 254.812 781.371 253.391C776.242 251.969 771.57 249.811 767.355 246.916C763.141 243.971 759.789 240.314 757.301 235.947C754.812 231.529 753.568 226.375 753.568 220.484H772.688C772.688 224.09 773.297 227.162 774.516 229.701C775.785 232.24 777.537 234.322 779.771 235.947C782.006 237.521 784.596 238.689 787.541 239.451C790.537 240.213 793.736 240.594 797.139 240.594C801.607 240.594 805.34 239.959 808.336 238.689C811.383 237.42 813.668 235.643 815.191 233.357C816.715 231.072 817.477 228.432 817.477 225.436ZM926.174 238.842V254H867.293V238.842H926.174ZM872.701 143.094V254H853.582V143.094H872.701ZM918.48 189.406V204.336H867.293V189.406H918.48ZM925.793 143.094V158.328H867.293V143.094H925.793Z" fill="white"/>
</svg>
