<svg width="230" height="182" viewBox="0 0 230 182" fill="none" xmlns="http://www.w3.org/2000/svg">
    <g clip-path="url(#clip0_328_778)">
<g filter="url(#filter0_d_328_778)">
<path d="M33.6673 168.766C78.5597 186.327 151.339 186.327 196.232 168.766C241.124 151.205 241.119 122.732 196.232 105.171C151.345 87.6098 78.5597 87.6098 33.6673 105.171C-11.2251 122.732 -11.2198 151.217 33.6673 168.766Z" fill="#3FB89C"/>
<path d="M201.845 136.695C195.1 140.018 184.165 140.018 177.409 136.695C170.652 133.372 170.658 127.978 177.409 124.655C184.159 121.332 195.089 121.332 201.845 124.655C208.601 127.978 208.596 133.367 201.845 136.695Z" fill="#E0E0E0"/>
<path d="M136.921 163.195L141.984 173.081C146.014 172.42 149.9 171.027 153.46 168.966L141.218 166.125C139.969 166.861 138.49 162.913 136.921 163.195Z" fill="#7D7D7D" fill-opacity="0.8"/>
<path opacity="0.2" d="M136.921 163.195L141.984 173.081C146.014 172.42 149.9 171.027 153.46 168.966L141.218 166.125C139.969 166.861 138.49 162.913 136.921 163.195Z" fill="#E5E5E5"/>
<path d="M126.543 157.352C128.991 155.89 132.345 155.32 135.517 155.619L138.223 139.558L135.517 134.574L121.555 136.468L106.553 159.174L107.019 159.867L123.553 161.107C123.821 159.734 124.785 158.41 126.543 157.352Z" fill="#7D7D7D" fill-opacity="0.8"/>
<path opacity="0.7" d="M126.543 157.352C128.991 155.89 132.345 155.32 135.517 155.619L138.223 139.558L135.517 134.574L121.555 136.468L106.553 159.174L107.019 159.867L123.553 161.107C123.821 159.734 124.785 158.41 126.543 157.352Z" fill="#E5E5E5"/>
<path d="M138.222 128.643V125.807L135.517 135.986L135.522 138.822L138.222 128.643Z" fill="#7D7D7D" fill-opacity="0.8"/>
<path opacity="0.7" d="M138.222 128.643V125.807L135.517 135.986L135.522 138.822L138.222 128.643Z" fill="#E5E5E5"/>
<path d="M126.543 137.72C128.991 136.263 132.345 135.687 135.517 135.986L138.223 125.807C123.124 124.384 108.948 130.526 106.558 139.536C106.489 139.791 106.414 140.14 106.371 140.395L123.558 141.475C123.821 140.101 124.785 138.772 126.543 137.72Z" fill="#7D7D7D" fill-opacity="0.8"/>
<path opacity="0.6" d="M126.543 137.72C128.991 136.263 132.345 135.687 135.517 135.986L138.223 125.807C123.124 124.384 108.948 130.526 106.558 139.536C106.489 139.791 106.414 140.14 106.371 140.395L123.558 141.475C123.821 140.101 124.785 138.772 126.543 137.72Z" fill="#E5E5E5"/>
<path d="M123.558 153.055V141.475L106.371 140.395V151.975L123.558 153.055Z" fill="#7D7D7D" fill-opacity="0.8"/>
<path opacity="0.8" d="M123.558 153.055V141.475L106.371 140.395V151.975L123.558 153.055Z" fill="#E5E5E5"/>
<path d="M141.233 140.555C143.312 141.801 144.319 143.435 144.26 145.063L161.561 145.246C161.807 136.911 152.018 129.95 138.222 128.632L135.517 138.811C137.52 138.968 139.468 139.563 141.233 140.555V140.555Z" fill="#7D7D7D" fill-opacity="0.8"/>
<path opacity="0.8" d="M141.233 140.555C143.312 141.801 144.319 143.435 144.26 145.063L161.561 145.246C161.807 136.911 152.018 129.95 138.222 128.632L135.517 138.811C137.52 138.968 139.468 139.563 141.233 140.555V140.555Z" fill="white"/>
<path d="M144.261 145.063V157.397L161.561 157.579V145.246L144.261 145.063Z" fill="#7D7D7D" fill-opacity="0.8"/>
<path opacity="0.6" d="M144.261 145.063V157.397L161.561 157.579V145.246L144.261 145.063Z" fill="white"/>
<path d="M144.266 145.063V157.302C144.266 155.719 143.259 154.129 141.234 152.916C139.626 151.953 137.612 155.846 135.522 155.647V138.822C140.248 139.237 144.352 141.702 144.266 145.063Z" fill="#7D7D7D" fill-opacity="0.8"/>
<path opacity="0.6" d="M144.266 145.063V157.302C144.266 155.719 143.259 154.129 141.234 152.916C139.626 151.953 137.612 155.846 135.522 155.647V138.822C140.248 139.237 144.352 141.702 144.266 145.063Z" fill="white"/>
<path d="M144.271 150.557H123.505V164.989H144.271V150.557Z" fill="#E0E0E0"/>
<path d="M126.543 155.015C122.487 152.595 122.487 148.669 126.543 146.248C130.598 143.828 137.178 143.828 141.233 146.248C145.289 148.669 145.284 152.595 141.233 155.015C137.183 157.435 130.598 157.435 126.543 155.015Z" fill="#FAFAFA"/>
<path d="M144.261 157.397C144.207 158.942 143.189 164.939 141.234 166.114L153.476 168.955C158.834 165.765 161.448 162.082 161.577 157.568L144.261 157.397Z" fill="#37474F"/>
<path d="M161.561 147.949V157.58L153.46 168.966V159.341L161.561 147.949Z" fill="#37474F"/>
<path d="M144.261 147.766C144.207 149.311 143.189 150.845 141.234 152.025L153.476 159.329C158.834 156.139 161.448 152.457 161.577 147.943L144.261 147.766Z" fill="#455A64"/>
<path d="M153.46 159.34V168.966L141.218 161.661L141.234 152.025L153.46 159.34Z" fill="#263238"/>
<path d="M153.46 162.381L141.983 166.496V173.081L153.46 168.966V162.381Z" fill="#7D7D7D" fill-opacity="0.8"/>
<path opacity="0.2" d="M153.46 162.381L141.983 166.496V173.081L153.46 168.966V162.381Z" fill="#E5E5E5"/>
<path d="M136.921 156.61L141.984 166.496C146.014 165.836 149.9 164.442 153.46 162.381L141.218 155.087C139.88 155.845 138.427 156.36 136.921 156.61V156.61Z" fill="#7D7D7D" fill-opacity="0.8"/>
<path d="M136.915 156.61V159.612L141.984 173.08V166.496L136.915 156.61Z" fill="#7D7D7D" fill-opacity="0.8"/>
<path opacity="0.4" d="M136.915 156.61V159.612L141.984 173.08V166.496L136.915 156.61Z" fill="#E5E5E5"/>
<path d="M128.991 165.056C126.698 163.682 123.253 162.913 123.559 161.124L106.216 152.523C106.216 152.523 106.216 156.788 106.216 157.38C106.253 165.687 116.808 172.848 131 173.734C134.673 173.995 138.362 173.783 141.984 173.103V168.279C138.432 168.899 131.799 166.717 128.991 165.056Z" fill="#7D7D7D" fill-opacity="0.8"/>
<path opacity="0.5" d="M128.991 165.056C126.698 163.682 123.253 162.913 123.559 161.124L106.216 152.523C106.216 152.523 106.216 156.788 106.216 157.38C106.253 165.687 116.808 172.848 131 173.734C134.673 173.995 138.362 173.783 141.984 173.103V168.279C138.432 168.899 131.799 166.717 128.991 165.056Z" fill="#E5E5E5"/>
<path d="M126.543 156.826C124.25 155.458 123.253 153.603 123.558 151.814L106.371 150.734C104.763 159.806 115.8 167.936 131.016 168.888C134.689 169.147 138.378 168.935 142 168.257L136.937 158.371C133.368 159.014 129.35 158.504 126.543 156.826Z" fill="#7D7D7D" fill-opacity="0.8"/>
<path opacity="0.3" d="M126.543 156.826C124.25 155.458 123.253 153.603 123.558 151.814L106.371 150.734C104.763 159.806 115.8 167.936 131.016 168.888C134.689 169.147 138.378 168.935 142 168.257L136.937 158.371C133.368 159.014 129.35 158.504 126.543 156.826Z" fill="#E5E5E5"/>
<path d="M63.814 131.827C64.2612 128.394 64.0648 124.905 63.2354 121.549C62.346 117.888 60.5565 115.34 58.4402 114C56.3239 112.66 52.4717 114.067 55.5471 118.348C58.6224 122.629 61.746 128.078 62.0781 132.193L63.814 131.827Z" fill="#37474F"/>
<path d="M63.2191 132.226C63.1839 132.225 63.1492 132.217 63.1169 132.203C63.0847 132.188 63.0556 132.167 63.0312 132.141C63.0068 132.115 62.9877 132.084 62.9749 132.05C62.962 132.016 62.9558 131.98 62.9565 131.943C63.1065 124.373 59.6722 116.758 56.5273 115.008C56.464 114.973 56.4167 114.914 56.3956 114.844C56.3745 114.773 56.3814 114.697 56.4147 114.631C56.4481 114.566 56.5053 114.517 56.5736 114.495C56.6419 114.473 56.7158 114.481 56.7791 114.515C60.0848 116.343 63.6691 124.19 63.5137 131.955C63.514 131.993 63.5063 132.031 63.4912 132.067C63.476 132.102 63.4537 132.133 63.4259 132.159C63.398 132.185 63.3651 132.204 63.3294 132.216C63.2938 132.227 63.2561 132.231 63.2191 132.226Z" fill="white"/>
<path d="M64.0763 145.218C60.701 147.245 56.8648 145.384 56.2005 141.491C55.9701 140.134 55.7397 138.722 54.5235 137.952C53.5055 137.299 52.134 137.216 51.2606 136.341C50.0177 135.089 50.7249 133.478 51.5071 132.209C52.2358 131.057 52.8251 129.712 52.1393 128.394C51.7187 127.702 51.3855 126.958 51.1481 126.178C51.0326 125.789 51.0168 125.376 51.1023 124.979C51.1878 124.582 51.3716 124.215 51.6357 123.913C52.2786 123.282 53.2912 123.31 54.1538 123.526C55.5524 123.912 56.8394 124.644 57.9042 125.658C58.6597 126.328 59.0883 127.009 60.1759 127.214C60.9796 127.363 61.8154 127.214 62.6083 127.408C63.1082 127.548 63.5733 127.797 63.9725 128.138C64.3717 128.479 64.6957 128.904 64.9229 129.385C65.7105 130.974 65.4586 132.824 65.3354 134.535C65.2122 136.247 65.0568 137.792 64.8639 139.414C64.7032 140.788 64.521 142.183 64.3282 143.529C64.296 143.74 64.2585 145.119 64.0763 145.218Z" fill="#455A64"/>
<path d="M64.3978 143.302C64.3338 143.301 64.272 143.277 64.2239 143.233C64.1757 143.19 64.1443 143.13 64.1353 143.064C62.962 134.369 55.8791 126.278 53.2431 124.888C53.2117 124.871 53.1839 124.848 53.1612 124.82C53.1385 124.793 53.1213 124.76 53.1106 124.726C53.0999 124.691 53.0959 124.654 53.0989 124.618C53.1018 124.582 53.1117 124.546 53.1279 124.514C53.144 124.482 53.1662 124.453 53.1932 124.429C53.2201 124.406 53.2513 124.388 53.2848 124.377C53.3184 124.366 53.3538 124.362 53.3889 124.365C53.424 124.368 53.4582 124.378 53.4895 124.395C56.2809 125.868 63.4495 133.97 64.6657 142.992C64.6749 143.065 64.6557 143.138 64.6126 143.196C64.5694 143.254 64.5056 143.292 64.4354 143.302H64.3978Z" fill="white"/>
<path d="M53.9288 133.887C53.8578 133.902 53.784 133.887 53.7237 133.845C53.6634 133.804 53.6216 133.739 53.6074 133.666C53.5931 133.592 53.6077 133.516 53.6479 133.454C53.6881 133.391 53.7506 133.348 53.8217 133.334C55.9465 132.482 58.2344 132.156 60.5028 132.381C60.5378 132.384 60.5719 132.394 60.6031 132.41C60.6343 132.427 60.662 132.45 60.6845 132.478C60.7069 132.506 60.7238 132.538 60.734 132.573C60.7442 132.607 60.7475 132.644 60.7439 132.68C60.7405 132.717 60.7302 132.752 60.7136 132.784C60.6969 132.816 60.6742 132.845 60.6468 132.868C60.6194 132.891 60.5878 132.909 60.5539 132.919C60.52 132.93 60.4844 132.933 60.4492 132.929C58.2638 132.734 56.0643 133.06 54.0199 133.882C53.9899 133.887 53.9593 133.889 53.9288 133.887Z" fill="white"/>
<path d="M64.8266 147.267C64.3503 146.936 63.9565 146.492 63.6772 145.974C63.3979 145.455 63.241 144.876 63.2192 144.282V60.5906C63.2499 59.9791 63.4202 59.3837 63.7164 58.8533C64.0125 58.3229 64.426 57.8725 64.923 57.5392L160.607 0.441394C161.113 0.164215 161.676 0.0133466 162.249 0.00084586C162.822 -0.0116549 163.39 0.114556 163.907 0.369396C164.384 0.696844 164.778 1.13684 165.057 1.65301C165.337 2.16918 165.494 2.74669 165.514 3.33782V87.0572C165.484 87.6688 165.313 88.2642 165.017 88.7946C164.721 89.325 164.308 89.7753 163.811 90.1087L68.1269 147.206C67.6199 147.483 67.057 147.633 66.4838 147.643C65.9105 147.654 65.3428 147.525 64.8266 147.267V147.267Z" fill="#7D7D7D" fill-opacity="0.8"/>
<path d="M72.8201 64.2624L63.7119 58.8351C63.4041 59.3609 63.2325 59.9598 63.2137 60.574V144.282C63.1974 144.881 63.338 145.473 63.6206 145.996C63.9032 146.519 64.3173 146.953 64.819 147.253C65.3208 147.553 65.8916 147.707 66.471 147.698C67.0505 147.69 67.617 147.52 68.1106 147.206L72.804 144.404L72.8201 64.2624Z" fill="#7D7D7D" fill-opacity="0.8"/>
<path opacity="0.2" d="M72.8201 64.2624L63.7119 58.8351C63.4041 59.3609 63.2325 59.9598 63.2137 60.574V144.282C63.1974 144.881 63.338 145.473 63.6206 145.996C63.9032 146.519 64.3173 146.953 64.819 147.253C65.3208 147.553 65.8916 147.707 66.471 147.698C67.0505 147.69 67.617 147.52 68.1106 147.206L72.804 144.404L72.8201 64.2624Z" fill="#E5E5E5"/>
<path d="M68.1269 59.4499L163.8 2.32442C164.743 1.77061 165.504 2.21919 165.504 3.33789V87.0573C165.473 87.6689 165.303 88.2642 165.006 88.7946C164.71 89.325 164.297 89.7754 163.8 90.1088L68.1269 147.207C67.1893 147.76 66.4285 147.312 66.4285 146.188V62.5014C66.4585 61.8903 66.628 61.2952 66.9232 60.7648C67.2184 60.2345 67.6309 59.7839 68.1269 59.4499Z" fill="#7D7D7D" fill-opacity="0.8"/>
<g opacity="0.5">
<path opacity="0.5" d="M68.1269 59.4499L163.8 2.32442C164.743 1.77061 165.504 2.21919 165.504 3.33789V87.0573C165.473 87.6689 165.303 88.2642 165.006 88.7946C164.71 89.325 164.297 89.7754 163.8 90.1088L68.1269 147.207C67.1893 147.76 66.4285 147.312 66.4285 146.188V62.5014C66.4585 61.8903 66.628 61.2952 66.9232 60.7648C67.2184 60.2345 67.6309 59.7839 68.1269 59.4499Z" fill="white"/>
</g>
<path opacity="0.4" d="M76.0134 127.236C76.111 121.2 76.5205 115.173 77.2403 109.182C77.9851 102.675 79.512 91.6927 85.5877 88.0708C91.6634 84.4488 93.9404 90.9949 94.8137 94.2236C95.9549 98.4048 101.891 95.7576 102.722 88.8572C103.552 81.9567 104.083 59.9982 111.198 55.7504C118.313 51.5027 120.617 61.7261 121.426 64.5782C123.033 70.1827 127.694 68.6376 129.221 64.9215C130.748 61.2055 134.9 60.3028 136.47 65.5252C138.04 70.7476 139.015 76.7454 144.105 73.6662C148.568 70.9636 146.516 66.0402 150.872 63.6976C152.141 63.022 154.67 63.3986 155.238 67.2531C155.757 71.3284 155.985 75.4377 155.919 79.5476L76.0134 127.236Z" fill="white"/>
<path d="M76.0132 127.646C75.909 127.645 75.8095 127.601 75.7363 127.524C75.6631 127.447 75.6221 127.344 75.6221 127.236C75.7202 121.18 76.1297 115.133 76.849 109.121C77.4491 103.877 78.8581 91.5986 85.3892 87.6998C87.3234 86.5478 89.07 86.2875 90.5862 86.9244C92.6061 87.7717 94.1116 90.1199 95.1939 94.1239C95.5153 95.298 96.2654 95.9072 97.2995 95.8241C99.3783 95.658 101.827 92.9942 102.33 88.8184C102.464 87.7108 102.593 86.1934 102.738 84.4378C103.53 74.951 104.881 59.0733 111.005 55.4071C112.885 54.2995 114.61 54.0447 116.143 54.6872C119.513 56.0994 120.965 61.3882 121.656 63.9302C121.709 64.1351 121.757 64.3179 121.806 64.484C122.4 66.583 123.499 67.8069 124.897 67.8678C126.435 67.973 128.085 66.6661 128.856 64.7831C129.714 62.6952 131.385 61.4049 133.057 61.4935C134.729 61.5821 136.122 63.0109 136.845 65.4311C137.016 65.9849 137.182 66.5774 137.343 67.1534C138.238 70.2935 139.074 73.2453 140.799 73.9653C141.629 74.3031 142.647 74.0982 143.906 73.3395C146.007 72.0657 146.585 70.3101 147.153 68.4493C147.721 66.5885 148.369 64.6114 150.689 63.3654C151.114 63.1495 151.583 63.0401 152.057 63.0459C152.53 63.0516 152.996 63.1725 153.416 63.3986C154.231 63.825 155.275 64.8385 155.624 67.2199C156.145 71.3191 156.374 75.4524 156.31 79.5864C156.31 79.6402 156.3 79.6936 156.28 79.7432C156.26 79.7928 156.23 79.8375 156.192 79.8745C156.155 79.9115 156.11 79.9399 156.061 79.958C156.012 79.9761 155.96 79.9835 155.908 79.9796C155.803 79.9767 155.705 79.9315 155.632 79.8538C155.56 79.776 155.52 79.672 155.522 79.5643C155.59 75.4784 155.365 71.393 154.847 67.3417C154.547 65.2981 153.711 64.4619 153.063 64.1241C152.754 63.9567 152.411 63.8666 152.062 63.8608C151.713 63.855 151.368 63.9338 151.054 64.0908C149.018 65.1985 148.476 66.8931 147.903 68.7041C147.292 70.6258 146.66 72.614 144.303 74.0428C142.819 74.9344 141.581 75.1504 140.51 74.7185C138.431 73.8656 137.536 70.7144 136.588 67.3805C136.427 66.8267 136.266 66.2341 136.095 65.6692C135.473 63.5979 134.348 62.374 133.019 62.302C131.691 62.23 130.298 63.3598 129.58 65.1043C128.669 67.3196 126.729 68.7927 124.849 68.6819C123.831 68.621 121.988 68.0229 121.05 64.7166C121.002 64.556 120.954 64.3677 120.895 64.1628C120.236 61.7482 118.859 56.7141 115.843 55.4514C114.551 54.8976 113.057 55.1357 111.396 56.1215C105.609 59.5773 104.254 75.8039 103.525 84.5209C103.375 86.282 103.247 87.805 103.113 88.9514C102.577 93.5424 99.7533 96.4776 97.3584 96.6659C95.9493 96.7767 94.8563 95.9183 94.4384 94.3732C93.4258 90.6571 92.0703 88.4862 90.2862 87.7274C89.011 87.1736 87.4948 87.4339 85.7803 88.4529C79.5922 92.1468 78.2152 104.142 77.6312 109.265C76.9158 115.24 76.508 121.25 76.4097 127.269C76.4016 127.372 76.3562 127.468 76.2828 127.538C76.2093 127.608 76.113 127.646 76.0132 127.646V127.646Z" fill="#3FB89C"/>
<path d="M87.3395 87.9931C87.2727 87.9931 87.2086 87.9657 87.1614 87.9169C87.1142 87.8681 87.0876 87.8019 87.0876 87.7328V87.2233C87.0824 87.1863 87.0849 87.1486 87.095 87.1127C87.1051 87.0768 87.1226 87.0436 87.1462 87.0153C87.1698 86.987 87.1991 86.9643 87.232 86.9488C87.2649 86.9332 87.3006 86.9252 87.3368 86.9252C87.3729 86.9252 87.4087 86.9332 87.4416 86.9488C87.4744 86.9643 87.5037 86.987 87.5273 87.0153C87.551 87.0436 87.5685 87.0768 87.5786 87.1127C87.5887 87.1486 87.5912 87.1863 87.5859 87.2233V87.7328C87.5859 87.8009 87.5601 87.8663 87.5141 87.9149C87.468 87.9636 87.4053 87.9917 87.3395 87.9931V87.9931Z" fill="#3FB89C"/>
<path d="M87.3395 118.724C87.3064 118.724 87.2736 118.717 87.2431 118.704C87.2125 118.691 87.1848 118.672 87.1614 118.648C87.138 118.624 87.1195 118.595 87.1068 118.563C87.0941 118.532 87.0876 118.498 87.0876 118.464V117.428C87.0964 117.366 87.1264 117.31 87.1722 117.269C87.2179 117.228 87.2763 117.206 87.3368 117.206C87.3972 117.206 87.4556 117.228 87.5014 117.269C87.5471 117.31 87.5771 117.366 87.5859 117.428V118.453C87.5873 118.487 87.5821 118.522 87.5704 118.554C87.5587 118.587 87.5409 118.617 87.5179 118.642C87.495 118.667 87.4673 118.688 87.4367 118.702C87.4061 118.716 87.373 118.723 87.3395 118.724V118.724ZM87.3395 116.675C87.2727 116.675 87.2086 116.648 87.1614 116.599C87.1142 116.55 87.0876 116.484 87.0876 116.415V115.39C87.0964 115.328 87.1264 115.272 87.1722 115.231C87.2179 115.19 87.2763 115.168 87.3368 115.168C87.3972 115.168 87.4556 115.19 87.5014 115.231C87.5471 115.272 87.5771 115.328 87.5859 115.39V116.415C87.5859 116.483 87.5601 116.548 87.5141 116.597C87.468 116.645 87.4053 116.674 87.3395 116.675V116.675ZM87.3395 114.626C87.3064 114.626 87.2736 114.619 87.2431 114.606C87.2125 114.593 87.1848 114.574 87.1614 114.55C87.138 114.525 87.1195 114.497 87.1068 114.465C87.0941 114.434 87.0876 114.4 87.0876 114.366V113.347C87.0824 113.31 87.0849 113.272 87.095 113.236C87.1051 113.2 87.1226 113.167 87.1462 113.139C87.1698 113.11 87.1991 113.088 87.232 113.072C87.2649 113.056 87.3006 113.048 87.3368 113.048C87.3729 113.048 87.4087 113.056 87.4416 113.072C87.4744 113.088 87.5037 113.11 87.5273 113.139C87.551 113.167 87.5685 113.2 87.5786 113.236C87.5887 113.272 87.5912 113.31 87.5859 113.347V114.366C87.5859 114.434 87.5601 114.499 87.5141 114.548C87.468 114.596 87.4053 114.624 87.3395 114.626V114.626ZM87.3395 112.577C87.2736 112.577 87.2103 112.55 87.1633 112.503C87.1162 112.455 87.089 112.39 87.0876 112.322V111.297C87.0824 111.26 87.0849 111.223 87.095 111.187C87.1051 111.151 87.1226 111.118 87.1462 111.089C87.1698 111.061 87.1991 111.038 87.232 111.023C87.2649 111.007 87.3006 110.999 87.3368 110.999C87.3729 110.999 87.4087 111.007 87.4416 111.023C87.4744 111.038 87.5037 111.061 87.5273 111.089C87.551 111.118 87.5685 111.151 87.5786 111.187C87.5887 111.223 87.5912 111.26 87.5859 111.297V112.322C87.5845 112.389 87.5581 112.453 87.5122 112.501C87.4663 112.548 87.4044 112.575 87.3395 112.577V112.577ZM87.3395 110.528C87.2736 110.528 87.2103 110.501 87.1633 110.453C87.1162 110.406 87.089 110.341 87.0876 110.273V109.248C87.0824 109.211 87.0849 109.174 87.095 109.138C87.1051 109.102 87.1226 109.069 87.1462 109.04C87.1698 109.012 87.1991 108.989 87.232 108.974C87.2649 108.958 87.3006 108.95 87.3368 108.95C87.3729 108.95 87.4087 108.958 87.4416 108.974C87.4744 108.989 87.5037 109.012 87.5273 109.04C87.551 109.069 87.5685 109.102 87.5786 109.138C87.5887 109.174 87.5912 109.211 87.5859 109.248V110.273C87.5845 110.34 87.5581 110.404 87.5122 110.452C87.4663 110.499 87.4044 110.526 87.3395 110.528V110.528ZM87.3395 108.479C87.2736 108.479 87.2103 108.452 87.1633 108.404C87.1162 108.357 87.089 108.292 87.0876 108.224V107.199C87.0824 107.162 87.0849 107.125 87.095 107.089C87.1051 107.053 87.1226 107.02 87.1462 106.991C87.1698 106.963 87.1991 106.94 87.232 106.925C87.2649 106.909 87.3006 106.901 87.3368 106.901C87.3729 106.901 87.4087 106.909 87.4416 106.925C87.4744 106.94 87.5037 106.963 87.5273 106.991C87.551 107.02 87.5685 107.053 87.5786 107.089C87.5887 107.125 87.5912 107.162 87.5859 107.199V108.224C87.5845 108.291 87.5581 108.355 87.5122 108.402C87.4663 108.45 87.4044 108.477 87.3395 108.479V108.479ZM87.3395 106.43C87.2736 106.43 87.2103 106.403 87.1633 106.355C87.1162 106.308 87.089 106.243 87.0876 106.175V105.15C87.0824 105.113 87.0849 105.075 87.095 105.04C87.1051 105.004 87.1226 104.97 87.1462 104.942C87.1698 104.914 87.1991 104.891 87.232 104.876C87.2649 104.86 87.3006 104.852 87.3368 104.852C87.3729 104.852 87.4087 104.86 87.4416 104.876C87.4744 104.891 87.5037 104.914 87.5273 104.942C87.551 104.97 87.5685 105.004 87.5786 105.04C87.5887 105.075 87.5912 105.113 87.5859 105.15V106.175C87.5845 106.242 87.5581 106.306 87.5122 106.353C87.4663 106.401 87.4044 106.428 87.3395 106.43V106.43ZM87.3395 104.38C87.3066 104.381 87.274 104.375 87.2435 104.363C87.213 104.35 87.1852 104.332 87.1617 104.308C87.1383 104.284 87.1196 104.256 87.1069 104.224C87.0942 104.193 87.0876 104.16 87.0876 104.126V103.101C87.0824 103.064 87.0849 103.026 87.095 102.991C87.1051 102.955 87.1226 102.921 87.1462 102.893C87.1698 102.865 87.1991 102.842 87.232 102.827C87.2649 102.811 87.3006 102.803 87.3368 102.803C87.3729 102.803 87.4087 102.811 87.4416 102.827C87.4744 102.842 87.5037 102.865 87.5273 102.893C87.551 102.921 87.5685 102.955 87.5786 102.991C87.5887 103.026 87.5912 103.064 87.5859 103.101V104.137C87.5831 104.202 87.556 104.264 87.51 104.31C87.4641 104.355 87.403 104.38 87.3395 104.38V104.38ZM87.3395 102.331C87.3066 102.332 87.274 102.326 87.2435 102.314C87.213 102.301 87.1852 102.282 87.1617 102.259C87.1383 102.235 87.1196 102.207 87.1069 102.175C87.0942 102.144 87.0876 102.11 87.0876 102.077V101.052C87.0824 101.015 87.0849 100.977 87.095 100.941C87.1051 100.906 87.1226 100.872 87.1462 100.844C87.1698 100.816 87.1991 100.793 87.232 100.777C87.2649 100.762 87.3006 100.754 87.3368 100.754C87.3729 100.754 87.4087 100.762 87.4416 100.777C87.4744 100.793 87.5037 100.816 87.5273 100.844C87.551 100.872 87.5685 100.906 87.5786 100.941C87.5887 100.977 87.5912 101.015 87.5859 101.052V102.077C87.5859 102.11 87.5795 102.143 87.5672 102.174C87.5548 102.205 87.5366 102.233 87.5137 102.257C87.4908 102.28 87.4637 102.299 87.4338 102.312C87.4039 102.325 87.3718 102.331 87.3395 102.331V102.331ZM87.3395 100.282C87.3066 100.283 87.274 100.277 87.2435 100.264C87.213 100.252 87.1852 100.233 87.1617 100.21C87.1383 100.186 87.1196 100.158 87.1069 100.126C87.0942 100.095 87.0876 100.061 87.0876 100.027V99.0029C87.0964 98.9411 87.1264 98.8846 87.1722 98.8438C87.2179 98.803 87.2763 98.7805 87.3368 98.7805C87.3972 98.7805 87.4556 98.803 87.5014 98.8438C87.5471 98.8846 87.5771 98.9411 87.5859 99.0029V100.027C87.5805 100.091 87.5522 100.15 87.5066 100.193C87.4609 100.237 87.4013 100.26 87.3395 100.26V100.282ZM87.3395 98.2387C87.2727 98.2387 87.2086 98.2112 87.1614 98.1624C87.1142 98.1136 87.0876 98.0474 87.0876 97.9784V96.9372C87.0964 96.8754 87.1264 96.8189 87.1722 96.7781C87.2179 96.7373 87.2763 96.7148 87.3368 96.7148C87.3972 96.7148 87.4556 96.7373 87.5014 96.7781C87.5471 96.8189 87.5771 96.8754 87.5859 96.9372V97.9618C87.5881 97.9969 87.5834 98.032 87.572 98.0652C87.5607 98.0983 87.543 98.1288 87.5199 98.1547C87.4969 98.1805 87.469 98.2013 87.438 98.2158C87.407 98.2302 87.3735 98.238 87.3395 98.2387V98.2387ZM87.3395 96.1896C87.2727 96.1896 87.2086 96.1622 87.1614 96.1133C87.1142 96.0645 87.0876 95.9983 87.0876 95.9293V94.9047C87.0964 94.8429 87.1264 94.7865 87.1722 94.7456C87.2179 94.7048 87.2763 94.6823 87.3368 94.6823C87.3972 94.6823 87.4556 94.7048 87.5014 94.7456C87.5471 94.7865 87.5771 94.8429 87.5859 94.9047V95.9293C87.5859 95.9974 87.5601 96.0627 87.5141 96.1114C87.468 96.1601 87.4053 96.1881 87.3395 96.1896V96.1896ZM87.3395 94.1405C87.2727 94.1405 87.2086 94.1131 87.1614 94.0642C87.1142 94.0154 87.0876 93.9492 87.0876 93.8802V92.8556C87.0964 92.7938 87.1264 92.7374 87.1722 92.6965C87.2179 92.6557 87.2763 92.6332 87.3368 92.6332C87.3972 92.6332 87.4556 92.6557 87.5014 92.6965C87.5471 92.7374 87.5771 92.7938 87.5859 92.8556V93.8802C87.5896 93.9162 87.5861 93.9525 87.5754 93.987C87.5648 94.0215 87.5473 94.0533 87.5241 94.0804C87.5009 94.1075 87.4725 94.1293 87.4407 94.1444C87.4089 94.1595 87.3745 94.1676 87.3395 94.1682V94.1405ZM87.3395 92.0914C87.2727 92.0914 87.2086 92.064 87.1614 92.0151C87.1142 91.9663 87.0876 91.9001 87.0876 91.8311V90.8065C87.0964 90.7447 87.1264 90.6883 87.1722 90.6474C87.2179 90.6066 87.2763 90.5841 87.3368 90.5841C87.3972 90.5841 87.4556 90.6066 87.5014 90.6474C87.5471 90.6883 87.5771 90.7447 87.5859 90.8065V91.8311C87.5859 91.8992 87.5601 91.9646 87.5141 92.0132C87.468 92.0619 87.4053 92.0899 87.3395 92.0914V92.0914ZM87.3395 90.0423C87.2727 90.0423 87.2086 90.0149 87.1614 89.9661C87.1142 89.9172 87.0876 89.851 87.0876 89.782V88.7575C87.0964 88.6957 87.1264 88.6392 87.1722 88.5983C87.2179 88.5575 87.2763 88.535 87.3368 88.535C87.3972 88.535 87.4556 88.5575 87.5014 88.5983C87.5471 88.6392 87.5771 88.6957 87.5859 88.7575V89.782C87.5859 89.8501 87.5601 89.9155 87.5141 89.9641C87.468 90.0128 87.4053 90.0409 87.3395 90.0423V90.0423Z" fill="#3FB89C"/>
<path d="M87.3395 120.264C87.3064 120.264 87.2736 120.257 87.2431 120.244C87.2125 120.231 87.1848 120.212 87.1614 120.187C87.138 120.163 87.1195 120.135 87.1068 120.103C87.0942 120.071 87.0876 120.038 87.0876 120.003V119.488C87.0964 119.426 87.1264 119.37 87.1722 119.329C87.2179 119.288 87.2763 119.266 87.3368 119.266C87.3972 119.266 87.4556 119.288 87.5014 119.329C87.5471 119.37 87.5771 119.426 87.5859 119.488V120.003C87.5859 120.071 87.5601 120.137 87.5141 120.185C87.468 120.234 87.4053 120.262 87.3395 120.264V120.264Z" fill="#3FB89C"/>
<path d="M113.046 55.8278C112.981 55.8264 112.919 55.7991 112.873 55.7517C112.827 55.7042 112.801 55.6402 112.8 55.5731V55.058C112.794 55.0211 112.797 54.9833 112.807 54.9474C112.817 54.9116 112.834 54.8783 112.858 54.85C112.882 54.8217 112.911 54.7991 112.944 54.7835C112.977 54.7679 113.013 54.7599 113.049 54.7599C113.085 54.7599 113.121 54.7679 113.153 54.7835C113.186 54.7991 113.216 54.8217 113.239 54.85C113.263 54.8783 113.28 54.9116 113.29 54.9474C113.301 54.9833 113.303 55.0211 113.298 55.058V55.5731C113.296 55.6411 113.269 55.7059 113.222 55.7536C113.175 55.8012 113.112 55.8279 113.046 55.8278V55.8278Z" fill="#3FB89C"/>
<path d="M113.046 103.865C112.98 103.864 112.917 103.836 112.871 103.787C112.825 103.738 112.8 103.673 112.8 103.605V102.564C112.794 102.527 112.797 102.489 112.807 102.453C112.817 102.417 112.834 102.384 112.858 102.356C112.882 102.327 112.911 102.305 112.944 102.289C112.977 102.274 113.013 102.266 113.049 102.266C113.085 102.266 113.121 102.274 113.153 102.289C113.186 102.305 113.216 102.327 113.239 102.356C113.263 102.384 113.28 102.417 113.29 102.453C113.301 102.489 113.303 102.527 113.298 102.564V103.583C113.301 103.619 113.296 103.655 113.285 103.689C113.274 103.723 113.256 103.755 113.232 103.781C113.208 103.808 113.18 103.829 113.148 103.843C113.116 103.858 113.081 103.865 113.046 103.865V103.865ZM113.046 101.777C112.98 101.776 112.917 101.748 112.871 101.699C112.825 101.65 112.8 101.585 112.8 101.517V100.47C112.808 100.408 112.838 100.352 112.884 100.311C112.93 100.27 112.988 100.248 113.049 100.248C113.109 100.248 113.168 100.27 113.213 100.311C113.259 100.352 113.289 100.408 113.298 100.47V101.517C113.298 101.551 113.291 101.585 113.279 101.617C113.266 101.648 113.247 101.677 113.224 101.701C113.201 101.725 113.173 101.744 113.142 101.757C113.112 101.771 113.079 101.777 113.046 101.777V101.777ZM113.046 99.6839C112.981 99.6839 112.918 99.6571 112.872 99.6093C112.826 99.5615 112.8 99.4967 112.8 99.4291V98.3824C112.808 98.3206 112.838 98.2642 112.884 98.2233C112.93 98.1825 112.988 98.16 113.049 98.16C113.109 98.16 113.168 98.1825 113.213 98.2233C113.259 98.2642 113.289 98.3206 113.298 98.3824V99.4291C113.301 99.4649 113.297 99.5009 113.285 99.5348C113.274 99.5687 113.256 99.5997 113.232 99.6259C113.208 99.652 113.179 99.6727 113.147 99.6865C113.115 99.7003 113.081 99.707 113.046 99.706V99.6839ZM113.046 97.596C112.981 97.5946 112.919 97.5673 112.873 97.5199C112.827 97.4724 112.801 97.4084 112.8 97.3413V96.2946C112.808 96.2328 112.838 96.1763 112.884 96.1355C112.93 96.0946 112.988 96.0722 113.049 96.0722C113.109 96.0722 113.168 96.0946 113.213 96.1355C113.259 96.1763 113.289 96.2328 113.298 96.2946V97.3413C113.296 97.4093 113.269 97.4741 113.222 97.5218C113.175 97.5694 113.112 97.5961 113.046 97.596V97.596ZM113.046 95.5082C112.981 95.5068 112.919 95.4795 112.873 95.432C112.827 95.3845 112.801 95.3205 112.8 95.2534V94.2067C112.808 94.1449 112.838 94.0884 112.884 94.0476C112.93 94.0068 112.988 93.9843 113.049 93.9843C113.109 93.9843 113.168 94.0068 113.213 94.0476C113.259 94.0884 113.289 94.1449 113.298 94.2067V95.2756C113.291 95.3397 113.262 95.399 113.215 95.442C113.169 95.4849 113.108 95.5085 113.046 95.5082V95.5082ZM113.046 93.4203C112.981 93.4189 112.919 93.3916 112.873 93.3441C112.827 93.2967 112.801 93.2327 112.8 93.1656V92.1189C112.808 92.0571 112.838 92.0006 112.884 91.9597C112.93 91.9189 112.988 91.8964 113.049 91.8964C113.109 91.8964 113.168 91.9189 113.213 91.9597C113.259 92.0006 113.289 92.0571 113.298 92.1189V93.1656C113.296 93.2336 113.269 93.2984 113.222 93.346C113.175 93.3937 113.112 93.4203 113.046 93.4203V93.4203ZM113.046 91.3325C112.98 91.331 112.917 91.3029 112.871 91.2543C112.825 91.2056 112.8 91.1402 112.8 91.0722V90.031C112.794 89.994 112.797 89.9563 112.807 89.9204C112.817 89.8845 112.834 89.8513 112.858 89.823C112.882 89.7947 112.911 89.772 112.944 89.7565C112.977 89.7409 113.013 89.7328 113.049 89.7328C113.085 89.7328 113.121 89.7409 113.153 89.7565C113.186 89.772 113.216 89.7947 113.239 89.823C113.263 89.8513 113.28 89.8845 113.29 89.9204C113.301 89.9563 113.303 89.994 113.298 90.031V91.0722C113.298 91.1063 113.291 91.1402 113.279 91.1718C113.266 91.2033 113.247 91.232 113.224 91.2562C113.201 91.2804 113.173 91.2996 113.142 91.3126C113.112 91.3257 113.079 91.3325 113.046 91.3325V91.3325ZM113.046 89.2446C112.98 89.2431 112.917 89.2151 112.871 89.1664C112.825 89.1178 112.8 89.0524 112.8 88.9843V87.9431C112.794 87.9062 112.797 87.8684 112.807 87.8325C112.817 87.7966 112.834 87.7634 112.858 87.7351C112.882 87.7068 112.911 87.6841 112.944 87.6686C112.977 87.653 113.013 87.645 113.049 87.645C113.085 87.645 113.121 87.653 113.153 87.6686C113.186 87.6841 113.216 87.7068 113.239 87.7351C113.263 87.7634 113.28 87.7966 113.29 87.8325C113.301 87.8684 113.303 87.9062 113.298 87.9431V88.9843C113.298 89.0185 113.291 89.0523 113.279 89.0839C113.266 89.1155 113.247 89.1442 113.224 89.1684C113.201 89.1925 113.173 89.2117 113.142 89.2248C113.112 89.2379 113.079 89.2446 113.046 89.2446V89.2446ZM113.046 87.1567C112.98 87.1553 112.917 87.1272 112.871 87.0786C112.825 87.0299 112.8 86.9645 112.8 86.8964V85.8608C112.794 85.8238 112.797 85.7861 112.807 85.7502C112.817 85.7143 112.834 85.6811 112.858 85.6528C112.882 85.6245 112.911 85.6018 112.944 85.5863C112.977 85.5707 113.013 85.5627 113.049 85.5627C113.085 85.5627 113.121 85.5707 113.153 85.5863C113.186 85.6018 113.216 85.6245 113.239 85.6528C113.263 85.6811 113.28 85.7143 113.29 85.7502C113.301 85.7861 113.303 85.8238 113.298 85.8608V86.902C113.296 86.97 113.269 87.0348 113.222 87.0825C113.175 87.1301 113.112 87.1567 113.046 87.1567V87.1567ZM113.046 85.0689C112.98 85.0674 112.917 85.0394 112.871 84.9907C112.825 84.942 112.8 84.8767 112.8 84.8086V83.7674C112.794 83.7304 112.797 83.6927 112.807 83.6568C112.817 83.6209 112.834 83.5877 112.858 83.5594C112.882 83.5311 112.911 83.5084 112.944 83.4929C112.977 83.4773 113.013 83.4693 113.049 83.4693C113.085 83.4693 113.121 83.4773 113.153 83.4929C113.186 83.5084 113.216 83.5311 113.239 83.5594C113.263 83.5877 113.28 83.6209 113.29 83.6568C113.301 83.6927 113.303 83.7304 113.298 83.7674V84.8086C113.298 84.8428 113.291 84.8766 113.279 84.9082C113.266 84.9398 113.247 84.9685 113.224 84.9926C113.201 85.0168 113.173 85.036 113.142 85.0491C113.112 85.0621 113.079 85.0689 113.046 85.0689V85.0689ZM113.046 82.981C112.98 82.9796 112.917 82.9515 112.871 82.9028C112.825 82.8542 112.8 82.7888 112.8 82.7207V81.6796C112.794 81.6426 112.797 81.6048 112.807 81.569C112.817 81.5331 112.834 81.4998 112.858 81.4715C112.882 81.4433 112.911 81.4206 112.944 81.405C112.977 81.3895 113.013 81.3814 113.049 81.3814C113.085 81.3814 113.121 81.3895 113.153 81.405C113.186 81.4206 113.216 81.4433 113.239 81.4715C113.263 81.4998 113.28 81.5331 113.29 81.569C113.301 81.6048 113.303 81.6426 113.298 81.6796V82.7207C113.298 82.7549 113.291 82.7887 113.279 82.8203C113.266 82.8519 113.247 82.8806 113.224 82.9048C113.201 82.9289 113.173 82.9481 113.142 82.9612C113.112 82.9743 113.079 82.981 113.046 82.981V82.981ZM113.046 80.8876C112.981 80.8876 112.918 80.8608 112.872 80.813C112.826 80.7652 112.8 80.7004 112.8 80.6329V79.5862C112.808 79.5243 112.838 79.4679 112.884 79.427C112.93 79.3862 112.988 79.3637 113.049 79.3637C113.109 79.3637 113.168 79.3862 113.213 79.427C113.259 79.4679 113.289 79.5243 113.298 79.5862V80.6329C113.295 80.6994 113.267 80.7623 113.22 80.8078C113.173 80.8534 113.11 80.878 113.046 80.8765V80.8876ZM113.046 78.7997C112.981 78.7997 112.918 78.7729 112.872 78.7251C112.826 78.6774 112.8 78.6126 112.8 78.545V77.4983C112.808 77.4365 112.838 77.38 112.884 77.3392C112.93 77.2983 112.988 77.2759 113.049 77.2759C113.109 77.2759 113.168 77.2983 113.213 77.3392C113.259 77.38 113.289 77.4365 113.298 77.4983V78.545C113.298 78.5789 113.291 78.6125 113.279 78.6438C113.266 78.6751 113.247 78.7034 113.224 78.7271C113.2 78.7508 113.172 78.7695 113.142 78.782C113.111 78.7944 113.079 78.8005 113.046 78.7997V78.7997ZM113.046 76.7119C112.981 76.7105 112.919 76.6832 112.873 76.6357C112.827 76.5882 112.801 76.5243 112.8 76.4571V75.4104C112.808 75.3486 112.838 75.2921 112.884 75.2513C112.93 75.2105 112.988 75.188 113.049 75.188C113.109 75.188 113.168 75.2105 113.213 75.2513C113.259 75.2921 113.289 75.3486 113.298 75.4104V76.4461C113.299 76.4807 113.293 76.5151 113.28 76.5474C113.268 76.5796 113.249 76.6089 113.226 76.6337C113.203 76.6585 113.175 76.6781 113.144 76.6916C113.113 76.705 113.08 76.7119 113.046 76.7119V76.7119ZM113.046 74.624C112.981 74.6226 112.919 74.5953 112.873 74.5478C112.827 74.5004 112.801 74.4364 112.8 74.3693V73.3226C112.808 73.2608 112.838 73.2043 112.884 73.1635C112.93 73.1226 112.988 73.1001 113.049 73.1001C113.109 73.1001 113.168 73.1226 113.213 73.1635C113.259 73.2043 113.289 73.2608 113.298 73.3226V74.3693C113.296 74.4373 113.269 74.5021 113.222 74.5498C113.175 74.5974 113.112 74.624 113.046 74.624V74.624ZM113.046 72.5362C112.981 72.5348 112.919 72.5075 112.873 72.46C112.827 72.4125 112.801 72.3485 112.8 72.2814V71.2347C112.808 71.1729 112.838 71.1164 112.884 71.0756C112.93 71.0348 112.988 71.0123 113.049 71.0123C113.109 71.0123 113.168 71.0348 113.213 71.0756C113.259 71.1164 113.289 71.1729 113.298 71.2347V72.2814C113.296 72.3495 113.269 72.4143 113.222 72.4619C113.175 72.5095 113.112 72.5362 113.046 72.5362V72.5362ZM113.046 70.4483C112.98 70.4469 112.917 70.4188 112.871 70.3701C112.825 70.3215 112.8 70.2561 112.8 70.188V69.1469C112.794 69.1099 112.797 69.0721 112.807 69.0363C112.817 69.0004 112.834 68.9671 112.858 68.9388C112.882 68.9106 112.911 68.8879 112.944 68.8723C112.977 68.8567 113.013 68.8487 113.049 68.8487C113.085 68.8487 113.121 68.8567 113.153 68.8723C113.186 68.8879 113.216 68.9106 113.239 68.9388C113.263 68.9671 113.28 69.0004 113.29 69.0363C113.301 69.0721 113.303 69.1099 113.298 69.1469V70.188C113.298 70.2222 113.291 70.256 113.279 70.2876C113.266 70.3192 113.247 70.3479 113.224 70.3721C113.201 70.3962 113.173 70.4154 113.142 70.4285C113.112 70.4416 113.079 70.4483 113.046 70.4483V70.4483ZM113.046 68.3604C112.98 68.359 112.917 68.3309 112.871 68.2823C112.825 68.2336 112.8 68.1682 112.8 68.1001V67.059C112.794 67.022 112.797 66.9843 112.807 66.9484C112.817 66.9125 112.834 66.8793 112.858 66.851C112.882 66.8227 112.911 66.8 112.944 66.7844C112.977 66.7689 113.013 66.7608 113.049 66.7608C113.085 66.7608 113.121 66.7689 113.153 66.7844C113.186 66.8 113.216 66.8227 113.239 66.851C113.263 66.8793 113.28 66.9125 113.29 66.9484C113.301 66.9843 113.303 67.022 113.298 67.059V68.1001C113.298 68.1343 113.291 68.1682 113.279 68.1998C113.266 68.2313 113.247 68.26 113.224 68.2842C113.201 68.3084 113.173 68.3275 113.142 68.3406C113.112 68.3537 113.079 68.3604 113.046 68.3604V68.3604ZM113.046 66.2726C112.98 66.2711 112.917 66.2431 112.871 66.1944C112.825 66.1458 112.8 66.0804 112.8 66.0123V64.9711C112.794 64.9341 112.797 64.8964 112.807 64.8605C112.817 64.8246 112.834 64.7914 112.858 64.7631C112.882 64.7348 112.911 64.7121 112.944 64.6966C112.977 64.681 113.013 64.673 113.049 64.673C113.085 64.673 113.121 64.681 113.153 64.6966C113.186 64.7121 113.216 64.7348 113.239 64.7631C113.263 64.7914 113.28 64.8246 113.29 64.8605C113.301 64.8964 113.303 64.9341 113.298 64.9711V66.0123C113.298 66.0465 113.291 66.0803 113.279 66.1119C113.266 66.1435 113.247 66.1722 113.224 66.1963C113.201 66.2205 113.173 66.2397 113.142 66.2528C113.112 66.2658 113.079 66.2726 113.046 66.2726V66.2726ZM113.046 64.1847C112.98 64.1833 112.917 64.1552 112.871 64.1066C112.825 64.0579 112.8 63.9925 112.8 63.9244V62.8833C112.794 62.8463 112.797 62.8086 112.807 62.7727C112.817 62.7368 112.834 62.7036 112.858 62.6753C112.882 62.647 112.911 62.6243 112.944 62.6087C112.977 62.5932 113.013 62.5851 113.049 62.5851C113.085 62.5851 113.121 62.5932 113.153 62.6087C113.186 62.6243 113.216 62.647 113.239 62.6753C113.263 62.7036 113.28 62.7368 113.29 62.7727C113.301 62.8086 113.303 62.8463 113.298 62.8833V63.9244C113.298 63.9586 113.291 63.9925 113.279 64.024C113.266 64.0556 113.247 64.0843 113.224 64.1085C113.201 64.1327 113.173 64.1518 113.142 64.1649C113.112 64.178 113.079 64.1847 113.046 64.1847V64.1847ZM113.046 62.0969C112.98 62.0954 112.917 62.0673 112.871 62.0187C112.825 61.97 112.8 61.9047 112.8 61.8366V60.7899C112.808 60.7281 112.838 60.6716 112.884 60.6308C112.93 60.5899 112.988 60.5674 113.049 60.5674C113.109 60.5674 113.168 60.5899 113.213 60.6308C113.259 60.6716 113.289 60.7281 113.298 60.7899V61.8366C113.298 61.8707 113.291 61.9046 113.279 61.9362C113.266 61.9678 113.247 61.9965 113.224 62.0206C113.201 62.0448 113.173 62.064 113.142 62.077C113.112 62.0901 113.079 62.0969 113.046 62.0969V62.0969ZM113.046 60.0035C112.981 60.0035 112.918 59.9766 112.872 59.9288C112.826 59.8811 112.8 59.8163 112.8 59.7487V58.7242C112.808 58.6624 112.838 58.6059 112.884 58.565C112.93 58.5242 112.988 58.5017 113.049 58.5017C113.109 58.5017 113.168 58.5242 113.213 58.565C113.259 58.6059 113.289 58.6624 113.298 58.7242V59.7709C113.292 59.8355 113.263 59.8955 113.217 59.9387C113.17 59.982 113.109 60.0051 113.046 60.0035V60.0035ZM113.046 57.9156C112.981 57.9156 112.918 57.8888 112.872 57.841C112.826 57.7932 112.8 57.7284 112.8 57.6608V56.6141C112.808 56.5523 112.838 56.4959 112.884 56.455C112.93 56.4142 112.988 56.3917 113.049 56.3917C113.109 56.3917 113.168 56.4142 113.213 56.455C113.259 56.4959 113.289 56.5523 113.298 56.6141V57.6608C113.298 57.6948 113.291 57.7284 113.279 57.7596C113.266 57.7909 113.247 57.8192 113.224 57.843C113.2 57.8667 113.172 57.8854 113.142 57.8978C113.111 57.9103 113.079 57.9163 113.046 57.9156V57.9156Z" fill="#3FB89C"/>
<path d="M113.046 105.422C112.981 105.42 112.919 105.393 112.873 105.345C112.827 105.298 112.801 105.234 112.8 105.167V104.652C112.794 104.615 112.797 104.577 112.807 104.541C112.817 104.505 112.834 104.472 112.858 104.444C112.882 104.415 112.911 104.393 112.944 104.377C112.977 104.362 113.013 104.354 113.049 104.354C113.085 104.354 113.121 104.362 113.153 104.377C113.186 104.393 113.216 104.415 113.239 104.444C113.263 104.472 113.28 104.505 113.29 104.541C113.301 104.577 113.303 104.615 113.298 104.652V105.167C113.296 105.235 113.269 105.3 113.222 105.347C113.175 105.395 113.112 105.422 113.046 105.422V105.422Z" fill="#3FB89C"/>
<path d="M132.693 62.8335C132.627 62.8321 132.564 62.804 132.518 62.7554C132.472 62.7067 132.446 62.6413 132.446 62.5732V62.0471C132.455 61.9853 132.485 61.9288 132.531 61.888C132.577 61.8472 132.635 61.8247 132.695 61.8247C132.756 61.8247 132.814 61.8472 132.86 61.888C132.906 61.9288 132.936 61.9853 132.945 62.0471V62.6009C132.938 62.6651 132.909 62.7243 132.862 62.7673C132.815 62.8103 132.755 62.8339 132.693 62.8335Z" fill="#3FB89C"/>
<path d="M132.693 92.2187C132.628 92.2173 132.566 92.19 132.52 92.1426C132.474 92.0951 132.448 92.0311 132.446 91.964V90.9118C132.455 90.8499 132.485 90.7935 132.531 90.7526C132.577 90.7118 132.635 90.6893 132.695 90.6893C132.756 90.6893 132.814 90.7118 132.86 90.7526C132.906 90.7935 132.936 90.8499 132.945 90.9118V91.9529C132.945 91.9876 132.939 92.022 132.927 92.0542C132.915 92.0865 132.896 92.1158 132.873 92.1406C132.849 92.1653 132.821 92.185 132.79 92.1984C132.759 92.2118 132.726 92.2188 132.693 92.2187V92.2187ZM132.693 90.1198C132.628 90.1184 132.566 90.0911 132.52 90.0436C132.474 89.9962 132.448 89.9322 132.446 89.8651V88.8128C132.455 88.751 132.485 88.6945 132.531 88.6537C132.577 88.6129 132.635 88.5904 132.695 88.5904C132.756 88.5904 132.814 88.6129 132.86 88.6537C132.906 88.6945 132.936 88.751 132.945 88.8128V89.8651C132.943 89.9331 132.916 89.9979 132.869 90.0455C132.822 90.0932 132.759 90.1198 132.693 90.1198V90.1198ZM132.693 88.0209C132.628 88.0195 132.566 87.9922 132.52 87.9447C132.474 87.8972 132.448 87.8332 132.446 87.7661V86.7139C132.455 86.6521 132.485 86.5956 132.531 86.5548C132.577 86.5139 132.635 86.4915 132.695 86.4915C132.756 86.4915 132.814 86.5139 132.86 86.5548C132.906 86.5956 132.936 86.6521 132.945 86.7139V87.7661C132.943 87.8342 132.916 87.899 132.869 87.9466C132.822 87.9942 132.759 88.0209 132.693 88.0209V88.0209ZM132.693 85.9219C132.628 85.9205 132.566 85.8932 132.52 85.8457C132.474 85.7983 132.448 85.7343 132.446 85.6672V84.6149C132.455 84.5531 132.485 84.4967 132.531 84.4558C132.577 84.415 132.635 84.3925 132.695 84.3925C132.756 84.3925 132.814 84.415 132.86 84.4558C132.906 84.4967 132.936 84.5531 132.945 84.6149V85.6672C132.943 85.7352 132.916 85.8 132.869 85.8477C132.822 85.8953 132.759 85.9219 132.693 85.9219V85.9219ZM132.693 83.823C132.628 83.8216 132.566 83.7943 132.52 83.7468C132.474 83.6993 132.448 83.6354 132.446 83.5682V82.5382C132.455 82.4763 132.485 82.4199 132.531 82.379C132.577 82.3382 132.635 82.3157 132.695 82.3157C132.756 82.3157 132.814 82.3382 132.86 82.379C132.906 82.4199 132.936 82.4763 132.945 82.5382V83.5904C132.938 83.6545 132.908 83.7138 132.862 83.7568C132.815 83.7998 132.755 83.8234 132.693 83.823V83.823ZM132.693 81.7241C132.628 81.7226 132.566 81.6953 132.52 81.6479C132.474 81.6004 132.448 81.5364 132.446 81.4693V80.4171C132.455 80.3553 132.485 80.2988 132.531 80.2579C132.577 80.2171 132.635 80.1946 132.695 80.1946C132.756 80.1946 132.814 80.2171 132.86 80.2579C132.906 80.2988 132.936 80.3553 132.945 80.4171V81.4693C132.943 81.5374 132.916 81.6022 132.869 81.6498C132.822 81.6974 132.759 81.7241 132.693 81.7241V81.7241ZM132.693 79.6251C132.628 79.6237 132.566 79.5964 132.52 79.5489C132.474 79.5015 132.448 79.4375 132.446 79.3704V78.3181C132.455 78.2563 132.485 78.1998 132.531 78.159C132.577 78.1182 132.635 78.0957 132.695 78.0957C132.756 78.0957 132.814 78.1182 132.86 78.159C132.906 78.1998 132.936 78.2563 132.945 78.3181V79.3704C132.943 79.4384 132.916 79.5032 132.869 79.5508C132.822 79.5985 132.759 79.6251 132.693 79.6251V79.6251ZM132.693 77.5262C132.628 77.5248 132.566 77.4975 132.52 77.45C132.474 77.4025 132.448 77.3385 132.446 77.2714V76.2192C132.455 76.1574 132.485 76.1009 132.531 76.0601C132.577 76.0192 132.635 75.9968 132.695 75.9968C132.756 75.9968 132.814 76.0192 132.86 76.0601C132.906 76.1009 132.936 76.1574 132.945 76.2192V77.2714C132.948 77.3074 132.943 77.3437 132.932 77.3778C132.921 77.412 132.903 77.4434 132.879 77.47C132.855 77.4965 132.826 77.5177 132.794 77.5322C132.762 77.5466 132.728 77.554 132.693 77.5539V77.5262ZM132.693 75.4272C132.628 75.4258 132.566 75.3985 132.52 75.3511C132.474 75.3036 132.448 75.2396 132.446 75.1725V74.1202C132.455 74.0584 132.485 74.002 132.531 73.9611C132.577 73.9203 132.635 73.8978 132.695 73.8978C132.756 73.8978 132.814 73.9203 132.86 73.9611C132.906 74.002 132.936 74.0584 132.945 74.1202V75.1725C132.943 75.2405 132.916 75.3053 132.869 75.353C132.822 75.4006 132.759 75.4273 132.693 75.4272V75.4272ZM132.693 73.3283C132.628 73.3269 132.566 73.2996 132.52 73.2521C132.474 73.2046 132.448 73.1407 132.446 73.0735V72.0158C132.455 71.954 132.485 71.8975 132.531 71.8566C132.577 71.8158 132.635 71.7933 132.695 71.7933C132.756 71.7933 132.814 71.8158 132.86 71.8566C132.906 71.8975 132.936 71.954 132.945 72.0158V73.068C132.945 73.1022 132.938 73.136 132.925 73.1676C132.913 73.1992 132.894 73.2279 132.871 73.2521C132.847 73.2762 132.82 73.2954 132.789 73.3085C132.759 73.3216 132.726 73.3283 132.693 73.3283V73.3283ZM132.693 71.2294C132.628 71.2279 132.566 71.2006 132.52 71.1532C132.474 71.1057 132.448 71.0417 132.446 70.9746V69.9224C132.455 69.8606 132.485 69.8041 132.531 69.7632C132.577 69.7224 132.635 69.6999 132.695 69.6999C132.756 69.6999 132.814 69.7224 132.86 69.7632C132.906 69.8041 132.936 69.8606 132.945 69.9224V70.9746C132.943 71.0427 132.916 71.1075 132.869 71.1551C132.822 71.2027 132.759 71.2294 132.693 71.2294V71.2294ZM132.693 69.1304C132.627 69.129 132.564 69.1009 132.518 69.0522C132.472 69.0036 132.446 68.9382 132.446 68.8701V67.8234C132.441 67.7864 132.444 67.7487 132.454 67.7128C132.464 67.6769 132.481 67.6437 132.505 67.6154C132.528 67.5871 132.558 67.5644 132.591 67.5489C132.624 67.5333 132.659 67.5253 132.695 67.5253C132.732 67.5253 132.767 67.5333 132.8 67.5489C132.833 67.5644 132.862 67.5871 132.886 67.6154C132.91 67.6437 132.927 67.6769 132.937 67.7128C132.947 67.7487 132.95 67.7864 132.945 67.8234V68.8701C132.945 68.9392 132.918 69.0054 132.871 69.0542C132.824 69.103 132.76 69.1304 132.693 69.1304V69.1304ZM132.693 67.0315C132.627 67.03 132.564 67.002 132.518 66.9533C132.472 66.9047 132.446 66.8393 132.446 66.7712V65.7245C132.441 65.6875 132.444 65.6498 132.454 65.6139C132.464 65.578 132.481 65.5448 132.505 65.5165C132.528 65.4882 132.558 65.4655 132.591 65.4499C132.624 65.4344 132.659 65.4263 132.695 65.4263C132.732 65.4263 132.767 65.4344 132.8 65.4499C132.833 65.4655 132.862 65.4882 132.886 65.5165C132.91 65.5448 132.927 65.578 132.937 65.6139C132.947 65.6498 132.95 65.6875 132.945 65.7245V66.7712C132.945 66.8402 132.918 66.9064 132.871 66.9552C132.824 67.0041 132.76 67.0315 132.693 67.0315V67.0315ZM132.693 64.9325C132.627 64.9311 132.564 64.903 132.518 64.8544C132.472 64.8057 132.446 64.7403 132.446 64.6723V63.6256C132.441 63.5886 132.444 63.5508 132.454 63.515C132.464 63.4791 132.481 63.4458 132.505 63.4175C132.528 63.3893 132.558 63.3666 132.591 63.351C132.624 63.3354 132.659 63.3274 132.695 63.3274C132.732 63.3274 132.767 63.3354 132.8 63.351C132.833 63.3666 132.862 63.3893 132.886 63.4175C132.91 63.4458 132.927 63.4791 132.937 63.515C132.947 63.5508 132.95 63.5886 132.945 63.6256V64.6723C132.945 64.7413 132.918 64.8075 132.871 64.8563C132.824 64.9051 132.76 64.9325 132.693 64.9325V64.9325Z" fill="#3FB89C"/>
<path d="M132.693 93.7859C132.627 93.7845 132.564 93.7564 132.518 93.7078C132.472 93.6591 132.446 93.5937 132.446 93.5257V93.0106C132.455 92.9488 132.485 92.8923 132.531 92.8515C132.577 92.8107 132.635 92.7882 132.695 92.7882C132.756 92.7882 132.814 92.8107 132.86 92.8515C132.906 92.8923 132.936 92.9488 132.945 93.0106V93.5257C132.945 93.5598 132.938 93.5937 132.925 93.6253C132.913 93.6569 132.894 93.6855 132.871 93.7097C132.847 93.7339 132.82 93.7531 132.789 93.7661C132.759 93.7792 132.726 93.7859 132.693 93.7859V93.7859Z" fill="#3FB89C"/>
<path d="M152.05 64.207C151.984 64.207 151.92 64.1795 151.872 64.1307C151.825 64.0819 151.799 64.0157 151.799 63.9467V63.4316C151.807 63.3698 151.837 63.3134 151.883 63.2725C151.929 63.2317 151.987 63.2092 152.048 63.2092C152.108 63.2092 152.167 63.2317 152.212 63.2725C152.258 63.3134 152.288 63.3698 152.297 63.4316V63.9467C152.297 64.0148 152.271 64.0801 152.225 64.1288C152.179 64.1775 152.116 64.2055 152.05 64.207V64.207Z" fill="#3FB89C"/>
<path d="M152.05 80.6497C151.984 80.6497 151.92 80.6222 151.872 80.5734C151.825 80.5246 151.799 80.4584 151.799 80.3894V79.3648C151.793 79.3278 151.796 79.2901 151.806 79.2542C151.816 79.2183 151.834 79.1851 151.857 79.1568C151.881 79.1285 151.91 79.1058 151.943 79.0903C151.976 79.0747 152.012 79.0667 152.048 79.0667C152.084 79.0667 152.12 79.0747 152.152 79.0903C152.185 79.1058 152.215 79.1285 152.238 79.1568C152.262 79.1851 152.279 79.2183 152.289 79.2542C152.3 79.2901 152.302 79.3278 152.297 79.3648V80.3894C152.297 80.4575 152.271 80.5228 152.225 80.5715C152.179 80.6201 152.116 80.6482 152.05 80.6497V80.6497ZM152.05 78.595C151.984 78.595 151.92 78.5676 151.872 78.5188C151.825 78.47 151.799 78.4038 151.799 78.3347V77.3102C151.793 77.2732 151.796 77.2355 151.806 77.1996C151.816 77.1637 151.834 77.1305 151.857 77.1022C151.881 77.0739 151.91 77.0512 151.943 77.0356C151.976 77.0201 152.012 77.012 152.048 77.012C152.084 77.012 152.12 77.0201 152.152 77.0356C152.185 77.0512 152.215 77.0739 152.238 77.1022C152.262 77.1305 152.279 77.1637 152.289 77.1996C152.3 77.2355 152.302 77.2732 152.297 77.3102V78.3347C152.297 78.4028 152.271 78.4682 152.225 78.5169C152.179 78.5655 152.116 78.5936 152.05 78.595V78.595ZM152.05 76.5404C151.984 76.5404 151.92 76.513 151.872 76.4641C151.825 76.4153 151.799 76.3491 151.799 76.2801V75.2555C151.793 75.2186 151.796 75.1808 151.806 75.1449C151.816 75.1091 151.834 75.0758 151.857 75.0475C151.881 75.0192 151.91 74.9965 151.943 74.981C151.976 74.9654 152.012 74.9574 152.048 74.9574C152.084 74.9574 152.12 74.9654 152.152 74.981C152.185 74.9965 152.215 75.0192 152.238 75.0475C152.262 75.0758 152.279 75.1091 152.289 75.1449C152.3 75.1808 152.302 75.2186 152.297 75.2555V76.2801C152.297 76.3482 152.271 76.4136 152.225 76.4622C152.179 76.5109 152.116 76.5389 152.05 76.5404V76.5404ZM152.05 74.4858C151.984 74.4858 151.92 74.4583 151.872 74.4095C151.825 74.3607 151.799 74.2945 151.799 74.2255V73.1954C151.807 73.1336 151.837 73.0771 151.883 73.0363C151.929 72.9954 151.987 72.9729 152.048 72.9729C152.108 72.9729 152.167 72.9954 152.212 73.0363C152.258 73.0771 152.288 73.1336 152.297 73.1954V74.231C152.295 74.2981 152.269 74.3621 152.223 74.4096C152.177 74.457 152.115 74.4843 152.05 74.4858V74.4858ZM152.05 72.4256C152.018 72.4263 151.985 72.4203 151.954 72.4078C151.924 72.3953 151.896 72.3767 151.873 72.3529C151.849 72.3292 151.831 72.3009 151.818 72.2696C151.805 72.2383 151.799 72.2047 151.799 72.1708V71.1407C151.807 71.0789 151.837 71.0224 151.883 70.9816C151.929 70.9408 151.987 70.9183 152.048 70.9183C152.108 70.9183 152.167 70.9408 152.212 70.9816C152.258 71.0224 152.288 71.0789 152.297 71.1407V72.1708C152.297 72.2384 152.271 72.3032 152.225 72.351C152.178 72.3987 152.116 72.4256 152.05 72.4256V72.4256ZM152.05 70.3709C151.985 70.371 151.921 70.3443 151.874 70.2967C151.827 70.249 151.8 70.1843 151.799 70.1162V69.0861C151.807 69.0243 151.837 68.9678 151.883 68.927C151.929 68.8861 151.987 68.8637 152.048 68.8637C152.108 68.8637 152.167 68.8861 152.212 68.927C152.258 68.9678 152.288 69.0243 152.297 69.0861V70.1162C152.292 70.1804 152.263 70.2402 152.218 70.2842C152.172 70.3282 152.113 70.3532 152.05 70.3543V70.3709ZM152.05 68.3163C151.985 68.3163 151.921 68.2897 151.874 68.242C151.827 68.1944 151.8 68.1296 151.799 68.0615V67.0315C151.807 66.9697 151.837 66.9132 151.883 66.8723C151.929 66.8315 151.987 66.809 152.048 66.809C152.108 66.809 152.167 66.8315 152.212 66.8723C152.258 66.9132 152.288 66.9697 152.297 67.0315V68.0615C152.295 68.1287 152.269 68.1927 152.223 68.2401C152.177 68.2876 152.115 68.3149 152.05 68.3163V68.3163ZM152.05 66.2617C151.985 66.2617 151.921 66.235 151.874 66.1874C151.827 66.1398 151.8 66.075 151.799 66.0069V64.9768C151.807 64.915 151.837 64.8585 151.883 64.8177C151.929 64.7769 151.987 64.7544 152.048 64.7544C152.108 64.7544 152.167 64.7769 152.212 64.8177C152.258 64.8585 152.288 64.915 152.297 64.9768V66.0069C152.295 66.074 152.269 66.138 152.223 66.1855C152.177 66.233 152.115 66.2603 152.05 66.2617V66.2617Z" fill="#3FB89C"/>
<path d="M152.05 82.1892C152.018 82.1899 151.985 82.1839 151.954 82.1714C151.924 82.1589 151.896 82.1403 151.873 82.1166C151.849 82.0928 151.831 82.0645 151.818 82.0332C151.805 82.002 151.799 81.9684 151.799 81.9344V81.4305C151.793 81.3935 151.796 81.3558 151.806 81.3199C151.816 81.284 151.834 81.2508 151.857 81.2225C151.881 81.1942 151.91 81.1715 151.943 81.1559C151.976 81.1404 152.012 81.1323 152.048 81.1323C152.084 81.1323 152.12 81.1404 152.152 81.1559C152.185 81.1715 152.215 81.1942 152.238 81.2225C152.262 81.2508 152.279 81.284 152.289 81.3199C152.3 81.3558 152.302 81.3935 152.297 81.4305V81.9455C152.294 82.0111 152.267 82.0731 152.221 82.1185C152.175 82.1639 152.114 82.1893 152.05 82.1892V82.1892Z" fill="#3FB89C"/>
<path d="M136.738 46.1252C136.738 45.6213 136.395 45.4164 135.972 45.6711L128.916 49.8635C128.692 50.0151 128.506 50.2189 128.373 50.4585C128.24 50.698 128.164 50.9666 128.149 51.2424V57.146C128.149 57.65 128.492 57.8549 128.916 57.6002L131.536 56.0384L132.634 58.01C132.65 58.0382 132.674 58.061 132.702 58.0756C132.731 58.0903 132.763 58.0962 132.794 58.0927C132.826 58.0892 132.856 58.0764 132.88 58.0559C132.905 58.0353 132.924 58.0079 132.934 57.9768L134.096 54.5099L135.972 53.4023C136.196 53.2525 136.382 53.0499 136.515 52.8111C136.648 52.5723 136.725 52.3042 136.738 52.0288V46.1252Z" fill="#3FB89C"/>
<path d="M130.598 52.3113C130.527 52.317 130.456 52.306 130.39 52.2792C130.325 52.2523 130.265 52.2102 130.218 52.1562C130.115 52.0191 130.065 51.8473 130.078 51.6744C130.079 51.4487 130.126 51.2258 130.218 51.0209C130.312 50.7962 130.44 50.5886 130.598 50.4062C130.75 50.2212 130.931 50.064 131.134 49.941C131.295 49.837 131.48 49.7779 131.669 49.7693C131.74 49.7651 131.811 49.7773 131.877 49.8051C131.943 49.8329 132.002 49.8755 132.05 49.9299C132.155 50.0662 132.206 50.2381 132.195 50.4117C132.191 50.6358 132.142 50.8566 132.05 51.0597C131.953 51.2843 131.825 51.4933 131.669 51.6799C131.516 51.8603 131.335 52.0137 131.134 52.1341C130.974 52.2414 130.789 52.3026 130.598 52.3113ZM130.426 55.2963C130.428 55.2614 130.437 55.2273 130.453 55.1966L133.518 48.7558L133.598 48.6118C133.631 48.5753 133.669 48.5437 133.711 48.5177L134.338 48.1466C134.35 48.1415 134.362 48.1388 134.375 48.1388C134.388 48.1388 134.401 48.1415 134.413 48.1466C134.423 48.1493 134.432 48.1559 134.438 48.1651C134.444 48.1743 134.446 48.1855 134.445 48.1965C134.444 48.234 134.433 48.2706 134.413 48.3017L131.321 54.748C131.321 54.8034 131.268 54.8422 131.252 54.8699C131.223 54.9022 131.188 54.9285 131.15 54.9474L130.518 55.3295C130.464 55.4015 130.426 55.3628 130.426 55.2963V55.2963ZM131.498 51.2092C131.594 51.0656 131.648 50.8964 131.653 50.7218C131.663 50.6591 131.653 50.5949 131.625 50.5383C131.597 50.4817 131.553 50.4355 131.498 50.4062C131.433 50.386 131.364 50.3821 131.297 50.3946C131.23 50.4071 131.167 50.4357 131.112 50.4782C130.955 50.5731 130.823 50.7061 130.727 50.8658C130.63 51.0132 130.576 51.1862 130.571 51.3643C130.563 51.4255 130.573 51.4879 130.601 51.5426C130.629 51.5973 130.673 51.6415 130.727 51.6689C130.791 51.6889 130.86 51.6933 130.927 51.6818C130.994 51.6703 131.057 51.6431 131.112 51.6024C131.277 51.5083 131.417 51.3732 131.519 51.2092H131.498ZM133.202 53.6903C133.13 53.6958 133.058 53.6841 132.991 53.6563C132.924 53.6285 132.864 53.5851 132.816 53.5297C132.711 53.3955 132.66 53.2253 132.671 53.0534C132.675 52.8311 132.724 52.6121 132.816 52.411C132.913 52.1847 133.043 51.9754 133.202 51.7907C133.354 51.6071 133.535 51.4517 133.738 51.331C133.898 51.2237 134.083 51.1625 134.273 51.1538C134.345 51.1499 134.416 51.1618 134.482 51.1885C134.549 51.2152 134.609 51.2563 134.659 51.3089C134.765 51.4447 134.816 51.6169 134.804 51.7907C134.801 52.0149 134.751 52.2358 134.659 52.4387C134.56 52.6635 134.43 52.8724 134.273 53.0589C134.12 53.241 133.939 53.3962 133.738 53.5186C133.582 53.6184 133.406 53.6773 133.223 53.6903H133.202ZM134.118 52.5826C134.216 52.4382 134.271 52.2664 134.273 52.0898C134.273 51.9292 134.225 51.8295 134.118 51.7852C134.053 51.7646 133.984 51.7604 133.917 51.7729C133.85 51.7854 133.786 51.8143 133.732 51.8572C133.574 51.9504 133.441 52.0838 133.346 52.2448C133.251 52.3889 133.197 52.5578 133.191 52.7322C133.191 52.8983 133.245 53.0035 133.346 53.0423C133.412 53.06 133.48 53.0627 133.547 53.0503C133.614 53.0378 133.677 53.0105 133.732 52.9703C133.895 52.8798 134.034 52.7508 134.139 52.5937L134.118 52.5826Z" fill="#7D7D7D" fill-opacity="0.8"/>
<path opacity="0.4" d="M130.598 52.3113C130.527 52.317 130.456 52.306 130.39 52.2792C130.325 52.2523 130.265 52.2102 130.218 52.1562C130.115 52.0191 130.065 51.8473 130.078 51.6744C130.079 51.4487 130.126 51.2258 130.218 51.0209C130.312 50.7962 130.44 50.5886 130.598 50.4062C130.75 50.2212 130.931 50.064 131.134 49.941C131.295 49.837 131.48 49.7779 131.669 49.7693C131.74 49.7651 131.811 49.7773 131.877 49.8051C131.943 49.8329 132.002 49.8755 132.05 49.9299C132.155 50.0662 132.206 50.2381 132.195 50.4117C132.191 50.6358 132.142 50.8566 132.05 51.0597C131.953 51.2843 131.825 51.4933 131.669 51.6799C131.516 51.8603 131.335 52.0137 131.134 52.1341C130.974 52.2414 130.789 52.3026 130.598 52.3113ZM130.426 55.2963C130.428 55.2614 130.437 55.2273 130.453 55.1966L133.518 48.7558L133.598 48.6118C133.631 48.5753 133.669 48.5437 133.711 48.5177L134.338 48.1466C134.35 48.1415 134.362 48.1388 134.375 48.1388C134.388 48.1388 134.401 48.1415 134.413 48.1466C134.423 48.1493 134.432 48.1559 134.438 48.1651C134.444 48.1743 134.446 48.1855 134.445 48.1965C134.444 48.234 134.433 48.2706 134.413 48.3017L131.321 54.748C131.321 54.8034 131.268 54.8422 131.252 54.8699C131.223 54.9022 131.188 54.9285 131.15 54.9474L130.518 55.3295C130.464 55.4015 130.426 55.3628 130.426 55.2963V55.2963ZM131.498 51.2092C131.594 51.0656 131.648 50.8964 131.653 50.7218C131.663 50.6591 131.653 50.5949 131.625 50.5383C131.597 50.4817 131.553 50.4355 131.498 50.4062C131.433 50.386 131.364 50.3821 131.297 50.3946C131.23 50.4071 131.167 50.4357 131.112 50.4782C130.955 50.5731 130.823 50.7061 130.727 50.8658C130.63 51.0132 130.576 51.1862 130.571 51.3643C130.563 51.4255 130.573 51.4879 130.601 51.5426C130.629 51.5973 130.673 51.6415 130.727 51.6689C130.791 51.6889 130.86 51.6933 130.927 51.6818C130.994 51.6703 131.057 51.6431 131.112 51.6024C131.277 51.5083 131.417 51.3732 131.519 51.2092H131.498ZM133.202 53.6903C133.13 53.6958 133.058 53.6841 132.991 53.6563C132.924 53.6285 132.864 53.5851 132.816 53.5297C132.711 53.3955 132.66 53.2253 132.671 53.0534C132.675 52.8311 132.724 52.6121 132.816 52.411C132.913 52.1847 133.043 51.9754 133.202 51.7907C133.354 51.6071 133.535 51.4517 133.738 51.331C133.898 51.2237 134.083 51.1625 134.273 51.1538C134.345 51.1499 134.416 51.1618 134.482 51.1885C134.549 51.2152 134.609 51.2563 134.659 51.3089C134.765 51.4447 134.816 51.6169 134.804 51.7907C134.801 52.0149 134.751 52.2358 134.659 52.4387C134.56 52.6635 134.43 52.8724 134.273 53.0589C134.12 53.241 133.939 53.3962 133.738 53.5186C133.582 53.6184 133.406 53.6773 133.223 53.6903H133.202ZM134.118 52.5826C134.216 52.4382 134.271 52.2664 134.273 52.0898C134.273 51.9292 134.225 51.8295 134.118 51.7852C134.053 51.7646 133.984 51.7604 133.917 51.7729C133.85 51.7854 133.786 51.8143 133.732 51.8572C133.574 51.9504 133.441 52.0838 133.346 52.2448C133.251 52.3889 133.197 52.5578 133.191 52.7322C133.191 52.8983 133.245 53.0035 133.346 53.0423C133.412 53.06 133.48 53.0627 133.547 53.0503C133.614 53.0378 133.677 53.0105 133.732 52.9703C133.895 52.8798 134.034 52.7508 134.139 52.5937L134.118 52.5826Z" fill="#E5E5E5"/>
<path d="M155.79 47.1386C155.79 46.6346 155.447 46.4297 155.024 46.6789L147.968 50.8989C147.745 51.05 147.56 51.253 147.427 51.4915C147.293 51.73 147.216 51.9975 147.201 52.2724V58.1704C147.201 58.6799 147.544 58.8849 147.968 58.6301L150.609 57.0628L151.713 59.0344C151.725 59.064 151.746 59.0893 151.772 59.107C151.798 59.1247 151.829 59.1341 151.86 59.1341C151.891 59.1341 151.922 59.1247 151.948 59.107C151.974 59.0893 151.995 59.064 152.007 59.0344L153.17 55.562L155.05 54.4544C155.273 54.3033 155.458 54.1003 155.592 53.8618C155.725 53.6233 155.802 53.3558 155.817 53.0809L155.79 47.1386Z" fill="#3FB89C"/>
<path d="M149.65 53.3247C149.578 53.3294 149.506 53.3174 149.439 53.2896C149.373 53.2618 149.313 53.219 149.264 53.1641C149.163 53.0285 149.113 52.8589 149.125 52.6879C149.128 52.4625 149.175 52.2402 149.264 52.0344C149.36 51.8077 149.49 51.5983 149.65 51.4141C149.803 51.2321 149.984 51.0769 150.186 50.9544C150.346 50.8491 150.531 50.7898 150.721 50.7828C150.793 50.7773 150.865 50.7889 150.932 50.8167C150.999 50.8446 151.059 50.8879 151.107 50.9434C151.213 51.0789 151.265 51.2514 151.252 51.4252C151.248 51.6475 151.199 51.8665 151.107 52.0676C151.011 52.2939 150.88 52.5032 150.721 52.6879C150.569 52.8714 150.388 53.0269 150.186 53.1475C150.025 53.2549 149.84 53.316 149.65 53.3247ZM149.473 56.3098C149.474 56.2724 149.486 56.236 149.505 56.2045L152.57 49.7638C152.591 49.7124 152.618 49.6641 152.65 49.6198C152.68 49.5816 152.716 49.5496 152.757 49.5256L153.39 49.149C153.422 49.149 153.443 49.1213 153.465 49.149C153.486 49.1767 153.491 49.149 153.491 49.1989C153.492 49.2358 153.483 49.2723 153.465 49.3041L150.384 55.7781C150.365 55.821 150.341 55.8619 150.314 55.9C150.287 55.932 150.254 55.9584 150.218 55.9775L149.58 56.3596C149.537 56.3818 149.473 56.3707 149.473 56.3098ZM150.545 52.2227C150.64 52.0786 150.694 51.9097 150.7 51.7353C150.709 51.6725 150.699 51.6083 150.671 51.5517C150.643 51.4951 150.599 51.4489 150.545 51.4196C150.479 51.3995 150.41 51.3955 150.343 51.4081C150.276 51.4206 150.213 51.4492 150.159 51.4916C150.003 51.5867 149.873 51.7198 149.778 51.8793C149.679 52.0255 149.625 52.1992 149.623 52.3777C149.614 52.439 149.624 52.5018 149.652 52.5567C149.68 52.6116 149.724 52.6556 149.778 52.6823C149.843 52.7024 149.911 52.7064 149.977 52.6939C150.043 52.6813 150.105 52.6527 150.159 52.6103C150.325 52.5202 150.465 52.3865 150.566 52.2227H150.545ZM152.248 54.7037C152.177 54.708 152.105 54.6958 152.038 54.6681C151.971 54.6403 151.911 54.5976 151.863 54.5431C151.763 54.4065 151.713 54.2377 151.723 54.0668C151.727 53.8434 151.774 53.623 151.863 53.4189C151.962 53.194 152.092 52.9851 152.248 52.7986C152.402 52.6182 152.583 52.4648 152.784 52.3445C152.945 52.2388 153.129 52.1778 153.32 52.1673C153.391 52.1623 153.463 52.1736 153.529 52.2004C153.596 52.2272 153.656 52.2688 153.706 52.3224C153.811 52.4562 153.863 52.6266 153.85 52.7986C153.848 53.0247 153.799 53.2475 153.706 53.4521C153.608 53.676 153.478 53.8832 153.32 54.0668C153.167 54.2498 152.986 54.4052 152.784 54.5265C152.629 54.6276 152.453 54.6884 152.27 54.7037H152.248ZM153.17 53.5961C153.267 53.4488 153.321 53.2758 153.325 53.0977C153.333 53.0365 153.322 52.9745 153.294 52.9199C153.266 52.8654 153.223 52.8211 153.17 52.7931C153.103 52.7753 153.033 52.7731 152.966 52.7865C152.898 52.7999 152.834 52.8286 152.779 52.8706C152.623 52.963 152.492 53.0944 152.398 53.2527C152.299 53.3972 152.243 53.5686 152.238 53.7456C152.238 53.9118 152.291 54.0115 152.398 54.0558C152.463 54.0734 152.531 54.076 152.596 54.0636C152.662 54.0511 152.724 54.0239 152.779 53.9838C152.943 53.8935 153.084 53.7645 153.191 53.6072L153.17 53.5961Z" fill="#7D7D7D" fill-opacity="0.8"/>
<path opacity="0.4" d="M149.65 53.3247C149.578 53.3294 149.506 53.3174 149.439 53.2896C149.373 53.2618 149.313 53.219 149.264 53.1641C149.163 53.0285 149.113 52.8589 149.125 52.6879C149.128 52.4625 149.175 52.2402 149.264 52.0344C149.36 51.8077 149.49 51.5983 149.65 51.4141C149.803 51.2321 149.984 51.0769 150.186 50.9544C150.346 50.8491 150.531 50.7898 150.721 50.7828C150.793 50.7773 150.865 50.7889 150.932 50.8167C150.999 50.8446 151.059 50.8879 151.107 50.9434C151.213 51.0789 151.265 51.2514 151.252 51.4252C151.248 51.6475 151.199 51.8665 151.107 52.0676C151.011 52.2939 150.88 52.5032 150.721 52.6879C150.569 52.8714 150.388 53.0269 150.186 53.1475C150.025 53.2549 149.84 53.316 149.65 53.3247ZM149.473 56.3098C149.474 56.2724 149.486 56.236 149.505 56.2045L152.57 49.7638C152.591 49.7124 152.618 49.6641 152.65 49.6198C152.68 49.5816 152.716 49.5496 152.757 49.5256L153.39 49.149C153.422 49.149 153.443 49.1213 153.465 49.149C153.486 49.1767 153.491 49.149 153.491 49.1989C153.492 49.2358 153.483 49.2723 153.465 49.3041L150.384 55.7781C150.365 55.821 150.341 55.8619 150.314 55.9C150.287 55.932 150.254 55.9584 150.218 55.9775L149.58 56.3596C149.537 56.3818 149.473 56.3707 149.473 56.3098ZM150.545 52.2227C150.64 52.0786 150.694 51.9097 150.7 51.7353C150.709 51.6725 150.699 51.6083 150.671 51.5517C150.643 51.4951 150.599 51.4489 150.545 51.4196C150.479 51.3995 150.41 51.3955 150.343 51.4081C150.276 51.4206 150.213 51.4492 150.159 51.4916C150.003 51.5867 149.873 51.7198 149.778 51.8793C149.679 52.0255 149.625 52.1992 149.623 52.3777C149.614 52.439 149.624 52.5018 149.652 52.5567C149.68 52.6116 149.724 52.6556 149.778 52.6823C149.843 52.7024 149.911 52.7064 149.977 52.6939C150.043 52.6813 150.105 52.6527 150.159 52.6103C150.325 52.5202 150.465 52.3865 150.566 52.2227H150.545ZM152.248 54.7037C152.177 54.708 152.105 54.6958 152.038 54.6681C151.971 54.6403 151.911 54.5976 151.863 54.5431C151.763 54.4065 151.713 54.2377 151.723 54.0668C151.727 53.8434 151.774 53.623 151.863 53.4189C151.962 53.194 152.092 52.9851 152.248 52.7986C152.402 52.6182 152.583 52.4648 152.784 52.3445C152.945 52.2388 153.129 52.1778 153.32 52.1673C153.391 52.1623 153.463 52.1736 153.529 52.2004C153.596 52.2272 153.656 52.2688 153.706 52.3224C153.811 52.4562 153.863 52.6266 153.85 52.7986C153.848 53.0247 153.799 53.2475 153.706 53.4521C153.608 53.676 153.478 53.8832 153.32 54.0668C153.167 54.2498 152.986 54.4052 152.784 54.5265C152.629 54.6276 152.453 54.6884 152.27 54.7037H152.248ZM153.17 53.5961C153.267 53.4488 153.321 53.2758 153.325 53.0977C153.333 53.0365 153.322 52.9745 153.294 52.9199C153.266 52.8654 153.223 52.8211 153.17 52.7931C153.103 52.7753 153.033 52.7731 152.966 52.7865C152.898 52.7999 152.834 52.8286 152.779 52.8706C152.623 52.963 152.492 53.0944 152.398 53.2527C152.299 53.3972 152.243 53.5686 152.238 53.7456C152.238 53.9118 152.291 54.0115 152.398 54.0558C152.463 54.0734 152.531 54.076 152.596 54.0636C152.662 54.0511 152.724 54.0239 152.779 53.9838C152.943 53.8935 153.084 53.7645 153.191 53.6072L153.17 53.5961Z" fill="#E5E5E5"/>
<path d="M116.705 39.2635C116.705 38.7596 116.362 38.5547 115.939 38.8094L108.883 43.0239C108.66 43.1755 108.474 43.3794 108.341 43.6189C108.208 43.8585 108.131 44.127 108.117 44.4029V50.3065C108.117 50.8105 108.46 51.0154 108.883 50.7606L111.498 49.1989L112.601 51.1649C112.614 51.1946 112.634 51.2198 112.661 51.2375C112.687 51.2552 112.717 51.2647 112.749 51.2647C112.78 51.2647 112.811 51.2552 112.837 51.2375C112.863 51.2198 112.884 51.1946 112.896 51.1649L114.059 47.6981L115.939 46.5904C116.163 46.4407 116.349 46.238 116.483 45.9992C116.616 45.7604 116.692 45.4923 116.705 45.217V39.2635Z" fill="#3FB89C"/>
<path d="M110.56 45.4328C110.489 45.4378 110.418 45.4264 110.353 45.3996C110.287 45.3728 110.228 45.3311 110.179 45.2778C110.079 45.1395 110.029 44.9686 110.04 44.7959C110.043 44.5706 110.09 44.3483 110.179 44.1424C110.275 43.9188 110.403 43.7115 110.56 43.5277C110.713 43.344 110.894 43.187 111.095 43.0625C111.257 42.9592 111.441 42.9001 111.631 42.8908C111.703 42.8853 111.775 42.8969 111.842 42.9248C111.909 42.9526 111.969 42.996 112.017 43.0514C112.122 43.1878 112.173 43.3596 112.162 43.5333C112.158 43.7573 112.109 43.9781 112.017 44.1812C111.918 44.4061 111.788 44.615 111.631 44.8015C111.478 44.9819 111.297 45.1353 111.095 45.2556C110.935 45.3629 110.75 45.4241 110.56 45.4328ZM110.388 48.4179C110.389 48.382 110.4 48.3473 110.42 48.3182L113.485 41.8718C113.507 41.8212 113.534 41.7729 113.565 41.7278C113.595 41.6896 113.631 41.6577 113.673 41.6337L114.305 41.2626C114.317 41.2571 114.329 41.2543 114.342 41.2543C114.355 41.2543 114.368 41.2571 114.38 41.2626C114.38 41.2626 114.407 41.2626 114.407 41.3125C114.408 41.3495 114.399 41.3861 114.38 41.4177L111.299 47.8917C111.28 47.9347 111.257 47.9755 111.229 48.0136C111.204 48.0472 111.171 48.0738 111.133 48.0911L110.495 48.4732C110.426 48.512 110.388 48.5009 110.388 48.4345V48.4179ZM111.46 44.3307C111.556 44.1871 111.61 44.0179 111.615 43.8434C111.624 43.7806 111.614 43.7164 111.586 43.6598C111.559 43.6032 111.514 43.557 111.46 43.5277C111.395 43.5076 111.326 43.5036 111.259 43.5161C111.192 43.5286 111.128 43.5573 111.074 43.5997C110.919 43.695 110.788 43.828 110.694 43.9874C110.594 44.1335 110.54 44.3073 110.538 44.4858C110.538 44.6464 110.586 44.7461 110.694 44.7904C110.758 44.8105 110.826 44.8145 110.892 44.8019C110.958 44.7894 111.021 44.7608 111.074 44.7184C111.247 44.6292 111.393 44.4933 111.497 44.3252L111.46 44.3307ZM113.164 46.8118C113.092 46.8173 113.019 46.8057 112.953 46.7779C112.886 46.75 112.826 46.7067 112.778 46.6512C112.677 46.5151 112.628 46.3459 112.638 46.1749C112.643 45.9533 112.69 45.7349 112.778 45.5325C112.874 45.3062 113.004 45.0969 113.164 44.9122C113.316 44.7287 113.497 44.5732 113.699 44.4526C113.859 44.3452 114.044 44.2841 114.235 44.2754C114.306 44.2715 114.378 44.2833 114.444 44.31C114.511 44.3368 114.571 44.3778 114.621 44.4304C114.725 44.567 114.774 44.7392 114.76 44.9122C114.759 45.136 114.712 45.357 114.621 45.5602C114.522 45.785 114.392 45.994 114.235 46.1805C114.081 46.3622 113.9 46.5174 113.699 46.6401C113.546 46.7458 113.369 46.8105 113.185 46.8284L113.164 46.8118ZM114.085 45.7042C114.181 45.5586 114.235 45.3875 114.24 45.2113C114.249 45.1501 114.238 45.0877 114.211 45.033C114.183 44.9783 114.139 44.9341 114.085 44.9067C114.019 44.8861 113.949 44.8819 113.881 44.8944C113.813 44.9069 113.749 44.9358 113.694 44.9787C113.538 45.0726 113.407 45.206 113.314 45.3664C113.215 45.5088 113.159 45.6784 113.153 45.8537C113.153 46.0199 113.206 46.1251 113.314 46.1639C113.378 46.1814 113.446 46.1841 113.512 46.1717C113.577 46.1592 113.64 46.132 113.694 46.0919C113.856 46.0063 113.998 45.8831 114.107 45.7319L114.085 45.7042Z" fill="#7D7D7D" fill-opacity="0.8"/>
<path opacity="0.4" d="M110.56 45.4328C110.489 45.4378 110.418 45.4264 110.353 45.3996C110.287 45.3728 110.228 45.3311 110.179 45.2778C110.079 45.1395 110.029 44.9686 110.04 44.7959C110.043 44.5706 110.09 44.3483 110.179 44.1424C110.275 43.9188 110.403 43.7115 110.56 43.5277C110.713 43.344 110.894 43.187 111.095 43.0625C111.257 42.9592 111.441 42.9001 111.631 42.8908C111.703 42.8853 111.775 42.8969 111.842 42.9248C111.909 42.9526 111.969 42.996 112.017 43.0514C112.122 43.1878 112.173 43.3596 112.162 43.5333C112.158 43.7573 112.109 43.9781 112.017 44.1812C111.918 44.4061 111.788 44.615 111.631 44.8015C111.478 44.9819 111.297 45.1353 111.095 45.2556C110.935 45.3629 110.75 45.4241 110.56 45.4328ZM110.388 48.4179C110.389 48.382 110.4 48.3473 110.42 48.3182L113.485 41.8718C113.507 41.8212 113.534 41.7729 113.565 41.7278C113.595 41.6896 113.631 41.6577 113.673 41.6337L114.305 41.2626C114.317 41.2571 114.329 41.2543 114.342 41.2543C114.355 41.2543 114.368 41.2571 114.38 41.2626C114.38 41.2626 114.407 41.2626 114.407 41.3125C114.408 41.3495 114.399 41.3861 114.38 41.4177L111.299 47.8917C111.28 47.9347 111.257 47.9755 111.229 48.0136C111.204 48.0472 111.171 48.0738 111.133 48.0911L110.495 48.4732C110.426 48.512 110.388 48.5009 110.388 48.4345V48.4179ZM111.46 44.3307C111.556 44.1871 111.61 44.0179 111.615 43.8434C111.624 43.7806 111.614 43.7164 111.586 43.6598C111.559 43.6032 111.514 43.557 111.46 43.5277C111.395 43.5076 111.326 43.5036 111.259 43.5161C111.192 43.5286 111.128 43.5573 111.074 43.5997C110.919 43.695 110.788 43.828 110.694 43.9874C110.594 44.1335 110.54 44.3073 110.538 44.4858C110.538 44.6464 110.586 44.7461 110.694 44.7904C110.758 44.8105 110.826 44.8145 110.892 44.8019C110.958 44.7894 111.021 44.7608 111.074 44.7184C111.247 44.6292 111.393 44.4933 111.497 44.3252L111.46 44.3307ZM113.164 46.8118C113.092 46.8173 113.019 46.8057 112.953 46.7779C112.886 46.75 112.826 46.7067 112.778 46.6512C112.677 46.5151 112.628 46.3459 112.638 46.1749C112.643 45.9533 112.69 45.7349 112.778 45.5325C112.874 45.3062 113.004 45.0969 113.164 44.9122C113.316 44.7287 113.497 44.5732 113.699 44.4526C113.859 44.3452 114.044 44.2841 114.235 44.2754C114.306 44.2715 114.378 44.2833 114.444 44.31C114.511 44.3368 114.571 44.3778 114.621 44.4304C114.725 44.567 114.774 44.7392 114.76 44.9122C114.759 45.136 114.712 45.357 114.621 45.5602C114.522 45.785 114.392 45.994 114.235 46.1805C114.081 46.3622 113.9 46.5174 113.699 46.6401C113.546 46.7458 113.369 46.8105 113.185 46.8284L113.164 46.8118ZM114.085 45.7042C114.181 45.5586 114.235 45.3875 114.24 45.2113C114.249 45.1501 114.238 45.0877 114.211 45.033C114.183 44.9783 114.139 44.9341 114.085 44.9067C114.019 44.8861 113.949 44.8819 113.881 44.8944C113.813 44.9069 113.749 44.9358 113.694 44.9787C113.538 45.0726 113.407 45.206 113.314 45.3664C113.215 45.5088 113.159 45.6784 113.153 45.8537C113.153 46.0199 113.206 46.1251 113.314 46.1639C113.378 46.1814 113.446 46.1841 113.512 46.1717C113.577 46.1592 113.64 46.132 113.694 46.0919C113.856 46.0063 113.998 45.8831 114.107 45.7319L114.085 45.7042Z" fill="#E5E5E5"/>
<path d="M91.0899 70.6976C91.0899 70.1937 90.747 69.9888 90.3238 70.238L83.2676 74.458C83.0442 74.6096 82.8585 74.8135 82.7254 75.053C82.5923 75.2926 82.5156 75.5611 82.5015 75.837V81.7351C82.5015 82.2446 82.8444 82.4495 83.2676 82.1947L85.8875 80.633L86.9859 82.599C87.0017 82.6273 87.0251 82.6504 87.0532 82.6655C87.0813 82.6805 87.1129 82.687 87.1444 82.6841C87.176 82.6812 87.206 82.669 87.2311 82.649C87.2562 82.629 87.2752 82.6021 87.2859 82.5713L88.4485 79.0989L90.3238 77.9913C90.547 77.8409 90.7328 77.6381 90.8659 77.3994C90.9991 77.1607 91.0758 76.893 91.0899 76.6179V70.6976Z" fill="#3FB89C"/>
<path d="M84.9499 76.8838C84.8787 76.8897 84.8072 76.8783 84.7412 76.8504C84.6751 76.8225 84.6163 76.7789 84.5695 76.7232C84.4656 76.5888 84.4158 76.4183 84.4302 76.2469C84.4306 76.0213 84.4781 75.7983 84.5695 75.5934C84.6646 75.3677 84.7929 75.1584 84.9499 74.9731C85.1025 74.7902 85.2836 74.6348 85.4857 74.5135C85.6463 74.4081 85.8313 74.3488 86.0214 74.3418C86.0933 74.3363 86.1655 74.3479 86.2324 74.3758C86.2992 74.4036 86.359 74.4469 86.4072 74.5024C86.5128 74.6382 86.5645 74.8105 86.5518 74.9842C86.5483 75.2065 86.4989 75.4255 86.4072 75.6266C86.3095 75.8539 86.1794 76.0649 86.0214 76.2524C85.8678 76.4329 85.6869 76.5862 85.4857 76.7066C85.3248 76.8123 85.1402 76.8733 84.9499 76.8838ZM84.7784 79.8688C84.7804 79.8322 84.7895 79.7964 84.8052 79.7636L87.8698 73.3228C87.8906 73.2715 87.9177 73.2231 87.9502 73.1788C87.981 73.1419 88.0171 73.1101 88.0574 73.0847L88.6896 72.7081C88.7138 72.6992 88.7403 72.6992 88.7646 72.7081C88.775 72.7107 88.7841 72.7173 88.79 72.7265C88.796 72.7358 88.7984 72.7469 88.7967 72.7579C88.7953 72.7953 88.7842 72.8316 88.7646 72.8631L85.6892 79.3372C85.6625 79.3925 85.6357 79.4313 85.6196 79.459C85.5894 79.4897 85.5551 79.5158 85.5178 79.5365L84.8802 79.9187C84.8106 79.9408 84.7784 79.9353 84.7784 79.8688V79.8688ZM85.85 75.7817C85.9438 75.6373 85.9959 75.4683 86 75.2944C86 75.1282 85.9518 75.023 85.85 74.9787C85.7847 74.9586 85.7158 74.9546 85.6488 74.9671C85.5818 74.9796 85.5185 75.0082 85.4642 75.0507C85.3058 75.1439 85.1731 75.2773 85.0785 75.4383C84.9816 75.5857 84.9276 75.7587 84.9231 75.9368C84.9146 75.998 84.9251 76.0604 84.953 76.1151C84.9809 76.1698 85.0248 76.214 85.0785 76.2414C85.1437 76.2615 85.2126 76.2655 85.2797 76.253C85.3467 76.2405 85.4099 76.2118 85.4642 76.1694C85.6292 76.0774 85.7692 75.9441 85.8714 75.7817H85.85ZM87.5537 78.2628C87.482 78.2671 87.4102 78.2549 87.3435 78.2271C87.2768 78.1994 87.2168 78.1567 87.168 78.1022C87.0641 77.9675 87.0126 77.7977 87.0233 77.6259C87.0269 77.4036 87.0762 77.1846 87.168 76.9835C87.2657 76.7562 87.3957 76.5453 87.5537 76.3577C87.7083 76.1783 87.8891 76.0251 88.0895 75.9035C88.2504 75.7979 88.4349 75.7368 88.6253 75.7263C88.6967 75.7213 88.7682 75.7327 88.8349 75.7595C88.9015 75.7863 88.9617 75.8279 89.011 75.8814C89.1171 76.0169 89.1689 76.1894 89.1557 76.3632C89.1527 76.5874 89.1034 76.8083 89.011 77.0112C88.9132 77.235 88.7831 77.4423 88.6253 77.6259C88.4742 77.8104 88.2928 77.966 88.0895 78.0856C87.9356 78.1892 87.7585 78.2503 87.5752 78.2628H87.5537ZM88.4699 77.1552C88.5668 77.0078 88.6207 76.8348 88.6253 76.6567C88.6329 76.5956 88.6221 76.5335 88.5943 76.479C88.5665 76.4245 88.523 76.3802 88.4699 76.3521C88.4032 76.3344 88.3336 76.3321 88.2659 76.3456C88.1983 76.359 88.1344 76.3877 88.0788 76.4297C87.9246 76.5242 87.7942 76.6552 87.6984 76.8118C87.6014 76.957 87.5474 77.1283 87.543 77.3047C87.543 77.4708 87.5912 77.5705 87.6984 77.6148C87.763 77.6324 87.8306 77.6351 87.8964 77.6226C87.9621 77.6102 88.0244 77.5829 88.0788 77.5428C88.243 77.4525 88.3844 77.3235 88.4913 77.1662L88.4699 77.1552Z" fill="#7D7D7D" fill-opacity="0.8"/>
<path opacity="0.4" d="M84.9499 76.8838C84.8787 76.8897 84.8072 76.8783 84.7412 76.8504C84.6751 76.8225 84.6163 76.7789 84.5695 76.7232C84.4656 76.5888 84.4158 76.4183 84.4302 76.2469C84.4306 76.0213 84.4781 75.7983 84.5695 75.5934C84.6646 75.3677 84.7929 75.1584 84.9499 74.9731C85.1025 74.7902 85.2836 74.6348 85.4857 74.5135C85.6463 74.4081 85.8313 74.3488 86.0214 74.3418C86.0933 74.3363 86.1655 74.3479 86.2324 74.3758C86.2992 74.4036 86.359 74.4469 86.4072 74.5024C86.5128 74.6382 86.5645 74.8105 86.5518 74.9842C86.5483 75.2065 86.4989 75.4255 86.4072 75.6266C86.3095 75.8539 86.1794 76.0649 86.0214 76.2524C85.8678 76.4329 85.6869 76.5862 85.4857 76.7066C85.3248 76.8123 85.1402 76.8733 84.9499 76.8838ZM84.7784 79.8688C84.7804 79.8322 84.7895 79.7964 84.8052 79.7636L87.8698 73.3228C87.8906 73.2715 87.9177 73.2231 87.9502 73.1788C87.981 73.1419 88.0171 73.1101 88.0574 73.0847L88.6896 72.7081C88.7138 72.6992 88.7403 72.6992 88.7646 72.7081C88.775 72.7107 88.7841 72.7173 88.79 72.7265C88.796 72.7358 88.7984 72.7469 88.7967 72.7579C88.7953 72.7953 88.7842 72.8316 88.7646 72.8631L85.6892 79.3372C85.6625 79.3925 85.6357 79.4313 85.6196 79.459C85.5894 79.4897 85.5551 79.5158 85.5178 79.5365L84.8802 79.9187C84.8106 79.9408 84.7784 79.9353 84.7784 79.8688V79.8688ZM85.85 75.7817C85.9438 75.6373 85.9959 75.4683 86 75.2944C86 75.1282 85.9518 75.023 85.85 74.9787C85.7847 74.9586 85.7158 74.9546 85.6488 74.9671C85.5818 74.9796 85.5185 75.0082 85.4642 75.0507C85.3058 75.1439 85.1731 75.2773 85.0785 75.4383C84.9816 75.5857 84.9276 75.7587 84.9231 75.9368C84.9146 75.998 84.9251 76.0604 84.953 76.1151C84.9809 76.1698 85.0248 76.214 85.0785 76.2414C85.1437 76.2615 85.2126 76.2655 85.2797 76.253C85.3467 76.2405 85.4099 76.2118 85.4642 76.1694C85.6292 76.0774 85.7692 75.9441 85.8714 75.7817H85.85ZM87.5537 78.2628C87.482 78.2671 87.4102 78.2549 87.3435 78.2271C87.2768 78.1994 87.2168 78.1567 87.168 78.1022C87.0641 77.9675 87.0126 77.7977 87.0233 77.6259C87.0269 77.4036 87.0762 77.1846 87.168 76.9835C87.2657 76.7562 87.3957 76.5453 87.5537 76.3577C87.7083 76.1783 87.8891 76.0251 88.0895 75.9035C88.2504 75.7979 88.4349 75.7368 88.6253 75.7263C88.6967 75.7213 88.7682 75.7327 88.8349 75.7595C88.9015 75.7863 88.9617 75.8279 89.011 75.8814C89.1171 76.0169 89.1689 76.1894 89.1557 76.3632C89.1527 76.5874 89.1034 76.8083 89.011 77.0112C88.9132 77.235 88.7831 77.4423 88.6253 77.6259C88.4742 77.8104 88.2928 77.966 88.0895 78.0856C87.9356 78.1892 87.7585 78.2503 87.5752 78.2628H87.5537ZM88.4699 77.1552C88.5668 77.0078 88.6207 76.8348 88.6253 76.6567C88.6329 76.5956 88.6221 76.5335 88.5943 76.479C88.5665 76.4245 88.523 76.3802 88.4699 76.3521C88.4032 76.3344 88.3336 76.3321 88.2659 76.3456C88.1983 76.359 88.1344 76.3877 88.0788 76.4297C87.9246 76.5242 87.7942 76.6552 87.6984 76.8118C87.6014 76.957 87.5474 77.1283 87.543 77.3047C87.543 77.4708 87.5912 77.5705 87.6984 77.6148C87.763 77.6324 87.8306 77.6351 87.8964 77.6226C87.9621 77.6102 88.0244 77.5829 88.0788 77.5428C88.243 77.4525 88.3844 77.3235 88.4913 77.1662L88.4699 77.1552Z" fill="#E5E5E5"/>
<path d="M84.7517 125.835L89.9219 122.75C90.6774 122.302 91.2828 122.496 91.2828 123.182C91.2269 123.611 91.0747 124.02 90.8384 124.377C90.6021 124.733 90.2882 125.028 89.9219 125.237L84.7571 128.322C84.0017 128.77 83.3909 128.576 83.3909 127.89C83.4492 127.462 83.6023 127.054 83.8384 126.697C84.0745 126.341 84.3871 126.046 84.7517 125.835V125.835Z" fill="#3FB89C"/>
<path d="M110.463 110.489L115.634 107.404C116.384 106.955 116.994 107.149 116.994 107.836C116.936 108.264 116.783 108.672 116.547 109.028C116.311 109.385 115.998 109.68 115.634 109.891L110.463 112.998C109.713 113.446 109.103 113.252 109.103 112.566C109.158 112.134 109.311 111.722 109.547 111.362C109.783 111.001 110.097 110.703 110.463 110.489Z" fill="#3FB89C"/>
<path d="M130.11 98.7813L135.281 95.6965C136.031 95.248 136.641 95.4418 136.641 96.1285C136.583 96.5562 136.43 96.9642 136.194 97.3207C135.958 97.6771 135.645 97.9723 135.281 98.1832L130.11 101.268C129.36 101.716 128.75 101.528 128.75 100.841C128.807 100.413 128.96 100.004 129.196 99.6466C129.433 99.2892 129.745 98.9931 130.11 98.7813V98.7813Z" fill="#3FB89C"/>
<path d="M149.462 87.2179L154.632 84.1332C155.388 83.6846 155.999 83.8729 155.993 84.5596C155.938 84.9891 155.786 85.3993 155.55 85.7571C155.314 86.1149 154.999 86.4104 154.632 86.6198L149.468 89.7045C148.712 90.1531 148.101 89.9593 148.101 89.2725C148.16 88.8448 148.313 88.4368 148.549 88.0804C148.785 87.724 149.097 87.4288 149.462 87.2179V87.2179Z" fill="#3FB89C"/>
<path d="M185.435 56.8802C184.111 56.7805 182.274 56.7749 180.457 59.8431C178.641 62.9112 173.707 71.3512 173.707 71.3512L176.921 73.5997L182.547 65.431C182.547 65.431 183.083 58.9016 184.122 57.9878C185.161 57.074 185.435 56.8802 185.435 56.8802Z" fill="#F28F8F"/>
<path d="M189.892 118.657L186.875 119.667L188.295 124.203L191.313 123.193L189.892 118.657Z" fill="#FFA8A7"/>
<path d="M187.69 122.23C187.709 122.602 187.617 122.971 187.428 123.287C186.948 124.113 186.382 124.882 185.74 125.58C184.835 126.583 183.479 127.795 182.525 128.643C181.99 129.13 181.963 129.867 182.734 130.121C184.17 130.486 185.687 130.268 186.972 129.512C187.937 128.958 189.308 126.511 190.107 126.134C191.028 125.708 191.548 125.492 191.859 125.026C192.094 124.776 192.24 124.452 192.274 124.105C192.308 123.758 192.228 123.409 192.046 123.116C191.612 122.279 190.975 120.995 190.691 121.139L190.771 121.399C190.562 122.08 188.767 122.872 187.846 122.684L187.69 122.23Z" fill="#263238"/>
<path d="M190.76 121.427C189.908 121.155 189.651 121.62 188.73 121.427L187.69 122.23C187.712 122.602 187.62 122.972 187.428 123.287C186.948 124.113 186.382 124.882 185.74 125.58C185.295 126.067 184.749 126.599 184.197 127.12C183.752 127.84 185.237 128.05 186.056 127.806C186.956 127.474 187.731 126.858 188.274 126.045C188.869 125.237 190.487 123.359 190.728 122.722C190.902 122.311 190.913 121.846 190.76 121.427V121.427Z" fill="#FFA8A7"/>
<path d="M200.897 75.5601C200.458 72.2372 199.472 68.3605 198.175 62.396C197.709 60.2417 197.104 58.2978 195.614 57.6997C195.614 57.6997 191.526 59.4387 191.526 62.5622C191.526 65.6856 194.832 67.2862 194.832 67.2862L196.718 74.0094L199.708 77.7587C200.14 77.6187 200.504 77.3129 200.726 76.904C200.947 76.4951 201.008 76.0142 200.897 75.5601V75.5601Z" fill="#FFA8A7"/>
<path d="M194.511 126.057H191.43V130.692H194.511V126.057Z" fill="#FFA8A7"/>
<path d="M196.83 78.8055C198.052 84.2106 196.863 91.5043 196.445 96.0511C196.038 100.482 195.534 105.66 195.534 105.66C195.534 105.66 196.847 110.339 196.782 113.967C196.718 117.799 194.548 127.026 194.548 127.026C194.077 127.339 193.528 127.506 192.968 127.506C192.407 127.506 191.858 127.339 191.387 127.026C191.387 127.026 190.851 119.272 190.315 114.886C189.78 110.29 189.608 106.945 189.153 104.259C188.58 100.936 187.621 86.7692 187.621 86.7692L185.97 100.814C186.96 102.496 187.731 104.306 188.263 106.197C188.939 108.916 190.407 119.71 190.407 119.71C189.488 120.56 188.307 121.045 187.074 121.078C187.074 121.078 180.473 104.868 179.573 103.251C178.609 101.528 178.464 82.6655 180.002 77.9415L196.83 78.8055Z" fill="#455A64"/>
<path d="M191.189 56.9522C191.189 56.9522 195.089 57.4561 195.614 57.6998C191.526 60.6738 194.832 67.2863 194.832 67.2863L192.855 72.9185L196.825 78.7889C195.684 80.1513 188.424 84.8808 180.634 79.6971C180.792 76.9624 181.097 74.2389 181.55 71.5395C180.425 66.0014 180.307 64.2348 180.634 62.9333C181.55 59.2726 183.645 56.9356 186.051 56.7971L191.189 56.9522Z" fill="#7D7D7D" fill-opacity="0.8"/>
<path opacity="0.7" d="M191.189 56.9522C191.189 56.9522 195.089 57.4561 195.614 57.6998C191.526 60.6738 194.832 67.2863 194.832 67.2863L192.855 72.9185L196.825 78.7889C195.684 80.1513 188.424 84.8808 180.634 79.6971C180.792 76.9624 181.097 74.2389 181.55 71.5395C180.425 66.0014 180.307 64.2348 180.634 62.9333C181.55 59.2726 183.645 56.9356 186.051 56.7971L191.189 56.9522Z" fill="white"/>
<path d="M171.429 66.8599L184.717 70.4818L188.639 87.528L176.005 83.7344L171.429 66.8599Z" fill="#7D7D7D" fill-opacity="0.8"/>
<path d="M177.221 78.1409C177.098 78.4898 176.375 79.4535 174.826 79.3815L174.633 78.6726L177.221 78.1409Z" fill="#7D7D7D" fill-opacity="0.8"/>
<path opacity="0.2" d="M177.221 78.1409C177.098 78.4898 176.375 79.4535 174.826 79.3815L174.633 78.6726L177.221 78.1409Z" fill="#E5E5E5"/>
<path d="M180.195 78.6615C180.248 79.1156 181.154 79.9574 182.681 80.4836C184.422 81.0872 187.085 80.766 187.085 80.766L186.849 79.9187L180.195 78.6615Z" fill="#7D7D7D" fill-opacity="0.8"/>
<path opacity="0.2" d="M180.195 78.6615C180.248 79.1156 181.154 79.9574 182.681 80.4836C184.422 81.0872 187.085 80.766 187.085 80.766L186.849 79.9187L180.195 78.6615Z" fill="#E5E5E5"/>
<path d="M175.319 69.3298L175.212 68.8092C175.147 68.5157 175.93 68.5046 176.953 68.776L178.909 69.3021C179.932 69.579 180.811 70.0332 180.869 70.3212L180.982 70.8473L175.319 69.3298Z" fill="#7D7D7D" fill-opacity="0.8"/>
<path opacity="0.3" d="M175.319 69.3298L175.212 68.8092C175.147 68.5157 175.93 68.5046 176.953 68.776L178.909 69.3021C179.932 69.579 180.811 70.0332 180.869 70.3212L180.982 70.8473L175.319 69.3298Z" fill="#E5E5E5"/>
<path d="M174.398 67.3527C174.36 67.1755 174.676 67.1256 175.105 67.2474L175.882 67.469C175.882 67.469 175.646 66.3614 177.371 66.7324C177.83 66.7987 178.263 66.9866 178.631 67.2778C178.998 67.569 179.286 67.9535 179.466 68.3938L180.291 68.6375C180.752 68.7704 181.165 69.0252 181.218 69.1913L181.315 69.5181L174.473 67.6573C174.473 67.6573 174.435 67.5354 174.398 67.3527Z" fill="#455A64"/>
<path d="M175.34 67.9175C175.967 68.0781 176.23 68.1612 176.321 68.6098C176.412 69.0584 176.471 69.4904 176.471 69.4904L179.503 70.3211C179.503 70.3211 179.359 69.6731 179.31 69.4239C179.262 69.1747 179.364 69.0196 179.846 69.1525L179.889 68.9532L175.142 67.7015L175.34 67.9175Z" fill="#455A64"/>
<path d="M175.255 69.3797C175.255 69.3797 175.207 69.1471 175.142 68.8259C175.078 68.5047 175.86 68.5269 176.884 68.8259L178.845 69.3521C179.868 69.629 180.741 70.0831 180.805 70.3711L180.913 70.8972L175.255 69.3797Z" fill="#455A64"/>
<path d="M199.708 77.7587L196.718 74.0094C196.718 74.0094 189.989 76.928 188.928 77.0111C187.867 77.0942 187.047 76.0198 186.64 74.9509C186.233 73.882 185.429 74.0149 185.429 74.0149C185.429 74.0149 185.745 75.3718 185.842 75.8093C185.938 76.2468 183.511 76.5957 182.091 76.1028C180.672 75.6099 178.652 76.3244 179.916 78.3181C181.181 80.3118 183.624 80.5334 185.327 80.5334C186.044 80.5278 186.76 80.4779 187.471 80.3838C188.006 80.3118 188.542 80.2509 189.126 80.2121C192.603 79.9352 198.122 78.2682 199.708 77.7587Z" fill="#FFA8A7"/>
<path d="M172.78 71.8441L173.369 74.0206C173.487 74.4359 175.03 75.2002 176.005 75.4771C176.98 75.754 178.052 76.0807 177.612 77.493C177.184 78.7944 175.576 79.0935 174.757 79.0547C173.937 79.0159 172.823 78.2129 172.378 76.9059C171.842 75.2445 172.121 73.4723 171.896 72.4754C171.671 71.4786 172.292 71.2681 172.78 71.8441Z" fill="#FFA8A7"/>
<path d="M191.43 129.124V128.665C191.049 130.171 190.289 131.547 189.228 132.652C188.253 133.572 186.929 134.629 186.592 135.648C186.254 136.667 188.156 137.133 189.415 137.005C190.634 136.846 191.756 136.239 192.576 135.294C193.375 134.347 193.359 133.699 193.734 133.178C194.109 132.658 194.966 132.071 195.169 131.467C195.23 130.907 195.169 130.339 194.993 129.806C194.848 129.252 194.693 128.626 194.51 128.698V129.047C194.072 129.408 193.528 129.603 192.967 129.601C192.517 129.573 191.424 129.479 191.43 129.124Z" fill="#263238"/>
<path d="M194.511 129.014C194.286 129.269 194.173 128.643 193.476 128.665C193.026 128.665 192.271 129.019 192.271 128.665H191.43C191.049 130.172 190.289 131.547 189.228 132.652C188.992 132.874 188.74 133.101 188.483 133.334C187.947 133.932 188.113 134.441 189.33 134.557C190.546 134.674 191.612 133.909 192.544 132.741C193.322 131.572 193.981 130.323 194.511 129.014V129.014Z" fill="#FFA8A7"/>
<path d="M188.521 54.2274H187.792C185.93 54.2274 184.145 53.4631 182.829 52.1025C181.513 50.7419 180.773 48.8966 180.773 46.9725V46.2359C180.773 44.6011 181.402 43.0333 182.52 41.8774C183.638 40.7214 185.155 40.072 186.736 40.072H189.608C191.19 40.072 192.706 40.7214 193.825 41.8774C194.943 43.0333 195.571 44.6011 195.571 46.2359V46.9337C195.571 48.8672 194.829 50.7215 193.507 52.0892C192.184 53.4569 190.391 54.2259 188.521 54.2274V54.2274Z" fill="#263238"/>
<path d="M183.206 43.1678C182.423 43.6441 181.459 45.6766 181.556 49.9354C181.636 53.5462 182.766 54.4379 183.334 54.6982C183.902 54.9584 185.001 54.7978 186.067 54.6151V56.7805C186.067 56.7805 184.593 58.5527 184.69 59.5495C184.786 60.5464 186.833 60.779 188.194 59.8043C189.19 59.0068 190.049 58.0406 190.733 56.9466L190.707 51.9623C190.707 51.9623 191.333 52.5937 192.4 51.6301C193.278 50.8381 193.573 49.4979 192.887 48.7835C192.71 48.6124 192.496 48.4874 192.263 48.4186C192.03 48.3499 191.785 48.3394 191.547 48.3881C191.31 48.4368 191.087 48.5433 190.897 48.6987C190.707 48.8541 190.555 49.054 190.455 49.2819C189.056 49.2232 187.693 48.8044 186.49 48.0635C185.61 47.5704 184.854 46.8704 184.284 46.02C183.713 45.1697 183.344 44.1927 183.206 43.1678V43.1678Z" fill="#FFA8A7"/>
<path d="M185.435 49.0327C185.43 49.0931 185.437 49.1538 185.456 49.2113C185.474 49.2688 185.503 49.322 185.542 49.3678C185.58 49.4136 185.627 49.4511 185.679 49.4782C185.732 49.5053 185.789 49.5214 185.847 49.5256C185.967 49.5286 186.083 49.4826 186.171 49.3976C186.258 49.3126 186.309 49.1954 186.313 49.0715C186.318 48.951 186.277 48.8335 186.198 48.7447C186.159 48.7007 186.112 48.6651 186.059 48.6399C186.007 48.6148 185.95 48.6005 185.893 48.5979C185.776 48.5928 185.662 48.6357 185.577 48.7173C185.491 48.7988 185.44 48.9123 185.435 49.0327V49.0327Z" fill="#263238"/>
<path d="M185.338 52.0786L184.32 52.4164C184.36 52.5562 184.451 52.6741 184.575 52.7446C184.698 52.8151 184.843 52.8325 184.979 52.793C185.049 52.7723 185.114 52.7371 185.171 52.6894C185.227 52.6417 185.274 52.5826 185.307 52.5157C185.341 52.4489 185.361 52.3756 185.366 52.3004C185.371 52.2253 185.362 52.1498 185.338 52.0786V52.0786Z" fill="#F28F8F"/>
<path d="M181.855 47.648L182.745 47.0112C182.666 46.8898 182.545 46.8054 182.406 46.7763C182.268 46.7473 182.124 46.776 182.006 46.8561C181.944 46.8963 181.89 46.9492 181.849 47.0116C181.808 47.0739 181.779 47.1443 181.765 47.2185C181.751 47.2927 181.752 47.3691 181.767 47.443C181.783 47.5168 181.813 47.5866 181.855 47.648V47.648Z" fill="#263238"/>
<path d="M182.059 48.7004C182.058 48.7895 182.083 48.8769 182.129 48.9517C182.176 49.0266 182.243 49.0855 182.322 49.1213C182.401 49.1571 182.488 49.1681 182.573 49.1529C182.658 49.1377 182.737 49.097 182.8 49.036C182.862 48.9749 182.906 48.8961 182.926 48.8094C182.946 48.7226 182.94 48.6318 182.911 48.5482C182.881 48.4647 182.828 48.392 182.758 48.3393C182.689 48.2865 182.606 48.2561 182.52 48.2518C182.461 48.2496 182.402 48.2594 182.347 48.2809C182.292 48.3023 182.242 48.3348 182.199 48.3765C182.156 48.4183 182.121 48.4684 182.098 48.524C182.074 48.5796 182.06 48.6395 182.059 48.7004V48.7004Z" fill="#263238"/>
<path d="M184.133 48.4456L184.063 51.1758L182.67 50.7272L184.133 48.4456Z" fill="#F28F8F"/>
<path d="M186.067 54.6152C187.192 54.4601 189.501 53.7734 189.86 52.8319C189.717 53.3106 189.434 53.7321 189.051 54.0392C188.36 54.6484 186.067 55.3351 186.067 55.3351V54.6152Z" fill="#F28F8F"/>
<path d="M194.023 69.5901L190.948 73.8988L192.855 72.9185L194.023 69.5901Z" fill="#7D7D7D" fill-opacity="0.8"/>
<path opacity="0.3" d="M194.023 69.5901L190.948 73.8988L192.855 72.9185L194.023 69.5901Z" fill="white"/>
</g>
</g>
<defs>
<filter id="filter0_d_328_778" x="-4" y="0" width="237.899" height="189.937" filterUnits="userSpaceOnUse" color-interpolation-filters="sRGB">
<feFlood flood-opacity="0" result="BackgroundImageFix"/>
<feColorMatrix in="SourceAlpha" type="matrix" values="0 0 0 0 0 0 0 0 0 0 0 0 0 0 0 0 0 0 127 0" result="hardAlpha"/>
<feOffset dy="4"/>
<feGaussianBlur stdDeviation="2"/>
<feComposite in2="hardAlpha" operator="out"/>
<feColorMatrix type="matrix" values="0 0 0 0 0 0 0 0 0 0 0 0 0 0 0 0 0 0 0.25 0"/>
<feBlend mode="normal" in2="BackgroundImageFix" result="effect1_dropShadow_328_778"/>
<feBlend mode="normal" in="SourceGraphic" in2="effect1_dropShadow_328_778" result="shape"/>
</filter>
<clipPath id="clip0_328_778">
<rect width="229.9" height="181.94" fill="white"/>
</clipPath>
</defs>
</svg>
