<svg width="242" height="152" viewBox="0 0 242 152" fill="none" xmlns="http://www.w3.org/2000/svg">
<path d="M217.674 21.7442H30.7792C26.5709 21.7442 23.2291 25.0867 23.2291 29.2956V144.423H225.224V29.2956C225.224 25.0867 221.759 21.7442 217.674 21.7442Z" fill="#17282F" fill-opacity="0.6"/>
<path d="M216.808 30.0384H31.3985V136.129H216.808V30.0384Z" fill="#EEEEEE"/>
<rect x="42.6575" y="40.4352" width="164.749" height="4.12157" rx="2.06079" fill="#D1D1D1"/>
<rect x="43.8532" y="54.5991" width="95.889" height="4.12157" rx="2.06079" fill="#7683A4"/>
<rect x="42.6575" y="68.7629" width="125.047" height="4.12157" rx="2.06079" fill="#D1D1D1"/>
<rect x="42.6575" y="82.9268" width="164.749" height="4.12157" rx="2.06079" fill="#7683A4"/>
<rect x="42.2029" y="96.7378" width="164.932" height="4.12157" rx="2.06079" fill="#D1D1D1"/>
<rect x="42.2029" y="111.85" width="164.932" height="4.12157" rx="2.06079" fill="#D1D1D1"/>
<path d="M10.6042 137.284V144.678C10.6042 148.503 15.06 151.562 20.6297 151.562H227.823C233.393 151.562 237.849 148.503 237.849 144.678V137.284H10.6042Z" fill="#3FB89C"/>
<path d="M207.337 5.047C198.586 10.6908 186.463 15.1253 173.132 17.542L173.001 38.2174C172.94 47.6775 178.287 56.2363 188.892 63.656C195.861 68.5308 203.187 71.5553 206.905 72.9135C207.065 72.8577 207.24 72.7915 207.413 72.7295V5.09452C207.388 5.08005 207.361 5.06354 207.337 5.047Z" fill="#3FB89C"/>
<path d="M207.47 5.04651V73C211.336 71.5793 218.36 68.6444 225.088 63.998C235.785 56.6098 241.239 48.0461 241.299 38.5414L241.431 17.7686C228.172 15.2636 216.141 10.7481 207.47 5.04651Z" fill="#3FB89C"/>
<path d="M207.683 5.00001C194.733 9.63508 188.045 11.3086 175.581 13.6739L175.581 37.4641C175.525 46.7228 180.524 55.0993 190.439 62.361C196.954 67.132 203.804 70.0921 207.279 71.4214C207.429 71.3668 207.593 71.302 207.754 71.2413V5.04652C207.731 5.03236 207.706 5.01619 207.683 5.00001Z" fill="#3FB89C" fill-opacity="0.2"/>
<path d="M207.755 5.04639V71.2412C211.369 69.8572 217.938 66.9983 224.23 62.4721C234.232 55.2752 239.333 46.9331 239.388 37.6744V12.9713C226.772 10.8641 213.636 7.26429 207.755 5.04639Z" fill="#3FB89C" fill-opacity="0.2"/>
<path d="M194.115 22.8998C195.214 22.5774 196.402 22.5181 197.541 22.7289C198.68 22.9397 199.723 23.412 200.548 24.0907C201.373 24.7695 201.947 25.6269 202.203 26.5632C202.459 27.4996 202.386 28.4764 201.994 29.3802L221.101 45.0886L217.362 48.1608L198.255 32.4538C197.155 32.7763 195.967 32.8355 194.828 32.6247C193.689 32.4139 192.647 31.9417 191.822 31.2629C190.996 30.5841 190.422 29.7267 190.166 28.7904C189.91 27.854 189.983 26.8772 190.376 25.9734L194.315 29.2136C194.559 29.4211 194.851 29.5866 195.173 29.7005C195.496 29.8144 195.842 29.8743 196.193 29.8768C196.544 29.8793 196.892 29.8244 197.217 29.7151C197.542 29.6059 197.837 29.4445 198.085 29.2405C198.333 29.0365 198.529 28.794 198.662 28.527C198.795 28.2599 198.862 27.9738 198.859 27.6854C198.856 27.3969 198.783 27.1118 198.645 26.8467C198.506 26.5816 198.305 26.3419 198.052 26.1415L194.113 22.8984L194.115 22.8998ZM212.38 25.6287L217.986 23.0678L220.477 25.1159L217.362 29.7249L214.247 30.2377L210.512 33.3098L208.019 31.2617L211.756 28.1896L212.38 25.6287ZM199.922 36.8948L203.658 39.9684L194.937 47.1382C194.456 47.5299 193.811 47.7549 193.134 47.7669C192.457 47.7788 191.801 47.5768 191.3 47.2025C190.799 46.8282 190.492 46.3101 190.442 45.7551C190.392 45.2001 190.603 44.6505 191.031 44.2196L191.202 44.0646L199.922 36.8948Z" fill="white"/>
</svg>
