<svg height="1024" node-id="1" sillyvg="true" template-height="1024" template-width="1024" version="1.1" viewBox="0 0 1024 1024" width="1024" xmlns="http://www.w3.org/2000/svg" xmlns:xlink="http://www.w3.org/1999/xlink"><defs node-id="73"><linearGradient gradientUnits="objectBoundingBox" id="linearGradient-1" node-id="5" spreadMethod="pad" x1="0.49614564" x2="0.5063883" y1="-0.16281228" y2="1.593112"><stop offset="0" stop-color="#cae0ff" stop-opacity="0"></stop><stop offset="1" stop-color="#bcd8ff"></stop></linearGradient><linearGradient gradientUnits="objectBoundingBox" id="linearGradient-2" node-id="8" spreadMethod="pad" x1="0.5" x2="0.5" y1="-0.00000000000000003061617" y2="1"><stop offset="0" stop-color="#edf4ff"></stop><stop offset="1" stop-color="#abccff"></stop></linearGradient><linearGradient gradientUnits="objectBoundingBox" id="linearGradient-3" node-id="11" spreadMethod="pad" x1="0.5" x2="0.5" y1="-0.00000000000000019142844" y2="1"><stop offset="0" stop-color="#abccff"></stop><stop offset="1" stop-color="#70a8ff"></stop></linearGradient><linearGradient gradientUnits="objectBoundingBox" id="linearGradient-4" node-id="14" spreadMethod="pad" x1="0.5" x2="0.5" y1="0.00000000000000003061617" y2="1"><stop offset="0" stop-color="#70a8ff"></stop><stop offset="1" stop-color="#5597fd"></stop></linearGradient><linearGradient gradientUnits="objectBoundingBox" id="linearGradient-5" node-id="17" spreadMethod="pad" x1="0.108527064" x2="0.7635659" y1="0.44532442" y2="0.22723225"><stop offset="0" stop-color="#c6ddff"></stop><stop offset="1" stop-color="#ffffff"></stop></linearGradient><linearGradient gradientUnits="objectBoundingBox" id="linearGradient-6" node-id="20" spreadMethod="pad" x1="0.89147294" x2="0.23643413" y1="0.44436932" y2="0.22246732"><stop offset="0" stop-color="#c6ddff"></stop><stop offset="1" stop-color="#ffffff"></stop></linearGradient><linearGradient gradientUnits="objectBoundingBox" id="linearGradient-7" node-id="23" spreadMethod="pad" x1="-0.114583336" x2="1.4479166" y1="0.1875" y2="1.5416666"><stop offset="0" stop-color="#94bfff"></stop><stop offset="1" stop-color="#4c94fe"></stop></linearGradient><linearGradient gradientUnits="objectBoundingBox" id="linearGradient-8" node-id="26" spreadMethod="pad" x1="0.5" x2="0.5" y1="0.00000000000000003061617" y2="1"><stop offset="0" stop-color="#70a8ff"></stop><stop offset="1" stop-color="#5597fd"></stop></linearGradient><linearGradient gradientUnits="objectBoundingBox" id="linearGradient-9" node-id="29" spreadMethod="pad" x1="0.5" x2="0.5" y1="0.00000000000000003061617" y2="1"><stop offset="0" stop-color="#70a8ff"></stop><stop offset="1" stop-color="#5597fd"></stop></linearGradient></defs><g node-id="202"><path d="M 768.00 512.00 L 767.70 499.59 L 766.85 487.41 L 765.47 475.46 L 763.55 463.71 L 761.11 452.16 L 758.12 440.65 L 754.66 429.42 L 750.74 418.44 L 746.34 407.71 L 741.47 397.22 L 736.13 386.92 L 730.38 376.93 L 724.22 367.25 L 717.65 357.86 L 710.66 348.76 L 703.28 339.96 L 695.55 331.53 L 687.47 323.45 L 679.04 315.72 L 670.24 308.34 L 661.14 301.35 L 651.75 294.78 L 642.07 288.62 L 632.08 282.87 L 621.78 277.53 L 611.29 272.66 L 600.56 268.26 L 589.58 264.34 L 578.35 260.88 L 566.85 257.89 L 555.29 255.45 L 543.54 253.53 L 531.59 252.15 L 519.41 251.30 L 507.00 251.00 L 494.59 251.30 L 482.41 252.15 L 470.46 253.53 L 458.71 255.45 L 447.16 257.89 L 435.65 260.88 L 424.42 264.34 L 413.44 268.26 L 402.71 272.66 L 392.22 277.53 L 381.92 282.87 L 371.93 288.62 L 362.25 294.78 L 352.86 301.35 L 343.76 308.34 L 334.96 315.72 L 326.53 323.45 L 318.45 331.53 L 310.72 339.96 L 303.34 348.76 L 296.35 357.86 L 289.78 367.25 L 283.62 376.93 L 277.87 386.92 L 272.53 397.22 L 267.66 407.71 L 263.26 418.44 L 259.34 429.42 L 255.88 440.65 L 252.89 452.16 L 250.45 463.71 L 248.53 475.46 L 247.15 487.41 L 246.30 499.59 L 246.00 512.00 L 246.30 524.41 L 247.15 536.59 L 248.53 548.54 L 250.45 560.29 L 252.89 571.85 L 255.88 583.35 L 259.34 594.58 L 263.26 605.56 L 267.66 616.29 L 272.53 626.78 L 277.87 637.08 L 283.62 647.07 L 289.78 656.75 L 296.35 666.14 L 303.34 675.24 L 310.72 684.04 L 318.45 692.47 L 326.53 700.55 L 334.96 708.28 L 343.76 715.66 L 352.86 722.65 L 362.25 729.22 L 371.93 735.38 L 381.92 741.13 L 392.22 746.47 L 402.71 751.34 L 413.44 755.74 L 424.42 759.66 L 435.65 763.12 L 447.16 766.11 L 458.71 768.55 L 470.46 770.47 L 482.41 771.85 L 494.59 772.70 L 507.00 773.00 L 519.41 772.70 L 531.59 771.85 L 543.54 770.47 L 555.29 768.55 L 566.85 766.11 L 578.35 763.12 L 589.58 759.66 L 600.56 755.74 L 611.29 751.34 L 621.78 746.47 L 632.08 741.13 L 642.07 735.38 L 651.75 729.22 L 661.14 722.65 L 670.24 715.66 L 679.04 708.28 L 687.47 700.55 L 695.55 692.47 L 703.28 684.04 L 710.66 675.24 L 717.65 666.14 L 724.22 656.75 L 730.38 647.07 L 736.13 637.08 L 741.47 626.78 L 746.34 616.29 L 750.74 605.56 L 754.66 594.58 L 758.12 583.35 L 761.11 571.85 L 763.55 560.29 L 765.47 548.54 L 766.85 536.59 L 767.70 524.41 L 768.00 512.00 Z" fill="url(#linearGradient-1)" fill-rule="nonzero" group-id="1" id="路径" node-id="34" stroke="none" target-height="522" target-width="522" target-x="246" target-y="251"></path><path d="M 726.00 428.41 L 720.78 432.04 L 706.48 441.97 L 685.10 456.82 L 658.68 475.17 L 629.23 495.63 L 598.77 516.79 L 569.32 537.24 L 542.90 555.59 L 521.52 570.44 L 507.22 580.38 L 502.00 584.00 L 496.78 580.38 L 482.48 570.44 L 461.10 555.59 L 434.68 537.24 L 405.23 516.78 L 374.77 495.63 L 345.32 475.17 L 318.90 456.82 L 297.52 441.97 L 283.22 432.04 L 278.00 428.41 L 282.78 425.09 L 295.87 415.99 L 315.44 402.40 L 339.62 385.59 L 366.58 366.86 L 394.47 347.48 L 421.43 328.75 L 445.62 311.94 L 465.18 298.34 L 478.28 289.24 L 483.05 285.93 L 485.93 284.14 L 488.93 282.68 L 492.07 281.52 L 495.32 280.68 L 498.62 280.17 L 502.01 280.00 L 505.39 280.17 L 508.70 280.68 L 511.94 281.52 L 515.09 282.68 L 518.09 284.14 L 520.96 285.93 L 523.23 287.50 L 529.07 291.57 L 537.06 297.13 L 545.77 303.18 L 553.76 308.74 L 559.60 312.81 L 561.87 314.39 L 563.54 315.54 L 567.22 318.09 L 570.90 320.63 L 572.58 321.79 L 576.27 324.36 L 586.19 331.25 L 600.53 341.22 L 617.54 353.04 L 635.44 365.48 L 652.45 377.30 L 666.80 387.27 L 676.71 394.16 L 680.41 396.73 L 681.59 397.56 L 684.41 399.53 L 687.77 401.88 L 690.59 403.84 L 691.77 404.67 L 694.31 406.43 L 700.64 410.83 L 708.89 416.54 L 717.13 422.26 L 723.46 426.65 L 726.00 428.41 Z" fill="url(#linearGradient-2)" fill-rule="nonzero" group-id="1" id="路径" node-id="35" stroke="none" target-height="304" target-width="448" target-x="278" target-y="280"></path><path d="M 466.00 558.76 L 461.62 561.87 L 449.62 570.38 L 431.68 583.09 L 409.50 598.81 L 384.78 616.32 L 359.22 634.44 L 334.50 651.96 L 312.32 667.68 L 294.38 680.39 L 282.38 688.90 L 278.00 692.00 L 278.00 685.85 L 278.00 668.99 L 278.00 643.80 L 278.00 612.66 L 278.00 577.95 L 278.00 542.05 L 278.00 507.34 L 278.00 476.20 L 278.00 451.01 L 278.00 434.15 L 278.00 428.00 L 282.38 431.05 L 294.38 439.40 L 312.32 451.87 L 334.50 467.30 L 359.22 484.49 L 384.78 502.27 L 409.50 519.47 L 431.68 534.89 L 449.62 547.37 L 461.62 555.72 L 466.00 558.76 Z" fill="url(#linearGradient-3)" fill-rule="nonzero" group-id="1" id="路径" node-id="36" stroke="none" target-height="264" target-width="188" target-x="278" target-y="428"></path><path d="M 538.00 558.76 L 542.38 561.87 L 554.38 570.38 L 572.32 583.09 L 594.50 598.81 L 619.22 616.32 L 644.78 634.44 L 669.50 651.96 L 691.68 667.68 L 709.62 680.39 L 721.62 688.90 L 726.00 692.00 L 726.00 685.85 L 726.00 668.99 L 726.00 643.80 L 726.00 612.66 L 726.00 577.95 L 726.00 542.05 L 726.00 507.34 L 726.00 476.20 L 726.00 451.01 L 726.00 434.15 L 726.00 428.00 L 721.62 431.05 L 709.62 439.40 L 691.68 451.87 L 669.50 467.30 L 644.78 484.49 L 619.22 502.27 L 594.50 519.47 L 572.32 534.89 L 554.38 547.37 L 542.38 555.72 L 538.00 558.76 Z" fill="url(#linearGradient-3)" fill-rule="nonzero" group-id="1" id="路径" node-id="37" stroke="none" target-height="264" target-width="188" target-x="538" target-y="428"></path><path d="M 278.00 692.00 L 282.77 688.60 L 295.85 679.29 L 315.39 665.37 L 339.55 648.17 L 366.48 628.99 L 394.33 609.16 L 421.26 589.98 L 445.42 572.77 L 464.96 558.86 L 478.04 549.54 L 482.81 546.15 L 485.72 544.30 L 488.75 542.78 L 491.93 541.57 L 495.22 540.70 L 498.57 540.18 L 502.01 540.00 L 505.44 540.18 L 508.80 540.70 L 512.09 541.57 L 515.27 542.78 L 518.30 544.30 L 521.20 546.15 L 525.97 549.54 L 539.05 558.86 L 558.59 572.77 L 582.75 589.98 L 609.68 609.16 L 637.53 628.99 L 664.45 648.17 L 688.61 665.37 L 708.15 679.29 L 721.23 688.60 L 726.00 692.00 L 718.46 692.00 L 697.45 692.00 L 665.44 692.00 L 624.86 692.00 L 578.16 692.00 L 527.80 692.00 L 476.20 692.00 L 425.84 692.00 L 379.14 692.00 L 338.56 692.00 L 306.55 692.00 L 285.54 692.00 L 278.00 692.00 Z" fill="url(#linearGradient-4)" fill-rule="nonzero" group-id="1" id="路径" node-id="38" stroke="none" target-height="152" target-width="448" target-x="278" target-y="540"></path><g node-id="203"><path d="M 303.00 380.00 L 289.98 385.73 L 276.78 390.86 L 263.39 395.40 L 249.79 399.36 L 236.02 402.71 L 222.15 405.46 L 208.14 407.60 L 194.00 409.13 L 195.68 412.55 L 199.33 418.73 L 203.98 425.56 L 210.98 434.62 L 216.15 440.71 L 222.46 447.55 L 230.05 455.20 L 237.89 462.52 L 247.06 470.40 L 257.66 478.86 L 268.55 486.88 L 280.93 495.25 L 294.94 503.99 L 305.50 510.11 L 316.99 516.32 L 329.47 522.61 L 342.99 529.00 L 344.07 528.78 L 347.90 527.37 L 359.03 522.60 L 374.72 515.40 L 393.32 506.50 L 413.16 496.63 L 432.61 486.51 L 441.83 481.50 L 450.00 476.87 L 449.19 476.85 L 444.65 475.56 L 439.20 473.65 L 431.06 470.51 L 422.21 466.83 L 411.49 462.05 L 400.37 456.74 L 388.19 450.50 L 375.94 443.72 L 363.43 436.20 L 355.22 430.86 L 347.23 425.28 L 339.47 419.46 L 331.96 413.33 L 325.01 407.05 L 318.57 400.62 L 313.99 395.52 L 309.88 390.38 L 306.23 385.21 L 303.00 380.00 Z" fill="url(#linearGradient-5)" fill-rule="nonzero" group-id="1,2" node-id="138" stroke="none" target-height="149" target-width="256" target-x="194" target-y="380"></path></g><g node-id="204"><path d="M 305.01 409.74 L 303.75 409.06 L 302.40 408.70 L 301.00 408.66 L 299.60 408.94 L 296.28 410.01 L 287.71 412.78 L 275.99 416.58 L 263.22 420.71 L 251.51 424.50 L 242.94 427.27 L 239.61 428.34 L 238.63 428.87 L 237.95 429.58 L 237.53 430.49 L 237.40 431.50 L 237.60 432.46 L 238.14 433.42 L 239.15 434.31 L 240.33 434.84 L 241.62 435.00 L 242.93 434.76 L 246.34 433.60 L 255.13 430.59 L 267.15 426.47 L 280.24 421.99 L 292.26 417.87 L 301.05 414.86 L 304.46 413.69 L 305.22 413.24 L 305.71 412.64 L 305.95 411.88 L 305.92 411.09 L 305.62 410.38 L 305.01 409.74 Z" fill="#c9dfff" fill-rule="nonzero" group-id="1,3" node-id="142" stroke="none" target-height="26.339996" target-width="68.55002" target-x="237.4" target-y="408.66"></path></g><g node-id="205"><path d="M 303.97 433.64 L 302.71 432.75 L 301.30 432.23 L 299.80 432.11 L 298.28 432.40 L 295.21 433.44 L 287.52 436.02 L 277.52 439.39 L 267.52 442.75 L 259.83 445.34 L 256.75 446.38 L 255.60 447.12 L 254.98 448.23 L 254.92 449.51 L 255.50 450.74 L 256.37 451.52 L 257.39 451.98 L 258.51 452.13 L 259.65 451.92 L 262.07 451.10 L 268.29 448.98 L 276.80 446.09 L 286.07 442.93 L 294.58 440.03 L 300.81 437.91 L 303.22 437.09 L 304.13 436.48 L 304.57 435.58 L 304.54 434.57 L 303.97 433.64 Z" fill="#c9dfff" fill-rule="nonzero" group-id="1,4" node-id="146" stroke="none" target-height="20.02002" target-width="49.65001" target-x="254.92" target-y="432.11"></path></g><g node-id="206"><path d="M 326.26 445.48 L 324.97 444.69 L 323.56 444.27 L 322.09 444.22 L 320.62 444.55 L 317.97 445.51 L 311.14 447.99 L 301.79 451.39 L 291.61 455.09 L 282.27 458.49 L 275.43 460.97 L 272.78 461.93 L 271.94 462.43 L 271.37 463.08 L 271.03 463.90 L 270.96 464.79 L 271.18 465.63 L 271.71 466.45 L 272.60 467.15 L 273.61 467.55 L 274.70 467.64 L 275.81 467.42 L 278.57 466.40 L 285.69 463.79 L 295.43 460.22 L 306.04 456.32 L 315.78 452.75 L 322.90 450.13 L 325.66 449.12 L 326.60 448.45 L 327.02 447.47 L 326.93 446.41 L 326.26 445.48 Z" fill="#c9dfff" fill-rule="nonzero" group-id="1,5" node-id="150" stroke="none" target-height="23.420013" target-width="56.059998" target-x="270.96" target-y="444.22"></path></g><g node-id="207"><path d="M 342.98 481.36 L 341.73 480.35 L 340.28 479.76 L 338.72 479.62 L 337.15 479.96 L 335.12 480.74 L 330.06 482.67 L 323.48 485.18 L 316.89 487.69 L 311.83 489.62 L 309.81 490.40 L 308.75 491.12 L 308.17 492.17 L 308.09 493.37 L 308.59 494.55 L 309.48 495.41 L 310.55 495.92 L 311.73 496.06 L 312.94 495.81 L 315.11 494.97 L 320.54 492.87 L 327.59 490.14 L 334.65 487.40 L 340.08 485.30 L 342.25 484.46 L 343.03 483.91 L 343.43 483.11 L 343.43 482.21 L 342.98 481.36 Z" fill="#c9dfff" fill-rule="nonzero" group-id="1,6" node-id="154" stroke="none" target-height="16.440002" target-width="35.339996" target-x="308.09" target-y="479.62"></path></g><g node-id="208"><path d="M 699.01 463.00 L 711.61 468.66 L 724.34 473.84 L 737.22 478.57 L 750.25 482.83 L 763.45 486.64 L 776.77 489.98 L 790.18 492.85 L 803.68 495.23 L 817.28 497.15 L 831.00 498.59 L 828.97 502.76 L 824.54 510.31 L 821.07 515.60 L 816.44 522.01 L 810.44 529.72 L 804.18 537.16 L 796.54 545.51 L 787.35 554.86 L 777.85 563.80 L 766.75 573.42 L 753.91 583.75 L 744.19 591.06 L 733.47 598.61 L 721.68 606.40 L 708.77 614.45 L 695.99 621.93 L 682.07 629.51 L 666.96 637.20 L 650.58 644.99 L 649.28 644.73 L 644.63 643.01 L 631.16 637.18 L 612.16 628.39 L 589.64 617.52 L 565.61 605.46 L 542.06 593.10 L 530.90 586.98 L 521.00 581.32 L 521.81 581.33 L 526.21 580.13 L 531.53 578.32 L 539.55 575.30 L 548.33 571.75 L 559.10 567.10 L 570.36 561.95 L 582.93 555.82 L 595.70 549.19 L 609.12 541.74 L 622.45 533.76 L 635.74 525.14 L 644.43 519.07 L 652.80 512.79 L 660.88 506.29 L 668.69 499.49 L 675.93 492.55 L 682.61 485.49 L 687.38 479.92 L 691.69 474.31 L 695.56 468.68 L 699.01 463.00 Z" fill="url(#linearGradient-6)" fill-rule="nonzero" group-id="1,7" node-id="158" stroke="none" target-height="181.98999" target-width="310" target-x="521" target-y="463"></path><g node-id="212"><path d="M 695.79 499.06 L 697.32 498.23 L 698.96 497.79 L 700.66 497.73 L 702.35 498.07 L 705.48 499.08 L 713.72 501.75 L 725.37 505.51 L 738.73 509.83 L 752.08 514.15 L 763.73 517.92 L 771.98 520.58 L 775.10 521.60 L 776.27 522.21 L 777.11 523.10 L 777.62 524.21 L 777.77 525.42 L 777.54 526.63 L 776.87 527.78 L 775.65 528.86 L 774.21 529.51 L 772.65 529.71 L 771.05 529.43 L 767.85 528.33 L 759.40 525.44 L 747.45 521.35 L 733.75 516.65 L 720.06 511.96 L 708.11 507.87 L 699.66 504.98 L 696.45 503.88 L 695.53 503.35 L 694.94 502.59 L 694.65 501.68 L 694.68 500.71 L 695.05 499.82 L 695.79 499.06 Z" fill="#c9dfff" fill-rule="nonzero" group-id="1,7,11" node-id="162" stroke="none" target-height="31.980011" target-width="83.119995" target-x="694.65" target-y="497.73"></path></g><g node-id="213"><path d="M 675.43 518.52 L 676.95 517.43 L 678.67 516.81 L 680.49 516.65 L 682.33 517.00 L 685.11 517.94 L 692.31 520.36 L 702.15 523.67 L 712.87 527.28 L 722.70 530.59 L 729.90 533.01 L 732.69 533.95 L 733.70 534.50 L 734.40 535.25 L 734.83 536.20 L 734.96 537.25 L 734.76 538.26 L 734.19 539.27 L 733.14 540.21 L 731.90 540.78 L 730.54 540.96 L 729.15 540.72 L 726.23 539.72 L 718.68 537.15 L 708.36 533.64 L 697.12 529.81 L 686.80 526.30 L 679.25 523.73 L 676.32 522.73 L 675.23 521.99 L 674.69 520.89 L 674.73 519.66 L 675.43 518.52 Z" fill="#c9dfff" fill-rule="nonzero" group-id="1,7,12" node-id="167" stroke="none" target-height="24.309998" target-width="60.27002" target-x="674.69" target-y="516.65"></path></g><g node-id="214"><path d="M 654.49 534.72 L 656.06 533.76 L 657.77 533.25 L 659.55 533.18 L 661.34 533.57 L 664.55 534.74 L 672.84 537.75 L 684.17 541.87 L 696.51 546.36 L 707.85 550.47 L 716.13 553.49 L 719.35 554.65 L 720.37 555.26 L 721.06 556.05 L 721.47 557.05 L 721.55 558.13 L 721.28 559.15 L 720.63 560.16 L 719.56 561.01 L 718.32 561.50 L 717.00 561.62 L 715.66 561.34 L 712.32 560.12 L 703.68 556.95 L 691.87 552.61 L 679.00 547.89 L 667.19 543.56 L 658.56 540.39 L 655.21 539.16 L 654.37 538.65 L 653.84 537.99 L 653.56 537.15 L 653.56 536.27 L 653.86 535.47 L 654.49 534.72 Z" fill="#c9dfff" fill-rule="nonzero" group-id="1,7,13" node-id="172" stroke="none" target-height="28.440002" target-width="67.98999" target-x="653.56" target-y="533.18"></path></g><g node-id="215"><path d="M 607.39 567.07 L 608.92 565.82 L 610.68 565.11 L 612.57 564.94 L 614.48 565.35 L 616.94 566.28 L 623.08 568.63 L 631.06 571.67 L 639.04 574.72 L 645.18 577.06 L 647.63 577.99 L 648.56 578.54 L 649.21 579.25 L 649.62 580.15 L 649.75 581.13 L 649.59 582.09 L 649.10 583.05 L 648.02 584.10 L 646.71 584.72 L 645.28 584.91 L 643.81 584.60 L 641.18 583.58 L 634.60 581.04 L 626.05 577.72 L 617.49 574.41 L 610.91 571.86 L 608.28 570.84 L 607.33 570.17 L 606.85 569.19 L 606.85 568.10 L 607.39 567.07 Z" fill="#c9dfff" fill-rule="nonzero" group-id="1,7,14" node-id="177" stroke="none" target-height="19.96997" target-width="42.900024" target-x="606.85" target-y="564.94"></path></g><path d="M 629.04 549.82 L 630.59 549.08 L 632.24 548.71 L 633.93 548.72 L 635.60 549.12 L 638.88 550.32 L 647.54 553.48 L 659.77 557.95 L 673.80 563.08 L 687.82 568.21 L 700.05 572.68 L 708.71 575.84 L 711.99 577.04 L 713.07 577.68 L 713.79 578.57 L 714.17 579.64 L 714.19 580.78 L 713.83 581.88 L 713.05 582.86 L 711.99 583.56 L 710.81 583.95 L 709.57 584.02 L 708.33 583.74 L 704.95 582.50 L 696.02 579.21 L 683.40 574.56 L 668.93 569.23 L 654.47 563.90 L 641.85 559.25 L 632.92 555.97 L 629.53 554.72 L 628.61 554.16 L 628.03 553.37 L 627.77 552.43 L 627.84 551.46 L 628.25 550.57 L 629.04 549.82 Z" fill="#c9dfff" fill-rule="nonzero" group-id="1,7,15" node-id="182" stroke="none" target-height="35.309998" target-width="86.41998" target-x="627.77" target-y="548.71"></path></g><g node-id="209"><path d="M 359.53 453.32 L 358.25 452.71 L 356.89 452.41 L 355.50 452.42 L 354.12 452.75 L 350.63 454.03 L 341.63 457.32 L 329.32 461.82 L 315.92 466.72 L 303.61 471.22 L 294.61 474.51 L 291.12 475.78 L 290.22 476.33 L 289.64 477.03 L 289.32 477.92 L 289.30 478.86 L 289.59 479.73 L 290.24 480.56 L 291.11 481.13 L 292.08 481.45 L 293.10 481.50 L 294.13 481.27 L 297.73 479.95 L 307.01 476.53 L 319.70 471.85 L 333.53 466.76 L 346.23 462.08 L 355.51 458.66 L 359.11 457.34 L 359.88 456.85 L 360.35 456.24 L 360.57 455.46 L 360.51 454.65 L 360.18 453.95 L 359.53 453.32 Z" fill="#c9dfff" fill-rule="nonzero" group-id="1,8" node-id="187" stroke="none" target-height="29.089996" target-width="71.27002" target-x="289.3" target-y="452.41"></path></g><path d="M 714.00 326.00 L 716.56 325.76 L 718.90 325.12 L 721.07 324.09 L 723.03 322.70 L 724.70 321.03 L 726.09 319.07 L 727.12 316.90 L 727.76 314.56 L 728.00 312.00 L 727.76 309.44 L 727.12 307.10 L 726.09 304.93 L 724.70 302.97 L 723.03 301.30 L 721.07 299.91 L 718.90 298.88 L 716.56 298.24 L 714.00 298.00 L 711.44 298.24 L 709.10 298.88 L 706.93 299.91 L 704.97 301.30 L 703.30 302.97 L 701.91 304.93 L 700.88 307.10 L 700.24 309.44 L 700.00 312.00 L 700.24 314.56 L 700.88 316.90 L 701.91 319.07 L 703.30 321.03 L 704.97 322.70 L 706.93 324.09 L 709.10 325.12 L 711.44 325.76 L 714.00 326.00 Z M 719.66 306.34 L 720.96 308.02 L 721.74 309.89 L 722.00 312.00 L 721.74 314.11 L 720.96 315.98 L 719.66 317.66 L 717.98 318.96 L 716.11 319.74 L 714.00 320.00 L 711.89 319.74 L 710.02 318.96 L 708.34 317.66 L 707.04 315.98 L 706.26 314.11 L 706.00 312.00 L 706.26 309.89 L 707.04 308.02 L 708.34 306.34 L 710.02 305.04 L 711.89 304.26 L 714.00 304.00 L 716.11 304.26 L 717.98 305.04 L 719.66 306.34 Z" fill="url(#linearGradient-7)" fill-rule="evenodd" group-id="1" id="形状" node-id="63" stroke="none" target-height="28" target-width="28" target-x="700" target-y="298"></path><path d="M 337.00 717.00 L 336.81 719.01 L 336.31 720.85 L 335.50 722.55 L 334.40 724.10 L 333.10 725.40 L 331.55 726.50 L 329.85 727.31 L 328.01 727.81 L 326.00 728.00 L 323.99 727.81 L 322.15 727.31 L 320.45 726.50 L 318.90 725.40 L 317.60 724.10 L 316.50 722.55 L 315.69 720.85 L 315.19 719.01 L 315.00 717.00 L 315.19 714.99 L 315.69 713.15 L 316.50 711.45 L 317.60 709.90 L 318.90 708.60 L 320.45 707.50 L 322.15 706.69 L 323.99 706.19 L 326.00 706.00 L 328.01 706.19 L 329.85 706.69 L 331.55 707.50 L 333.10 708.60 L 334.40 709.90 L 335.50 711.45 L 336.31 713.15 L 336.81 714.99 L 337.00 717.00 Z" fill="none" group-id="1" id="椭圆形" node-id="64" stroke="url(#linearGradient-7)" stroke-linecap="butt" stroke-width="2.6127594" target-height="22" target-width="22" target-x="315" target-y="706"></path><path d="M 672.00 739.00 L 671.81 741.01 L 671.31 742.85 L 670.50 744.55 L 669.40 746.10 L 668.10 747.40 L 666.55 748.50 L 664.85 749.31 L 663.01 749.81 L 661.00 750.00 L 658.99 749.81 L 657.15 749.31 L 655.45 748.50 L 653.90 747.40 L 652.60 746.10 L 651.50 744.55 L 650.69 742.85 L 650.19 741.01 L 650.00 739.00 L 650.19 736.99 L 650.69 735.15 L 651.50 733.45 L 652.60 731.90 L 653.90 730.60 L 655.45 729.50 L 657.15 728.69 L 658.99 728.19 L 661.00 728.00 L 663.01 728.19 L 664.85 728.69 L 666.55 729.50 L 668.10 730.60 L 669.40 731.90 L 670.50 733.45 L 671.31 735.15 L 671.81 736.99 L 672.00 739.00 Z" fill="none" group-id="1" id="椭圆形" node-id="65" stroke="url(#linearGradient-7)" stroke-linecap="butt" stroke-width="2.6127594" target-height="22" target-width="22" target-x="650" target-y="728"></path><path d="M 362.81 322.69 L 363.53 321.04 L 364.61 319.92 L 365.99 319.23 L 367.50 319.00 L 369.01 319.23 L 370.39 319.92 L 371.47 321.04 L 372.19 322.69 L 372.60 324.41 L 373.60 328.52 L 374.78 333.43 L 375.77 337.53 L 376.19 339.26 L 376.68 340.50 L 377.47 341.53 L 378.50 342.32 L 379.74 342.81 L 381.47 343.23 L 385.57 344.22 L 390.48 345.40 L 394.59 346.40 L 396.31 346.81 L 397.96 347.53 L 399.08 348.61 L 399.77 349.99 L 400.00 351.50 L 399.77 353.01 L 399.08 354.39 L 397.96 355.47 L 396.31 356.19 L 394.59 356.60 L 390.48 357.60 L 385.57 358.78 L 381.47 359.77 L 379.74 360.19 L 378.50 360.68 L 377.47 361.47 L 376.68 362.50 L 376.19 363.74 L 375.77 365.47 L 374.78 369.57 L 373.60 374.48 L 372.60 378.59 L 372.19 380.31 L 371.47 381.96 L 370.39 383.08 L 369.01 383.77 L 367.50 384.00 L 365.99 383.77 L 364.61 383.08 L 363.53 381.96 L 362.81 380.31 L 362.40 378.59 L 361.40 374.48 L 360.22 369.57 L 359.23 365.47 L 358.81 363.74 L 358.32 362.50 L 357.53 361.47 L 356.50 360.68 L 355.26 360.19 L 353.53 359.77 L 349.43 358.78 L 344.52 357.60 L 340.41 356.60 L 338.69 356.19 L 337.04 355.47 L 335.92 354.39 L 335.23 353.01 L 335.00 351.50 L 335.23 349.99 L 335.92 348.61 L 337.04 347.53 L 338.69 346.81 L 340.41 346.40 L 344.52 345.40 L 349.43 344.22 L 353.53 343.23 L 355.26 342.81 L 356.50 342.32 L 357.53 341.53 L 358.32 340.50 L 358.81 339.26 L 359.23 337.53 L 360.22 333.43 L 361.40 328.52 L 362.40 324.41 L 362.81 322.69 Z" fill="url(#linearGradient-8)" fill-rule="nonzero" group-id="1" id="路径" node-id="66" stroke="none" target-height="65" target-width="65" target-x="335" target-y="319"></path><path d="M 759.81 667.69 L 760.53 666.04 L 761.61 664.92 L 762.99 664.23 L 764.50 664.00 L 766.01 664.23 L 767.39 664.92 L 768.47 666.04 L 769.19 667.69 L 769.60 669.41 L 770.60 673.52 L 771.78 678.43 L 772.77 682.53 L 773.19 684.26 L 773.68 685.50 L 774.47 686.53 L 775.50 687.32 L 776.74 687.81 L 778.47 688.23 L 782.57 689.22 L 787.48 690.40 L 791.59 691.40 L 793.31 691.81 L 794.96 692.53 L 796.08 693.61 L 796.77 694.99 L 797.00 696.50 L 796.77 698.01 L 796.08 699.39 L 794.96 700.47 L 793.31 701.19 L 791.59 701.60 L 787.48 702.60 L 782.57 703.78 L 778.47 704.77 L 776.74 705.19 L 775.50 705.68 L 774.47 706.47 L 773.68 707.50 L 773.19 708.74 L 772.77 710.47 L 771.78 714.57 L 770.60 719.48 L 769.60 723.59 L 769.19 725.31 L 768.47 726.96 L 767.39 728.08 L 766.01 728.77 L 764.50 729.00 L 762.99 728.77 L 761.61 728.08 L 760.53 726.96 L 759.81 725.31 L 759.40 723.59 L 758.40 719.48 L 757.22 714.57 L 756.23 710.47 L 755.81 708.74 L 755.32 707.50 L 754.53 706.47 L 753.50 705.68 L 752.26 705.19 L 750.53 704.77 L 746.43 703.78 L 741.52 702.60 L 737.41 701.60 L 735.69 701.19 L 734.04 700.47 L 732.92 699.39 L 732.23 698.01 L 732.00 696.50 L 732.23 694.99 L 732.92 693.61 L 734.04 692.53 L 735.69 691.81 L 737.41 691.40 L 741.52 690.40 L 746.43 689.22 L 750.53 688.23 L 752.26 687.81 L 753.50 687.32 L 754.53 686.53 L 755.32 685.50 L 755.81 684.26 L 756.23 682.53 L 757.22 678.43 L 758.40 673.52 L 759.40 669.41 L 759.81 667.69 Z" fill="url(#linearGradient-8)" fill-rule="nonzero" group-id="1" id="路径" node-id="67" stroke="none" target-height="65" target-width="65" target-x="732" target-y="664"></path><path d="M 253.77 630.57 L 255.23 630.60 L 256.47 631.10 L 257.47 631.98 L 258.13 633.14 L 258.36 634.46 L 258.10 635.89 L 257.33 637.90 L 255.51 642.67 L 253.33 648.36 L 251.51 653.13 L 250.75 655.13 L 249.99 656.38 L 248.93 657.21 L 247.67 657.63 L 246.34 657.62 L 245.08 657.17 L 243.97 656.22 L 242.62 654.56 L 239.40 650.59 L 235.55 645.86 L 232.33 641.90 L 230.98 640.24 L 230.28 638.95 L 230.09 637.63 L 230.35 636.32 L 231.03 635.17 L 232.05 634.31 L 233.43 633.82 L 235.54 633.48 L 240.59 632.68 L 246.61 631.71 L 251.65 630.91 L 253.77 630.57 Z" fill="url(#linearGradient-9)" fill-rule="nonzero" group-id="1,9" node-id="196" stroke="none" target-height="27.059998" target-width="28.269989" target-x="230.09" target-y="630.57"></path><path d="M 768.24 434.44 L 768.14 432.98 L 768.53 431.70 L 769.31 430.62 L 770.41 429.86 L 771.70 429.51 L 773.15 429.64 L 775.22 430.22 L 780.13 431.60 L 786.00 433.25 L 790.92 434.63 L 792.98 435.21 L 794.29 435.86 L 795.21 436.83 L 795.75 438.05 L 795.86 439.38 L 795.52 440.67 L 794.68 441.87 L 793.14 443.36 L 789.49 446.93 L 785.13 451.19 L 781.47 454.76 L 779.94 456.25 L 778.72 457.07 L 777.42 457.37 L 776.10 457.23 L 774.89 456.66 L 773.94 455.72 L 773.33 454.39 L 772.80 452.32 L 771.54 447.37 L 770.03 441.46 L 768.77 436.51 L 768.24 434.44 Z" fill="url(#linearGradient-9)" fill-rule="nonzero" group-id="1,10" node-id="200" stroke="none" target-height="27.859985" target-width="27.71997" target-x="768.14" target-y="429.51"></path></g></svg>