<?xml version="1.0" standalone="no"?><!DOCTYPE svg PUBLIC "-//W3C//DTD SVG 1.1//EN" "http://www.w3.org/Graphics/SVG/1.1/DTD/svg11.dtd"><svg t="1687601875113" class="icon" viewBox="0 0 1024 1024" version="1.1" xmlns="http://www.w3.org/2000/svg" p-id="1993" xmlns:xlink="http://www.w3.org/1999/xlink" width="200" height="200"><path d="M176 176v144a8 8 0 0 1-8 8h-48a8 8 0 0 1-8-8V144c0-17.673 14.327-32 32-32h736c17.673 0 32 14.327 32 32v736c0 17.673-14.327 32-32 32H144c-17.673 0-32-14.327-32-32V704a8 8 0 0 1 8-8h48a8 8 0 0 1 8 8v144h672V176H176z" fill="#ffffff" p-id="1994"></path><path d="M546.889 333.384a7.999 7.999 0 0 0-11.313-0.081l-39.879 39.315a8 8 0 0 0-0.081 11.313l90.458 91.756H72a8 8 0 0 0-8 8v56a8 8 0 0 0 8 8h626a8 8 0 0 0 8-8v-32c0-9.955-4.546-18.849-11.675-24.718l0.018-0.017-147.454-149.568z" fill="#ffffff" p-id="1995"></path></svg>