<svg width="26" height="26" viewBox="0 0 26 26" fill="none" xmlns="http://www.w3.org/2000/svg">
<g id="file-warning-line" clip-path="url(#clip0_174_7710)">
<g id="Group">
<path id="Vector" d="M16.25 4.33333H5.41667V21.6667H20.5833V8.66666H16.25V4.33333ZM3.25 3.24133C3.25 2.64766 3.73425 2.16666 4.33225 2.16666H17.3333L22.75 7.58333V22.7424C22.751 22.8847 22.724 23.0257 22.6704 23.1576C22.6169 23.2894 22.538 23.4094 22.4381 23.5107C22.3382 23.612 22.2193 23.6926 22.0883 23.748C21.9572 23.8033 21.8165 23.8323 21.6743 23.8333H4.32575C4.04124 23.8313 3.76894 23.7175 3.56765 23.5164C3.36637 23.3154 3.25227 23.0432 3.25 22.7587V3.24133ZM11.9167 16.25H14.0833V18.4167H11.9167V16.25ZM11.9167 7.58333H14.0833V14.0833H11.9167V7.58333Z" fill="#03053D"/>
</g>
</g>
<defs>
<clipPath id="clip0_174_7710">
<rect width="26" height="26" fill="white"/>
</clipPath>
</defs>
</svg>
