<svg width="24" height="28" viewBox="0 0 24 28" fill="none" xmlns="http://www.w3.org/2000/svg">
<path d="M5.00024 10.9174C5.26546 10.9174 5.51981 11.0343 5.70735 11.2425C5.89489 11.4506 6.00024 11.7329 6.00024 12.0273C7.57139 12.0247 9.09722 12.6114 10.3302 13.6921H12.5002C13.8322 13.6921 15.0302 14.3347 15.8532 15.3557L19.0002 15.3568C19.9455 15.3566 20.8715 15.6537 21.6708 16.2137C22.4701 16.7737 23.11 17.5738 23.5162 18.521C21.1512 21.9849 17.3222 24.2357 13.0002 24.2357C10.2102 24.2357 7.85024 23.5665 5.94024 22.3956C5.87029 22.6098 5.74248 22.7949 5.57426 22.9256C5.40604 23.0563 5.20559 23.1262 5.00024 23.1258H2.00024C1.73503 23.1258 1.48067 23.0089 1.29314 22.8008C1.1056 22.5926 1.00024 22.3103 1.00024 22.016V12.0273C1.00024 11.7329 1.1056 11.4506 1.29314 11.2425C1.48067 11.0343 1.73503 10.9174 2.00024 10.9174H5.00024ZM6.00124 14.247L6.00024 19.8196L6.04524 19.8562C7.84024 21.2546 10.1782 22.016 13.0002 22.016C16.0042 22.016 18.7992 20.733 20.8352 18.5421L20.9682 18.3945L20.8482 18.2835C20.376 17.8731 19.8037 17.6295 19.2052 17.5843L19.0002 17.5766L16.8882 17.5754C16.9612 17.9328 17.0002 18.3046 17.0002 18.6864V19.7963H8.00024V17.5766L14.7902 17.5754L14.7562 17.4889C14.5646 17.0444 14.2698 16.6646 13.9022 16.3884C13.5345 16.1122 13.1072 15.9496 12.6642 15.9173L12.5002 15.9118H9.57024C9.10556 15.3843 8.55051 14.9653 7.93777 14.6794C7.32502 14.3935 6.66594 14.2465 6.00124 14.247ZM4.00024 13.1371H3.00024V20.9061H4.00024V13.1371ZM13.6462 4.89643L14.0002 5.29043L14.3542 4.89754C14.5861 4.63808 14.8618 4.43199 15.1655 4.2911C15.4693 4.15021 15.7951 4.0773 16.1244 4.07655C16.4536 4.0758 16.7797 4.14723 17.084 4.28674C17.3883 4.42625 17.6647 4.63109 17.8975 4.88949C18.1303 5.1479 18.3147 5.45479 18.4404 5.79254C18.566 6.1303 18.6302 6.49226 18.6295 6.85765C18.6287 7.22304 18.5629 7.58467 18.4359 7.92177C18.3089 8.25887 18.1231 8.5648 17.8892 8.822L14.0002 13.1371L10.1102 8.81978C9.87646 8.56251 9.69077 8.25652 9.56383 7.91938C9.43688 7.58224 9.37119 7.22059 9.37051 6.8552C9.36984 6.48981 9.4342 6.12786 9.5599 5.79015C9.6856 5.45244 9.87016 5.14561 10.103 4.88727C10.3358 4.62894 10.6123 4.42418 10.9167 4.28477C11.221 4.14536 11.5471 4.07403 11.8763 4.07488C12.2056 4.07573 12.5314 4.14875 12.8351 4.28973C13.1388 4.43072 13.4145 4.6369 13.6462 4.89643ZM11.5262 6.46688C11.4434 6.55836 11.392 6.67917 11.381 6.80833C11.3701 6.93748 11.4002 7.06682 11.4662 7.17386L11.5242 7.25044L14.0002 9.99623L16.4762 7.25044C16.5591 7.15862 16.6102 7.03746 16.6208 6.90806C16.6314 6.77867 16.6008 6.64925 16.5342 6.54235L16.4762 6.46466C16.3934 6.37291 16.2842 6.31632 16.1676 6.30476C16.051 6.2932 15.9344 6.3274 15.8382 6.4014L15.7682 6.46577L13.9992 8.428L12.2322 6.46355L12.1642 6.4014C12.0679 6.32754 11.9513 6.29353 11.8347 6.30529C11.7181 6.31705 11.609 6.37496 11.5262 6.46688Z" fill="#F5F6FA"/>
</svg>
