<svg width="17" height="17" viewBox="0 0 17 17" fill="none" xmlns="http://www.w3.org/2000/svg">
<path d="M2.2291 0.19501C2.82714 -0.0183401 3.47346 -0.0575537 4.09292 0.081928C4.71237 0.22141 5.27951 0.533857 5.7284 0.982944C6.17728 1.43203 6.48947 1.99931 6.62868 2.61882C6.76788 3.23834 6.72838 3.88464 6.51476 4.48259L16.9079 14.8757L14.8743 16.9083L4.48118 6.51618C3.88313 6.72953 3.23681 6.76874 2.61736 6.62926C1.99791 6.48978 1.43077 6.17733 0.981883 5.72824C0.532997 5.27916 0.220804 4.71188 0.0815989 4.09236C-0.0576058 3.47285 -0.0181033 2.82654 0.195514 2.22859L2.33835 4.37239C2.47095 4.50968 2.62957 4.61919 2.80495 4.69453C2.98033 4.76987 3.16896 4.80952 3.35983 4.81118C3.5507 4.81284 3.73999 4.77647 3.91666 4.70419C4.09332 4.63191 4.25382 4.52517 4.38879 4.3902C4.52376 4.25523 4.6305 4.09473 4.70278 3.91807C4.77506 3.74141 4.81143 3.55212 4.80977 3.36125C4.80811 3.17038 4.76846 2.98175 4.69312 2.80637C4.61778 2.63099 4.50827 2.47236 4.37097 2.33976L2.22814 0.194052L2.2291 0.19501ZM12.1641 2.00051L15.2136 0.306177L16.5686 1.66126L14.8743 4.71068L13.18 5.04993L11.1483 7.08255L9.79226 5.72747L11.8249 3.69484L12.1641 2.00051ZM5.38776 9.45443L7.42039 11.488L2.67664 16.2318C2.41505 16.4909 2.06399 16.6398 1.69586 16.6477C1.32773 16.6556 0.970601 16.522 0.698115 16.2743C0.42563 16.0266 0.25857 15.6839 0.231386 15.3167C0.204202 14.9494 0.318967 14.5858 0.552014 14.3007L0.644973 14.1982L5.38776 9.45443Z" fill="#202020"/>
</svg>
