<svg width="15" height="8" viewBox="0 0 15 8" fill="none" xmlns="http://www.w3.org/2000/svg">
<path id="Vector" d="M7.59429 8C6.84001 8 6.18002 7.73494 5.61431 7.20483L0.240086 1.55027C-0.137052 1.19686 -0.0427677 0.666743 0.334371 0.313333C0.711509 -0.0400771 1.27722 0.0482757 1.65436 0.401686L7.12286 6.05624C7.21715 6.1446 7.40572 6.23295 7.59429 6.23295C7.78285 6.23295 7.97142 6.1446 8.15999 5.96789L13.3456 0.313333C13.7228 -0.0400771 14.2885 -0.128429 14.6656 0.224981C15.0428 0.578391 15.1371 1.10851 14.7599 1.46192L9.57426 7.11648C9.10284 7.73494 8.44285 8 7.59429 8Z" fill="#202020"/>
</svg>
