<svg width="24" height="24" viewBox="0 0 24 24" fill="none" xmlns="http://www.w3.org/2000/svg">
<path d="M12.4959 14.4397V16.7039C11.3649 16.3572 10.1545 16.2509 8.96633 16.3938C7.77813 16.5367 6.64683 16.9248 5.66744 17.5253C4.68805 18.1258 3.88916 18.9213 3.33787 19.8449C2.78657 20.7686 2.49896 21.7934 2.49919 22.8334L3.22965e-07 22.8323C-0.000387516 21.5094 0.348538 20.204 1.02004 19.0161C1.69154 17.8282 2.6678 16.7894 3.87401 15.9792C5.08022 15.1689 6.48436 14.6089 7.97884 14.3418C9.47333 14.0748 11.0185 14.1079 12.4959 14.4386V14.4397ZM9.99674 13.0834C5.85434 13.0834 2.49919 10.1746 2.49919 6.58337C2.49919 2.99212 5.85434 0.083374 9.99674 0.083374C14.1391 0.083374 17.4943 2.99212 17.4943 6.58337C17.4943 10.1746 14.1391 13.0834 9.99674 13.0834ZM9.99674 10.9167C12.7583 10.9167 14.9951 8.97754 14.9951 6.58337C14.9951 4.18921 12.7583 2.25004 9.99674 2.25004C7.23514 2.25004 4.99837 4.18921 4.99837 6.58337C4.99837 8.97754 7.23514 10.9167 9.99674 10.9167ZM18.2266 17.4167L15.9411 15.4364L17.7092 13.9035L23.01 18.5L17.7092 23.0966L15.9411 21.5637L18.2266 19.5834H13.7455V17.4167H18.2266Z" fill="#03053D"/>
</svg>
