<svg width="70" height="70" viewBox="0 0 70 70" fill="none" xmlns="http://www.w3.org/2000/svg">
<g filter="url(#filter0_d_117_1053)">
<circle cx="35" cy="31" r="30" fill="white" stroke="black" stroke-width="2"/>
<path d="M23 23.2222V26.3333H47.8889V23.2222C47.8889 22.3971 47.5611 21.6058 46.9777 21.0223C46.3942 20.4389 45.6029 20.1111 44.7778 20.1111H26.1111C25.286 20.1111 24.4947 20.4389 23.9112 21.0223C23.3278 21.6058 23 22.3971 23 23.2222Z" fill="#2F2F2F"/>
<path fill-rule="evenodd" clip-rule="evenodd" d="M29.2222 16C29.7745 16 30.2222 16.4477 30.2222 17V19.1111H40.6667V17C40.6667 16.4477 41.1144 16 41.6667 16C42.219 16 42.6667 16.4477 42.6667 17V19.1111H44.7778C45.8681 19.1111 46.9138 19.5442 47.6848 20.3152C48.4558 21.0862 48.8889 22.1319 48.8889 23.2222V26.3333C48.8889 26.4713 48.861 26.6027 48.8105 26.7222C48.861 26.8418 48.8889 26.9732 48.8889 27.1111V41.8889C48.8889 42.9792 48.4558 44.0249 47.6848 44.7959C46.9138 45.5669 45.8681 46 44.7778 46H26.1111C25.0208 46 23.9751 45.5669 23.2041 44.7959C22.4331 44.0249 22 42.9792 22 41.8889V27.1111C22 26.9732 22.0279 26.8418 22.0784 26.7222C22.0279 26.6027 22 26.4713 22 26.3333V23.2222C22 22.1319 22.4331 21.0862 23.2041 20.3152C23.9751 19.5442 25.0208 19.1111 26.1111 19.1111H28.2222V17C28.2222 16.4477 28.6699 16 29.2222 16ZM24 25.3333V23.2222C24 22.6623 24.2224 22.1254 24.6183 21.7294C25.0142 21.3335 25.5512 21.1111 26.1111 21.1111H44.7778C45.3377 21.1111 45.8746 21.3335 46.2706 21.7294C46.6665 22.1254 46.8889 22.6623 46.8889 23.2222V25.3333H24ZM46.8889 27.3333H24V41.8889C24 42.4488 24.2224 42.9858 24.6183 43.3817C25.0142 43.7776 25.5512 44 26.1111 44H44.7778C45.3377 44 45.8746 43.7776 46.2706 43.3817C46.6665 42.9858 46.8889 42.4488 46.8889 41.8889V27.3333Z" fill="#2F2F2F"/>
</g>
<defs>
<filter id="filter0_d_117_1053" x="0" y="0" width="70" height="70" filterUnits="userSpaceOnUse" color-interpolation-filters="sRGB">
<feFlood flood-opacity="0" result="BackgroundImageFix"/>
<feColorMatrix in="SourceAlpha" type="matrix" values="0 0 0 0 0 0 0 0 0 0 0 0 0 0 0 0 0 0 127 0" result="hardAlpha"/>
<feOffset dy="4"/>
<feGaussianBlur stdDeviation="2"/>
<feComposite in2="hardAlpha" operator="out"/>
<feColorMatrix type="matrix" values="0 0 0 0 0 0 0 0 0 0 0 0 0 0 0 0 0 0 0.25 0"/>
<feBlend mode="normal" in2="BackgroundImageFix" result="effect1_dropShadow_117_1053"/>
<feBlend mode="normal" in="SourceGraphic" in2="effect1_dropShadow_117_1053" result="shape"/>
</filter>
</defs>
</svg>
