<svg width="59" height="52" viewBox="0 0 59 52" fill="none" xmlns="http://www.w3.org/2000/svg">
<g clip-path="url(#clip0_617_267)">
<path d="M58.1986 40.9983L48.5416 51.2918C48.3316 51.5154 48.0777 51.6937 47.7954 51.8156C47.5131 51.9374 47.2087 52.0002 46.9009 52H1.12113C0.902688 52 0.689011 51.9365 0.506344 51.8175C0.323678 51.6985 0.179983 51.529 0.0929143 51.3298C0.00584555 51.1308 -0.020804 50.9107 0.0162399 50.6968C0.0532839 50.4828 0.152408 50.2842 0.301433 50.1256L9.96588 39.832C10.1753 39.609 10.4284 39.4311 10.7098 39.3092C10.9912 39.1874 11.2946 39.1243 11.6015 39.1238H57.3788C57.5973 39.1238 57.811 39.1873 57.9937 39.3063C58.1763 39.4253 58.32 39.5948 58.407 39.794C58.4941 39.993 58.5208 40.2131 58.4838 40.4271C58.4467 40.641 58.3476 40.8396 58.1986 40.9983ZM48.5416 20.2701C48.3316 20.0465 48.0777 19.8682 47.7954 19.7463C47.5131 19.6246 47.2087 19.5618 46.9009 19.5619H1.12113C0.902688 19.5619 0.689011 19.6254 0.506344 19.7444C0.323678 19.8634 0.179983 20.0329 0.0929143 20.2321C0.00584555 20.4311 -0.020804 20.6512 0.0162399 20.8652C0.0532839 21.0791 0.152408 21.2777 0.301433 21.4363L9.96588 31.7299C10.1753 31.9529 10.4284 32.1308 10.7098 32.2527C10.9912 32.3745 11.2946 32.4376 11.6015 32.4381H57.3788C57.5973 32.4381 57.811 32.3746 57.9937 32.2556C58.1763 32.1366 58.32 31.9671 58.407 31.7679C58.4941 31.5689 58.5208 31.3488 58.4838 31.1348C58.4467 30.9209 58.3476 30.7223 58.1986 30.5636L48.5416 20.2701ZM1.12113 12.8762H46.9009C47.2087 12.8763 47.5131 12.8135 47.7954 12.6917C48.0777 12.5699 48.3316 12.3916 48.5416 12.168L58.1986 1.87448C58.3476 1.71575 58.4467 1.51721 58.4838 1.30325C58.5208 1.08929 58.4941 0.869245 58.407 0.670139C58.32 0.471031 58.1763 0.301539 57.9937 0.182486C57.811 0.0634338 57.5973 7.33167e-06 57.3788 0H11.6015C11.2946 0.000519053 10.9912 0.0636403 10.7098 0.185456C10.4284 0.307271 10.1753 0.485188 9.96588 0.70819L0.303924 11.0017C0.155043 11.1603 0.055963 11.3586 0.018835 11.5724C-0.018293 11.786 0.00814508 12.0059 0.0949073 12.2049C0.181669 12.404 0.324983 12.5734 0.507272 12.6927C0.689562 12.8119 0.902907 12.8757 1.12113 12.8762Z" fill="url(#paint0_linear_617_267)"/>
</g>
<defs>
<linearGradient id="paint0_linear_617_267" x1="4.93808" y1="53.2393" x2="52.6159" y2="-0.838729" gradientUnits="userSpaceOnUse">
<stop offset="0.08" stop-color="#45FFF4"/>
<stop offset="0.3" stop-color="#52F3C3"/>
<stop offset="0.5" stop-color="#5497D5"/>
<stop offset="0.6" stop-color="#43B4CA"/>
<stop offset="0.72" stop-color="#28E0B9"/>
<stop offset="0.97" stop-color="#19FB9B"/>
</linearGradient>
<clipPath id="clip0_617_267">
<rect width="58.5" height="52" fill="white"/>
</clipPath>
</defs>
</svg>
