<svg width="70" height="70" viewBox="0 0 70 70" fill="none" xmlns="http://www.w3.org/2000/svg">
<g filter="url(#filter0_d_117_1051)">
<circle cx="35" cy="31" r="30" fill="white" stroke="#2F2F2F" stroke-width="2"/>
<path d="M43.3333 26C43.3333 23.6983 42.4 21.615 40.8933 20.1083C39.385 18.6 37.3017 17.6666 35 17.6666C32.6983 17.6666 30.615 18.6 29.1067 20.1083C27.6 21.615 26.6667 23.6983 26.6667 26C26.6667 28.3016 27.6 30.385 29.1067 31.8916C30.615 33.4 32.6983 34.3333 35 34.3333C37.3017 34.3333 39.385 33.4 40.8933 31.8916C41.6681 31.1187 42.2825 30.2003 42.7012 29.1893C43.12 28.1782 43.3348 27.0943 43.3333 26ZM25 42.6666C25 44.3333 28.75 46 35 46C40.8633 46 45 44.3333 45 42.6666C45 39.3333 41.0767 36 35 36C28.75 36 25 39.3333 25 42.6666Z" fill="#3FB89C"/>
</g>
<defs>
<filter id="filter0_d_117_1051" x="0" y="0" width="70" height="70" filterUnits="userSpaceOnUse" color-interpolation-filters="sRGB">
<feFlood flood-opacity="0" result="BackgroundImageFix"/>
<feColorMatrix in="SourceAlpha" type="matrix" values="0 0 0 0 0 0 0 0 0 0 0 0 0 0 0 0 0 0 127 0" result="hardAlpha"/>
<feOffset dy="4"/>
<feGaussianBlur stdDeviation="2"/>
<feComposite in2="hardAlpha" operator="out"/>
<feColorMatrix type="matrix" values="0 0 0 0 0 0 0 0 0 0 0 0 0 0 0 0 0 0 0.25 0"/>
<feBlend mode="normal" in2="BackgroundImageFix" result="effect1_dropShadow_117_1051"/>
<feBlend mode="normal" in="SourceGraphic" in2="effect1_dropShadow_117_1051" result="shape"/>
</filter>
</defs>
</svg>
